<svg width="36" height="36" viewBox="0 0 36 36" fill="none" xmlns="http://www.w3.org/2000/svg">
<path d="M32.1828 1H3.81722C2.26131 1 1 2.26131 1 3.81722V32.1828C1 33.7387 2.26131 35 3.81722 35H32.1828C33.7387 35 35 33.7387 35 32.1828V3.81722C35 2.26131 33.7387 1 32.1828 1Z" stroke="#0E1E2A" stroke-linecap="round" stroke-linejoin="round"/>
<path d="M19.8435 14.0641H16.1562V29.2343H19.8435V14.0641Z" fill="url(#paint0_linear_273_9428)"/>
<path d="M19.8435 14.0641H16.1562V29.2343H19.8435V14.0641Z" stroke="#0E1E2A" stroke-linecap="round" stroke-linejoin="round"/>
<path d="M16.6949 9.9143C16.4365 9.65669 16.2603 9.3282 16.1887 8.97042C16.1171 8.61263 16.1532 8.24164 16.2926 7.90442C16.432 7.56721 16.6683 7.27893 16.9716 7.07609C17.2749 6.87326 17.6316 6.76498 17.9965 6.76498C18.3613 6.76498 18.718 6.87326 19.0213 7.07609C19.3246 7.27893 19.5609 7.56721 19.7003 7.90442C19.8397 8.24164 19.8758 8.61263 19.8042 8.97042C19.7326 9.3282 19.5565 9.65669 19.298 9.9143C18.9525 10.2588 18.4844 10.4522 17.9965 10.4522C17.5085 10.4522 17.0404 10.2588 16.6949 9.9143Z" fill="url(#paint1_linear_273_9428)"/>
<path d="M16.6949 9.9143C16.4365 9.65669 16.2603 9.3282 16.1887 8.97042C16.1171 8.61263 16.1532 8.24164 16.2926 7.90442C16.432 7.56721 16.6683 7.27893 16.9716 7.07609C17.2749 6.87326 17.6316 6.76498 17.9965 6.76498C18.3613 6.76498 18.718 6.87326 19.0213 7.07609C19.3246 7.27893 19.5609 7.56721 19.7003 7.90442C19.8397 8.24164 19.8758 8.61263 19.8042 8.97042C19.7326 9.3282 19.5565 9.65669 19.298 9.9143C18.9525 10.2588 18.4844 10.4522 17.9965 10.4522C17.5085 10.4522 17.0404 10.2588 16.6949 9.9143Z" stroke="#0E1E2A" stroke-linecap="round" stroke-linejoin="round"/>
<defs>
<linearGradient id="paint0_linear_273_9428" x1="19.9971" y1="13.2214" x2="12.3674" y2="15.0996" gradientUnits="userSpaceOnUse">
<stop stop-color="#FCA522"/>
<stop offset="1" stop-color="#FCD93D"/>
</linearGradient>
<linearGradient id="paint1_linear_273_9428" x1="15.8968" y1="8.60861" x2="20.2498" y2="8.60861" gradientUnits="userSpaceOnUse">
<stop stop-color="#08D18B"/>
<stop offset="1" stop-color="#25B9EF"/>
</linearGradient>
</defs>
</svg>
