<?xml version="1.0" encoding="UTF-8"?><svg xmlns="http://www.w3.org/2000/svg" xmlns:xlink="http://www.w3.org/1999/xlink" viewBox="0 0 632.96 197.9"><defs><style>.cls-1{fill:url(#linear-gradient);}.cls-2{fill:#565959;}</style><linearGradient id="linear-gradient" x1="524.82" y1="146.26" x2="632.96" y2="146.26" gradientTransform="translate(0 200) scale(1 -1)" gradientUnits="userSpaceOnUse"><stop offset="0" stop-color="#00ce7c"/><stop offset="1" stop-color="#4ac1e0"/></linearGradient></defs><g id="Layer_2"><path class="cls-1" d="M611.72,0h-33.07c-11.71,0-21.24,9.53-21.24,21.25V59.6c0,.14-.01,.25-.02,.34-.25,.05-.6,.09-.88,.08l-15.37-.03c-9,0-16.32,7.32-16.32,16.32v14.86c0,9,7.32,16.32,16.32,16.32h14.86c9,0,16.32-7.32,16.32-16.32v-14.98c0-.17,.05-.4,.1-.54,.14-.04,.43-.09,.9-.09h38.4c11.71,0,21.24-9.53,21.24-21.25V21.25c0-11.72-9.52-21.25-21.24-21.25Zm6.35,21.25V54.32c0,3.5-2.85,6.35-6.35,6.35h-38.4c-.35,0-.7,0-1.04,.03,.02-.31,.03-.62,.03-.93V21.25c0-3.5,2.85-6.35,6.35-6.35h33.07c3.49,0,6.34,2.85,6.34,6.35Zm-60.6,53.64c-.05,.65-.06,1.17-.05,1.51v14.75c0,.76-.67,1.42-1.42,1.42h-14.85c-.76,0-1.42-.67-1.42-1.42v-14.85c0-.76,.66-1.42,1.42-1.42h14.48c.45,.02,1.17,.04,1.84,0Z"/></g><g id="Layer_8"><g id="Layer_1"><path class="cls-2" d="M156.8,164.91v-55.76c0-3.66,1.79-5.5,5.37-5.5h5.1c3.58,0,5.37,1.83,5.37,5.5v4.06l-.26,3.01h.26c1.83-3.75,4.73-7.05,8.7-9.88,3.97-2.83,8.35-4.25,13.15-4.25,10.21,0,16.71,4.58,19.5,13.74h.26c1.92-3.75,4.95-6.98,9.1-9.69,4.14-2.7,8.7-4.06,13.68-4.06,14.57,0,21.86,8.46,21.86,25.39v37.43c0,3.66-1.83,5.5-5.5,5.5h-5.63c-3.67,0-5.5-1.83-5.5-5.5v-34.29c0-4.36-.63-7.68-1.9-9.95-1.27-2.27-3.69-3.4-7.26-3.4-5.32,0-9.49,2.29-12.5,6.87s-4.52,10.01-4.52,16.3v24.48c0,3.66-1.79,5.5-5.37,5.5h-5.76c-3.67,0-5.5-1.83-5.5-5.5v-34.29c0-4.27-.59-7.57-1.77-9.88-1.18-2.31-3.56-3.47-7.13-3.47-5.5,0-9.75,2.31-12.76,6.94-3.01,4.63-4.52,10.04-4.52,16.23v24.48c0,3.66-1.79,5.5-5.37,5.5h-5.76c-3.55-.01-5.34-1.84-5.34-5.51Z"/></g></g><g id="Layer_6"><path class="cls-2" d="M348.68,146.59v-37.43c0-3.66,1.83-5.5,5.5-5.5h5.63c3.66,0,5.5,1.83,5.5,5.5v34.03c0,4.45,.76,7.83,2.29,10.14s4.21,3.47,8.05,3.47c5.76,0,10.32-2.18,13.68-6.54s5.04-9.69,5.04-15.97v-25.13c0-3.66,1.83-5.5,5.5-5.5h5.63c3.67,0,5.5,1.83,5.5,5.5v55.76c0,3.66-1.83,5.5-5.5,5.5h-5.1c-3.58,0-5.37-1.83-5.37-5.5v-3.93l.26-3.01h-.26c-1.75,3.75-4.71,7.03-8.9,9.82s-8.95,4.19-14.27,4.19c-15.45-.01-23.18-8.47-23.18-25.4Z"/></g><g id="Layer_5"><path class="cls-2" d="M278.53,184.28c1.39-3.06,3.71-4.06,6.94-3.01,4.45,1.66,8.94,2.49,13.48,2.49,5.58,0,10.12-1.31,13.61-3.93s5.24-6.72,5.24-12.3v-4.97l.26-3.4h-.26c-3.84,6.63-9.95,9.95-18.32,9.95-9.42,0-16.82-3.23-22.19-9.69s-8.05-14.53-8.05-24.21,2.62-17.52,7.85-23.76c5.24-6.24,12.65-9.36,22.25-9.36,2.88,0,5.54,.35,7.98,1.05,2.44,.7,4.36,1.55,5.76,2.55,1.39,1,2.57,2.01,3.53,3.01s1.61,1.85,1.96,2.55l.52,1.05h.26c-.09-.44-.13-1-.13-1.7v-2.49c0-1.31,.46-2.38,1.37-3.21,.92-.83,2.25-1.24,3.99-1.24h4.45c3.58,0,5.37,1.83,5.37,5.5v57.2c0,10.56-3.43,18.46-10.27,23.69-6.85,5.24-14.94,7.85-24.28,7.85-7.51,0-14.01-1.18-19.5-3.53-3.32-1.4-4.28-3.75-2.88-7.07l1.06-3.02Zm24.21-29.18c4.45,0,8.14-1.53,11.06-4.58,2.92-3.05,4.39-8.03,4.39-14.92,0-12.91-5.41-19.37-16.23-19.37-5.06,0-8.99,1.66-11.78,4.97-2.79,3.32-4.19,7.77-4.19,13.35,0,6.2,1.48,11.17,4.45,14.92s7.07,5.63,12.3,5.63Z"/></g><g id="Layer_7"><path class="cls-2" d="M426.04,164.91v-55.76c0-3.66,1.79-5.5,5.37-5.5h5.1c3.58,0,5.37,1.83,5.37,5.5v4.06l-.26,3.01h.26c1.83-3.75,4.73-7.05,8.7-9.88,3.97-2.83,8.35-4.25,13.15-4.25,10.21,0,16.71,4.58,19.5,13.74h.26c1.92-3.75,4.95-6.98,9.1-9.69,4.14-2.7,8.7-4.06,13.68-4.06,14.57,0,21.86,8.46,21.86,25.39v37.43c0,3.66-1.83,5.5-5.5,5.5h-5.63c-3.67,0-5.5-1.83-5.5-5.5v-34.29c0-4.36-.63-7.68-1.9-9.95s-3.69-3.4-7.26-3.4c-5.32,0-9.49,2.29-12.5,6.87s-4.52,10.01-4.52,16.3v24.48c0,3.66-1.79,5.5-5.37,5.5h-5.76c-3.67,0-5.5-1.83-5.5-5.5v-34.29c0-4.27-.59-7.57-1.77-9.88s-3.56-3.47-7.13-3.47c-5.5,0-9.75,2.31-12.76,6.94-3.01,4.63-4.52,10.04-4.52,16.23v24.48c0,3.66-1.79,5.5-5.37,5.5h-5.76c-3.55-.01-5.34-1.84-5.34-5.51Z"/></g><g id="Layer_4"><path class="cls-2" d="M79.45,146.59v-37.43c0-3.66,1.83-5.5,5.5-5.5h5.63c3.66,0,5.5,1.83,5.5,5.5v34.03c0,4.45,.76,7.83,2.29,10.14s4.21,3.47,8.05,3.47c5.76,0,10.32-2.18,13.68-6.54s5.04-9.69,5.04-15.97v-25.13c0-3.66,1.83-5.5,5.5-5.5h5.63c3.67,0,5.5,1.83,5.5,5.5v55.76c0,3.66-1.83,5.5-5.5,5.5h-5.1c-3.58,0-5.37-1.83-5.37-5.5v-3.93l.26-3.01h-.26c-1.75,3.75-4.71,7.03-8.9,9.82s-8.95,4.19-14.27,4.19c-15.46-.01-23.18-8.47-23.18-25.4Z"/></g><g id="Layer_3"><path class="cls-2" d="M9.29,184.28c1.39-3.06,3.71-4.06,6.94-3.01,4.45,1.66,8.94,2.49,13.48,2.49,5.58,0,10.12-1.31,13.61-3.93s5.24-6.72,5.24-12.3v-4.97l.26-3.4h-.26c-3.84,6.63-9.95,9.95-18.32,9.95-9.42,0-16.82-3.23-22.19-9.69-5.37-6.46-8.05-14.53-8.05-24.22s2.62-17.52,7.85-23.76c5.24-6.24,12.65-9.36,22.25-9.36,2.88,0,5.54,.35,7.98,1.05,2.44,.7,4.36,1.55,5.76,2.55,1.39,1,2.57,2.01,3.53,3.01s1.61,1.85,1.96,2.55l.52,1.05h.26c-.09-.44-.13-1-.13-1.7v-2.49c0-1.31,.46-2.38,1.37-3.21,.92-.83,2.25-1.24,3.99-1.24h4.45c3.58,0,5.37,1.83,5.37,5.5v57.2c0,10.56-3.43,18.46-10.27,23.69-6.85,5.24-14.94,7.85-24.28,7.85-7.51,0-14.01-1.18-19.5-3.53-3.32-1.4-4.28-3.75-2.88-7.07l1.06-3.01Zm24.22-29.18c4.45,0,8.14-1.53,11.06-4.58,2.92-3.05,4.39-8.03,4.39-14.92,0-12.91-5.41-19.37-16.23-19.37-5.06,0-8.99,1.66-11.78,4.97-2.79,3.32-4.19,7.77-4.19,13.35,0,6.2,1.48,11.17,4.45,14.92,2.96,3.75,7.06,5.63,12.3,5.63Z"/></g></svg>