<?xml version="1.0" encoding="UTF-8"?><svg id="Layer_1" xmlns="http://www.w3.org/2000/svg" xmlns:xlink="http://www.w3.org/1999/xlink" viewBox="0 0 295.87 403.69"><defs><style>.cls-1{stroke:#010101;stroke-linecap:round;stroke-linejoin:round;}.cls-1,.cls-2{fill:none;}.cls-1,.cls-3{stroke-width:.11px;}.cls-4{fill:url(#linear-gradient);}.cls-5{fill:#f9aa85;}.cls-6{fill:#010101;}.cls-7,.cls-3{fill:#ee3e95;}.cls-8{fill:#ee264b;}.cls-9{fill:#ec9f79;}.cls-10{fill:#fff;}.cls-11{fill:#ffcb05;}.cls-12{fill:#e6ddee;}.cls-13{fill:#fed402;}.cls-14{fill:#66c3a0;}.cls-15{fill:#aea7bf;}.cls-16{fill:#1d102c;}.cls-17{fill:#a4519f;}.cls-18{fill:#481e54;}.cls-2{stroke:#bcbec0;stroke-width:.26px;}.cls-2,.cls-3{stroke-miterlimit:10;}.cls-19{fill:url(#linear-gradient-8);}.cls-20{fill:url(#linear-gradient-9);}.cls-21{fill:url(#linear-gradient-3);}.cls-22{fill:url(#linear-gradient-4);}.cls-23{fill:url(#linear-gradient-2);}.cls-24{fill:url(#linear-gradient-6);}.cls-25{fill:url(#linear-gradient-7);}.cls-26{fill:url(#linear-gradient-5);}.cls-27{fill:url(#linear-gradient-14);}.cls-28{fill:url(#linear-gradient-18);}.cls-29{fill:url(#linear-gradient-22);}.cls-30{fill:url(#linear-gradient-20);}.cls-31{fill:url(#linear-gradient-21);}.cls-32{fill:url(#linear-gradient-23);}.cls-33{fill:url(#linear-gradient-15);}.cls-34{fill:url(#linear-gradient-19);}.cls-35{fill:url(#linear-gradient-16);}.cls-36{fill:url(#linear-gradient-17);}.cls-37{fill:url(#linear-gradient-13);}.cls-38{fill:url(#linear-gradient-12);}.cls-39{fill:url(#linear-gradient-10);}.cls-40{fill:url(#linear-gradient-11);}.cls-3{stroke:#fff;}</style><linearGradient id="linear-gradient" x1="295.87" y1="201.98" x2="0" y2="201.98" gradientTransform="translate(0 403.83) scale(1 -1)" gradientUnits="userSpaceOnUse"><stop offset="0" stop-color="#003246"/><stop offset="1" stop-color="#09202a"/></linearGradient><linearGradient id="linear-gradient-2" x1="52.3" y1="197.5" x2="212.97" y2="240.56" gradientTransform="translate(0 2)" gradientUnits="userSpaceOnUse"><stop offset=".13" stop-color="#004059"/><stop offset="1" stop-color="#09202a"/></linearGradient><linearGradient id="linear-gradient-3" x1="93.57" y1="174.57" x2="139.94" y2="174.57" gradientTransform="translate(0 2)" gradientUnits="userSpaceOnUse"><stop offset="0" stop-color="#46b978"/><stop offset="1" stop-color="#4bc1e0"/></linearGradient><linearGradient id="linear-gradient-4" x1="109.49" y1="173.33" x2="121.18" y2="173.33" gradientTransform="translate(0 2)" gradientUnits="userSpaceOnUse"><stop offset="0" stop-color="#0d212a"/><stop offset="1" stop-color="#003848"/></linearGradient><linearGradient id="linear-gradient-5" x1="72.68" y1="202.73" x2="119.05" y2="202.73" gradientTransform="translate(0 2)" gradientUnits="userSpaceOnUse"><stop offset="0" stop-color="#0172ac"/><stop offset="1" stop-color="#61a1cc"/></linearGradient><linearGradient id="linear-gradient-6" x1="88.92" y1="201.81" x2="98.16" y2="201.81" xlink:href="#linear-gradient-4"/><linearGradient id="linear-gradient-7" x1="96.58" y1="201" x2="103.6" y2="201" xlink:href="#linear-gradient-4"/><linearGradient id="linear-gradient-8" x1="170.09" y1="187.86" x2="196.08" y2="187.86" xlink:href="#linear-gradient-3"/><linearGradient id="linear-gradient-9" x1="193.49" y1="234.47" x2="198.53" y2="234.47" xlink:href="#linear-gradient-4"/><linearGradient id="linear-gradient-10" x1="165.17" y1="226.59" x2="174.15" y2="226.59" xlink:href="#linear-gradient-4"/><linearGradient id="linear-gradient-11" x1="100.28" y1="203.54" x2="146.65" y2="203.54" xlink:href="#linear-gradient-3"/><linearGradient id="linear-gradient-12" x1="116.44" y1="202.45" x2="126.44" y2="202.45" xlink:href="#linear-gradient-4"/><linearGradient id="linear-gradient-13" x1="145.28" y1="256.84" x2="191.65" y2="256.84" gradientTransform="translate(0 2)" gradientUnits="userSpaceOnUse"><stop offset="0" stop-color="#e94b57"/><stop offset="1" stop-color="#ec764d"/></linearGradient><linearGradient id="linear-gradient-14" x1="129.27" y1="220.97" x2="150.59" y2="220.97" xlink:href="#linear-gradient-4"/><linearGradient id="linear-gradient-15" x1="134.8" y1="232.94" x2="158.06" y2="232.94" xlink:href="#linear-gradient-13"/><linearGradient id="linear-gradient-16" x1="133.54" y1="234.68" x2="139.13" y2="234.68" xlink:href="#linear-gradient-13"/><linearGradient id="linear-gradient-17" x1="137.19" y1="213.74" x2="150.55" y2="213.74" xlink:href="#linear-gradient-4"/><linearGradient id="linear-gradient-18" x1="83.44" y1="258.23" x2="114.58" y2="258.23" xlink:href="#linear-gradient-3"/><linearGradient id="linear-gradient-19" x1="85.11" y1="253.39" x2="103.52" y2="253.39" xlink:href="#linear-gradient-4"/><linearGradient id="linear-gradient-20" x1="90.37" y1="253.43" x2="103.52" y2="253.43" xlink:href="#linear-gradient-13"/><linearGradient id="linear-gradient-21" x1="95.99" y1="262.23" x2="99.08" y2="262.23" xlink:href="#linear-gradient-13"/><linearGradient id="linear-gradient-22" x1="83.94" y1="226.41" x2="90.85" y2="226.41" xlink:href="#linear-gradient-13"/><linearGradient id="linear-gradient-23" x1="150.52" y1="172.5" x2="159.69" y2="172.5" gradientTransform="translate(0 2)" gradientUnits="userSpaceOnUse"><stop offset="0" stop-color="#f3a71d"/><stop offset="1" stop-color="#fed925"/></linearGradient></defs><rect class="cls-4" width="295.87" height="403.69"/><g><path class="cls-23" d="M131.47,143.86c27.29-5.97,59.59,2.69,79.74,26.54,25.17,29.83,24.81,75.64,0,106.31-22.74,28.03-60.9,37.3-93.04,26.54-2.8-.93-42.34-14.84-53.07-53.07-12.55-44.22,20.26-96.3,66.38-106.31h0Z"/><path class="cls-2" d="M143.35,247.7c32.91,0,59.59-12.61,59.59-28.16s-26.68-28.16-59.59-28.16-59.59,12.61-59.59,28.16,26.68,28.16,59.59,28.16h0Z"/><path class="cls-21" d="M138.52,170.09l-43.52,25.16c-.46,.25-1.02,.1-1.27-.35-.1-.15-.15-.31-.15-.46v-8.89c0-1.07,.56-2.03,1.48-2.54l43.52-25.11c.46-.25,1.02-.1,1.27,.35,.1,.15,.1,.31,.1,.46v8.85c.05,1.07-.51,2.03-1.42,2.54h0Z"/><path class="cls-10" d="M106.94,185.7l-9.3,5.34c-.66,.41-1.22,.15-1.22-.51v-4.17c.1-.76,.51-1.48,1.22-1.88l9.3-5.34c.66-.41,1.22-.15,1.22,.51v4.17c-.1,.76-.56,1.48-1.22,1.88Z"/><path class="cls-22" d="M120.52,173.19l-10.37,5.95c-.35,.2-.66,.1-.66-.31v-.31c.05-.46,.31-.86,.66-1.07l10.37-5.95c.36-.2,.66-.1,.66,.31v.31c0,.41-.25,.81-.66,1.07Z"/><path class="cls-10" d="M135.32,167.35l-25.27,14.53c-.31,.15-.56,.05-.56-.25,.05-.35,.25-.71,.56-.86l25.27-14.59c.31-.15,.56-.05,.56,.25-.05,.35-.25,.71-.56,.92Z"/><path class="cls-10" d="M126.47,174.11l-16.48,9.5c-.31,.15-.51,.05-.51-.2,.05-.35,.2-.66,.51-.81l16.48-9.56c.31-.15,.51-.05,.51,.2,0,.36-.2,.66-.51,.86h0Z"/><path class="cls-26" d="M117.57,198.3l-43.52,25.11c-.46,.25-1.02,.1-1.27-.35-.1-.15-.1-.31-.1-.46v-8.89c0-1.07,.56-2.03,1.48-2.54l43.52-25.11c.46-.25,1.02-.1,1.27,.35,.1,.15,.1,.31,.1,.46v8.89c0,1.02-.56,1.98-1.48,2.54h0Z"/><path class="cls-10" d="M86.3,213.55l-9.3,5.39c-.66,.35-1.22,.15-1.22-.51v-4.22c.1-.76,.51-1.48,1.22-1.88l9.3-5.39c.66-.41,1.22-.15,1.22,.51v4.17c-.1,.81-.56,1.52-1.22,1.93Z"/><path class="cls-24" d="M97.33,202.47l-7.57,4.37c-.46,.25-.81,.1-.81-.36,.05-.56,.36-1.02,.81-1.32l7.57-4.37c.46-.25,.81-.1,.81,.35-.05,.56-.35,1.07-.81,1.32h0Z"/><path class="cls-10" d="M95.3,206.33l-5.9,3.41c-.31,.15-.56,.05-.56-.25,.05-.36,.25-.71,.56-.86l5.9-3.41c.31-.15,.56-.05,.56,.25-.05,.35-.25,.66-.56,.86Z"/><path class="cls-25" d="M103.03,201.86l-5.9,3.41c-.31,.15-.56,.05-.56-.25,.05-.36,.25-.71,.56-.86l5.9-3.41c.31-.15,.56-.05,.56,.25-.05,.36-.25,.66-.56,.86Z"/><path class="cls-10" d="M105.82,201.96l-16.48,9.5c-.31,.15-.51,.05-.51-.2,.05-.35,.2-.66,.51-.81l16.48-9.5c.31-.15,.51-.05,.51,.2-.05,.31-.2,.61-.51,.81Z"/><path class="cls-10" d="M113.35,197.59l-5.34,3.1c-.31,.15-.51,.05-.51-.2,.05-.35,.2-.66,.51-.81l5.34-3.1c.31-.15,.51-.05,.51,.2-.05,.36-.2,.66-.51,.81h0Z"/><path class="cls-19" d="M193.99,211.77l-21.81-12.6c-1.22-.81-1.98-2.13-2.09-3.61v-26.43c0-1.32,.97-1.83,2.09-1.17l21.81,12.6c1.22,.81,2.03,2.13,2.09,3.61v26.43c.05,1.27-.92,1.83-2.09,1.17h0Z"/><path class="cls-17" d="M199.23,197.18v-7.32l-22.07-12.76v7.32c.05,1.02,.61,1.93,1.48,2.49l19.17,11.08c.81,.46,1.42,.1,1.42-.81Z"/><path class="cls-17" d="M177.16,170.09v7.32l22.12,12.76v-7.32c-.05-1.02-.61-1.93-1.42-2.49l-19.22-11.08c-.81-.46-1.48-.1-1.48,.81h0Z"/><path class="cls-11" d="M181.28,196.98l-7.93-4.58c-.51-.35-.86-.92-.92-1.52,0-.56,.41-.81,.92-.51l7.93,4.58c.51,.35,.86,.92,.92,1.52,0,.56-.41,.76-.92,.51h0Z"/><path class="cls-10" d="M191.09,205.16l-18.05-10.42c-.36-.2-.56-.61-.61-1.02,0-.35,.25-.51,.61-.35l18.05,10.42c.35,.2,.56,.61,.61,1.02,0,.35-.25,.56-.61,.35Z"/><path class="cls-10" d="M186.97,204.85l-13.93-8.03c-.36-.2-.56-.61-.56-1.02v-.05c0-.36,.25-.51,.56-.36l13.93,8.03c.35,.2,.56,.61,.56,1.02v.1c0,.35-.25,.51-.56,.31h0Z"/><path class="cls-15" d="M182.8,231.74h10.68v16.32h-10.68c-.71,0-1.27-.56-1.27-1.27v-13.77c0-.71,.56-1.27,1.27-1.27Z"/><path class="cls-12" d="M182.8,231.34h10.68v16.32h-10.68c-.71,0-1.27-.56-1.27-1.27v-13.82c0-.66,.61-1.22,1.27-1.22h0Z"/><path class="cls-15" d="M193.74,248.06l4.73-6.96c.31-.46,.46-.97,.46-1.52v-13.77c0-.51-1.02-.76-1.32-.36l-4.12,22.21v.41h.25Z"/><path class="cls-20" d="M193.48,247.65l4.58-6.56c.31-.46,.46-.97,.46-1.52v-13.77c0-.31-.25-.56-.56-.51-.15,0-.31,.1-.41,.2l-4.07,5.85v16.32h0Z"/><path class="cls-17" d="M193.99,231.9v13.82l4.02-5.74v-13.82l-4.02,5.74Z"/><path class="cls-15" d="M186.47,232.76h4.98c.41,0,.71,.31,.71,.71v11.84c0,.41-.31,.71-.71,.71h-4.98c-.41,0-.71-.31-.71-.71v-11.84c0-.41,.31-.71,.71-.71h0Z"/><path class="cls-15" d="M183.01,237.54h1.42c.1,0,.2,.1,.2,.2v3.41c0,.1-.1,.2-.2,.2h-1.42c-.1,0-.2-.1-.2-.2v-3.41c0-.15,.05-.2,.2-.2Z"/><path class="cls-15" d="M174.11,227.83l-2.75-1.58c-.25-.1-.51-.1-.76,0l-6,3.46h-.2v.25c0,.1,.05,.15,.15,.2l2.85,1.63c.25,.1,.51,.1,.76,0l6.05-3.51c.1-.05,.15-.1,.15-.2v-.31l-.25,.05h0Z"/><path class="cls-12" d="M167.4,231.54l-2.85-1.62c-.1-.05-.2-.15-.15-.31,0-.05,.1-.15,.15-.15l6.05-3.51c.25-.1,.51-.1,.76,0l2.85,1.62c.1,.05,.2,.15,.15,.31,0,.05-.1,.15-.15,.15l-6.05,3.51c-.25,.1-.51,.1-.76,0h0Z"/><path class="cls-18" d="M174.16,228.23l-5.39,3.1v-.15l2.08-1.83,3.3-1.27v.15h0Z"/><path class="cls-16" d="M166.53,230.67l-.51-.31c-.1-.05-.1-.15,0-.2s.25-.05,.35,0l.51,.31c.1,.05,.1,.15,0,.2-.1,.05-.25,.05-.36,0h0Z"/><path class="cls-39" d="M170.55,226l-5.39,3.1,3.61,2.08,5.39-3.1-3.61-2.08Z"/><path class="cls-17" d="M170.55,226l-5.39,3.1,9-1.02-3.61-2.08Z"/><path class="cls-40" d="M145.18,199.11l-43.52,25.11c-.46,.25-1.02,.1-1.27-.35-.1-.15-.1-.31-.1-.46v-8.89c0-1.07,.56-2.03,1.48-2.54l43.52-25.11c.46-.25,1.02-.1,1.27,.35,.1,.15,.1,.31,.1,.46v8.85c0,1.12-.56,2.08-1.48,2.59h0Z"/><path class="cls-10" d="M113.91,214.36l-9.3,5.39c-.66,.41-1.22,.15-1.22-.51v-4.17c.1-.76,.51-1.48,1.22-1.88l9.3-5.39c.66-.41,1.22-.15,1.22,.51v4.17c-.1,.76-.56,1.48-1.22,1.88h0Z"/><path class="cls-38" d="M125.6,202.92l-8.34,4.78c-.46,.25-.81,.1-.81-.36,.05-.56,.35-1.02,.81-1.32l8.34-4.83c.46-.25,.81-.1,.81,.35-.05,.61-.36,1.07-.81,1.37h0Z"/><path class="cls-10" d="M130.74,202.62l-13.73,7.93c-.31,.15-.56,.05-.56-.25,.05-.35,.25-.71,.56-.86l13.73-7.93c.31-.15,.56-.05,.56,.25-.05,.36-.25,.71-.56,.86Z"/><path class="cls-10" d="M133.43,202.77l-16.48,9.5c-.31,.15-.51,.05-.51-.2,.05-.35,.2-.66,.51-.81l16.48-9.5c.31-.15,.51-.05,.51,.2-.05,.35-.25,.66-.51,.81Z"/><path class="cls-8" d="M175.08,275.56s6.51-3.25,7.78-9.35c.56-2.85,7.17-7.37,8.8-9.96l-12.1,2.49-8.95,7.83,4.47,9Z"/><path class="cls-5" d="M197.7,273.67c-1.27-.05-3.92-.92-5.69-1.52-1.07-.35-1.93-1.12-2.44-2.13-2.03-4.02-7.57-12.3-10.17-16.21-6.1-7.88-21.36-11.49-21.36-11.49-.71-.15-5.44-1.32-8.24-.61,0,5.13,9.2,9.2,15.15,10.88,5.95,1.68,12.51,5.59,12.51,5.59,.51,2.59,3.3,8.79,5.09,9.86,1.78,1.07,5.29,4.78,5.29,4.78,.71,.66,.76,1.98,1.22,2.44,.46,.46,1.78-.05,2.09-.25,.56,0,1.17,.05,1.73,.1,.41,.05,1.68,1.02,2.29,1.12,.76,.05,1.52-.05,2.29-.35,.61-.25,2.29-2.08,.25-2.19h0Z"/><path class="cls-9" d="M185.9,263.81l-5.09-3.05c-.61,.71-1.12,1.48-1.63,2.29,.56,1.17,1.17,2.34,1.88,3.41,2.09,0,4.17-.1,6.26-.35-.46-.71-.92-1.48-1.42-2.29h0Z"/><path class="cls-5" d="M148.89,247.04c-.1,1.17-.15,2.34-.76,3.41s-2.24,5.13,2.24,7.68c4.47,2.54,10.17,2.85,13.07,2.95,2.8,.1,6.36,.61,7.78,.71,1.98,.2,3.92,.66,5.75,1.37,4.47,1.73,9.25,2.64,14.08,2.75,1.73,.15,3.46,.51,5.13,1.07,.15,.51,.71,1.17,2.13,1.12,2.29,.25,1.93,1.07,4.32,1.22,2.54,.2,4.47,.15,5.39-2.44,.56-1.52-7.37-1.32-8.19-1.62-2.59-1.07-17.59-5.79-22.88-7.27-.76-.51-1.48-.25-2.59-1.12-3.3-2.54-14.95-8.18-24-11.79-1.68,.76-1.42,1.42-1.48,1.98h0Z"/><path class="cls-37" d="M148.89,247.04s-3.51,3.15-3.61,7.68c-.15,5.95,8.64,10.32,14.54,12.66s12.15,4.37,15.25,8.13c0-4.17,3-6.46,5.64-7.68s2.44-5.69,3.92-7.16c1.68-1.68,6-3.76,7.02-4.42-15.05-3.66-15.25-11.69-33.61-13.93-8.34-.97-8.44,2.95-9.15,4.73h0Z"/><path class="cls-27" d="M142.89,209.63s-6,1.12-9.66,10.83c-1.68,4.42-.61,8.13-1.78,10.01-1.17,1.88-3.1,2.9-1.68,4.58s7.27,1.52,10.27,.41c3-1.12,7.27-2.75,6.66-5.85s3.1-2.95,3.86-5.89c.25-1.07-1.48-7.68-3.36-8.95s-4.32-5.13-4.32-5.13Z"/><path class="cls-5" d="M149.25,223s.76-2.75,3.41-1.83c2.65,.92,.92,7.37,.86,13.57-.05,6.2-2.49,6.05-2.49,6.05l-2.44-14.38,.66-3.41h0Z"/><path class="cls-8" d="M151.33,225.85l-2.09,4.58,.1,.46,4.37,.2c.2-2.44,.46-4.73,.46-6.51-.41,.92-2.85,1.27-2.85,1.27h0Z"/><path class="cls-33" d="M134.91,233.77s-.81-2.9,2.09-3.96c2.9-1.07,10.37-4.37,12.25-6.86,.05,.76,.35,1.48,.81,2.08,.25,.31,1.02,.41,1.32,.76,.92,1.02,2.03,1.78,3.3,2.34,2.34,.97,1.93,4.32,.61,5.79,1.68,1.88,2.85,7.27,2.8,8.33-1.17,1.83-5.95,4.42-9.15,4.68-.51-2.34-5.75-6.66-7.47-8.08-1.17-.81-3.2-2.59-6.56-5.08h0Z"/><path class="cls-8" d="M135.98,232.15c-1.32,1.27-1.07,1.63-1.07,1.63,3.36,2.49,5.09,4.42,6.2,5.34,1.73,1.42,7.32,5.59,7.78,7.93-.2-3.61-11.04-13.06-12.91-14.89h0Z"/><path class="cls-5" d="M136.13,230.27c-4.07,1.27-1.58,18.4-2.8,19.62-1.22,1.22-5.85,7.16-5.85,7.16-3.05-.51-4.88,.31-6.15,1.12s2.13,.81,2.13,.81h5.19c.56,0,1.12-.25,1.52-.66,1.63-1.68,5.9-6.1,6.66-7.22,.92-1.42,1.63-10.72,1.63-15.86s-2.34-4.98-2.34-4.98h0Z"/><path class="cls-5" d="M148.64,230.63c2.59-2.44,2.19-3.56,2.75-4.73-.81-.86-1.52-1.83-2.13-2.85-1.88,2.49-9.36,5.79-12.25,6.86s-2.09,3.96-2.09,3.96c0,0,9.56,.61,13.73-3.25h0Z"/><path class="cls-35" d="M139.13,233.73c-1.63,.15-3.3,.05-4.88-.25v-.05l-.05,.05c-.41,2.03-.61,4.06-.61,6.1,0,0,3.3-.46,4.88,.36,.15-2.13,.51-3.2,.66-4.68v-1.52h0Z"/><path class="cls-5" d="M149.04,226.96l-1.27-.51s-.86-1.12-1.58-4.02-3.56-.41-3.56-.41c0,0,.2,1.42-.71,5.54s4.98,1.52,4.98,1.52l2.13-2.13h0Z"/><path class="cls-9" d="M142.99,221.78c.81-.56,2.69-1.68,3.2,.56,.25,1.17,.61,2.29,1.07,3.35-2.69-.2-3.86-2.75-4.27-3.91h0Z"/><path class="cls-5" d="M147.01,223.31c1.17,.1,2.24-.56,2.69-1.62,.25-.61,.35-1.27,.35-1.93,.05-3.25-.66-5.95-2.44-7.27s-3.41-1.62-4.27-1.17c-.86,.46-5.54,1.52-5.64,3.15-.1,1.63,3.2,6.3,4.88,7.62,1.22,.86,3.25,1.12,4.42,1.22h0Z"/><path class="cls-36" d="M149.04,211.21c.71,.56,1.22,1.37,1.48,2.29,.25,1.17-.15,2.34-3.1,3.61-3.92,1.68-3.86,2.85-3.76,3.76l-1.68-2.49,.71,3.71s-3.61-1.02-4.22-2.44c-.61-1.42-1.68-3.61-1.07-5.49,.61-1.88,3.97-4.27,6.3-4.68,1.68-.41,3.92,.61,5.34,1.73h0Z"/><path class="cls-5" d="M142.43,219.44c.56,.61,.71,1.37,.36,1.73-.36,.35-1.17,.15-1.73-.46s-.71-1.42-.31-1.78c.41-.36,1.07-.1,1.68,.51h0Z"/><path class="cls-28" d="M111.77,281.86l-26.34-14.89c-1.27-.71-2.34-2.39-2.34-3.66l.05-23.74c0-1.27,1.07-1.73,2.34-.97l26.34,14.94c1.27,.71,2.34,2.39,2.34,3.66l-.05,23.74c0,1.22-1.07,1.68-2.34,.92h0Z"/><path class="cls-34" d="M101.6,269.3l-15.36-8.69c-.81-.46-1.48-2.39-1.48-3.2v-15.25c0-.81,.66-1.07,1.48-.61l15.36,8.74c.81,.51,1.37,1.32,1.48,2.29v15.81c0,.76-.66,1.37-1.48,.92Z"/><path class="cls-11" d="M90.15,253.29c1.49-.49,1.98-3.09,1.09-5.81-.89-2.72-2.83-4.53-4.32-4.04s-1.98,3.09-1.09,5.81c.89,2.72,2.83,4.53,4.33,4.04h0Z"/><path class="cls-13" d="M103.08,268.39v-7.93l-9.66-5.49v9.71l8.44,4.78c.71,.41,1.22-.1,1.22-1.07h0Z"/><path class="cls-11" d="M110.66,265.14l-4.98-2.85c-.31-.15-.46-.46-.51-.81v-.25c0-.31,.25-.35,.51-.2l4.98,2.85c.31,.15,.46,.46,.51,.81v.25c0,.25-.2,.35-.51,.2h0Z"/><path class="cls-10" d="M110.81,271.89l-6.36-3.61c-.31-.15-.46-.46-.51-.76v-.2c0-.25,.2-.35,.51-.2l6.36,3.61c.31,.15,.46,.46,.51,.76v.2c0,.31-.25,.41-.51,.2Z"/><path class="cls-10" d="M110.81,269.91l-6.36-3.61c-.31-.15-.46-.46-.51-.76v-.2c0-.25,.2-.36,.51-.2l6.36,3.61c.31,.15,.46,.46,.51,.76v.2c0,.25-.25,.36-.51,.2h0Z"/><path class="cls-10" d="M110.81,267.93l-6.36-3.61c-.31-.15-.46-.46-.51-.76v-.2c0-.25,.2-.35,.51-.2l6.36,3.61c.31,.15,.46,.46,.51,.76v.2c0,.25-.25,.35-.51,.2h0Z"/><path class="cls-30" d="M90.01,253.29l2.95,1.78,10.17,5.75v-5.03l-10.12-5.75-3,3.25h0Z"/><path class="cls-31" d="M98.55,262.49l-2.85-1.63c-.05-.05-.1,0-.1,.1v4.93l3.1,1.73v-4.93c0-.05-.05-.15-.15-.2h0Z"/><path class="cls-14" d="M87.88,259.04c0-.92-.46-1.73-1.12-2.34-.1-.51-.41-.97-.86-1.27-.25-.15-.56-.1-.76,.1,0,.05-.05,.05-.05,.1-.05-.05-.1-.1-.15-.1-.05-.05-.1-.05-.15-.05v2.49c0,.97,.41,1.88,1.22,2.49l2.24,1.27c.15-.25,.25-.61,.25-.92-.05-.66-.25-1.27-.61-1.78h0Z"/><path class="cls-14" d="M90.37,261.88c0-.46-.25-.92-.61-1.22-.05-.25-.2-.51-.46-.66-.15-.1-.31-.05-.41,.05,0,0,0,.05-.05,.05l-.1-.05c-.31-.15-.51,.05-.51,.46,0,.15,0,.25,.05,.41-.15,0-.25,.2-.25,.51v.25l2.49,1.42c0-.1,.05-.15,.05-.25,.05-.35-.05-.66-.2-.97h0Z"/><path class="cls-11" d="M101.3,272.2l-15.96-9.05c-.36-.2-.56-.56-.61-.97v-.25c0-.31,.25-.46,.61-.25l15.96,9.05c.35,.2,.56,.56,.61,.97v.25c0,.35-.25,.46-.61,.25Z"/><path class="cls-11" d="M96.87,271.49l-11.7-6.66c-.25-.15-.41-.35-.41-.66v-.15c0-.2,.2-.31,.41-.15l11.7,6.66c.25,.15,.41,.35,.41,.66v.2c0,.15-.2,.25-.41,.1h0Z"/><path class="cls-11" d="M210.97,202.06c2.54,1.48,4.58,4.98,4.58,7.93s-2.09,4.06-4.58,2.64c-2.49-1.42-4.58-4.98-4.58-7.93s2.03-4.12,4.58-2.64Z"/><path class="cls-10" d="M213.4,211.33c.24-.15-.79-2.19-2.3-4.56-1.51-2.37-2.92-4.17-3.16-4.02-.24,.15,.79,2.19,2.3,4.56,1.51,2.37,2.92,4.17,3.16,4.02h0Z"/><path class="cls-10" d="M212.91,205.62l-3.25-.25-1.68,2.34,.25,.51,4.93-2.13-.25-.46h0Z"/><path class="cls-10" d="M213.97,210.04l-1.52-.2-.76,1.12,.31,.51,2.29-1.02-.31-.41h0Z"/><path class="cls-11" d="M87.42,223.1c2.54,1.48,4.58,5.03,4.58,7.93s-2.09,4.06-4.58,2.59c-2.49-1.48-4.58-4.98-4.58-7.93s2.03-4.02,4.58-2.59Z"/><path class="cls-29" d="M83.96,225.8c.05-1.02,.92-1.37,1.98-.81,.61,.31,1.07,.76,1.48,1.32,.51-.1,1.07,.05,1.48,.35,1.07,.71,1.78,1.83,1.98,3.1,0,.25,0,.46-.1,.71-.1,.31-.41,.56-.71,.61-.61,.1-2.29,.46-2.54,1.02h-.05c-.05,0-.05-.05-.1-.05l-.05-.05c-.25-.86-1.93-3.1-2.54-3.96-.31-.41-.56-.92-.71-1.42-.1-.31-.15-.56-.1-.81h0Z"/><path class="cls-32" d="M155.09,169.23c-2.54,1.48-4.58,4.98-4.58,7.93s2.09,4.06,4.63,2.64,4.58-4.98,4.58-7.93-2.09-4.12-4.63-2.64Z"/><path class="cls-10" d="M155.55,171.52c-1.73,1.02-3.2,2.79-3.2,3.96-.05,.51,.35,.97,.86,.97h.1l-.56,1.68s.02,.03,.05,0l1.93-1.98c.25-.1,.56-.25,.81-.41,1.78-1.02,3.2-2.79,3.2-3.96s-1.48-1.27-3.2-.25h0Zm-1.88,3.71c-.31,.15-.56,.05-.56-.25,.05-.36,.25-.66,.56-.86,.31-.15,.56-.05,.56,.25-.05,.35-.25,.66-.56,.86Zm1.83-1.07c-.31,.15-.56,.05-.56-.25,.05-.36,.25-.66,.56-.86,.31-.15,.56-.05,.56,.25-.05,.36-.25,.66-.56,.86Zm1.83-1.02c-.31,.15-.56,.05-.56-.25,.05-.36,.25-.66,.56-.86,.31-.15,.56-.05,.56,.25-.05,.31-.25,.66-.56,.86Z"/><path class="cls-17" d="M197.5,197.23l-18.46-11.43c-.97-.71-1.58-1.78-1.63-2.95l-.2-11.74c0-1.07,.66-1.52,1.58-.97l18.46,11.43c.97,.71,1.52,1.78,1.63,2.95l.2,11.74c0,1.07-.71,1.48-1.58,.97Z"/><path class="cls-1" d="M178.94,172.07l1.42,2.69"/><path class="cls-1" d="M178.94,173.85l1.42-.86"/><path class="cls-7" d="M188.04,181.02c1.12-3.1,5.34,3.51,6.81,7.06-.97,1.22-3.15,2.9-6.66,.76-3.51-2.13-5.8-6.56-6.86-9.05,1.37-1.73,5.39-3.35,6.71,1.22Z"/><path class="cls-1" d="M192.82,187.07l-9.46-5.79"/><path class="cls-3" d="M185.7,181.22c-.97-.25-1.63,.05-1.83,.92l-.81,3.86,2.69,2.49,.81-3.86c.2-.86-.15-2.13-.86-3.41h0Z"/><path class="cls-6" d="M186.01,190.12l.41-1.88c.25-1.12-.41-2.79-1.42-3.71-1.02-.97-2.03-.86-2.29,.25l-.61,2.9,3.92,2.44h0Z"/><path class="cls-15" d="M103.69,229.1c.31,0,.56-.25,.56-.56s-.25-.56-.56-.56-.56,.25-.56,.56,.25,.56,.56,.56Z"/><path class="cls-15" d="M105.82,229.1c.31,0,.56-.25,.56-.56s-.25-.56-.56-.56-.56,.25-.56,.56,.25,.56,.56,.56Z"/><path class="cls-15" d="M108.01,229.1c.31,0,.56-.25,.56-.56s-.25-.56-.56-.56-.56,.25-.56,.56,.25,.56,.56,.56Z"/><path class="cls-15" d="M110.2,229.1c.31,0,.56-.25,.56-.56s-.25-.56-.56-.56-.56,.25-.56,.56,.25,.56,.56,.56Z"/><path class="cls-15" d="M112.33,229.1c.31,0,.56-.25,.56-.56s-.25-.56-.56-.56-.56,.25-.56,.56,.25,.56,.56,.56Z"/><path class="cls-15" d="M114.52,229.1c.31,0,.56-.25,.56-.56s-.25-.56-.56-.56-.56,.25-.56,.56,.25,.56,.56,.56Z"/><path class="cls-15" d="M116.71,229.1c.31,0,.56-.25,.56-.56s-.25-.56-.56-.56-.56,.25-.56,.56,.25,.56,.56,.56Z"/><path class="cls-15" d="M118.89,229.1c.31,0,.56-.25,.56-.56s-.25-.56-.56-.56-.56,.25-.56,.56,.25,.56,.56,.56Z"/><path class="cls-15" d="M121.03,229.1c.31,0,.56-.25,.56-.56s-.25-.56-.56-.56-.56,.25-.56,.56,.25,.56,.56,.56Z"/><path class="cls-15" d="M103.69,230.93c.31,0,.56-.25,.56-.56s-.25-.56-.56-.56-.56,.25-.56,.56,.25,.56,.56,.56Z"/><path class="cls-15" d="M105.82,230.93c.31,0,.56-.25,.56-.56s-.25-.56-.56-.56-.56,.25-.56,.56,.25,.56,.56,.56Z"/><path class="cls-15" d="M108.01,230.93c.31,0,.56-.25,.56-.56s-.25-.56-.56-.56-.56,.25-.56,.56,.25,.56,.56,.56Z"/><path class="cls-15" d="M110.2,230.93c.31,0,.56-.25,.56-.56s-.25-.56-.56-.56-.56,.25-.56,.56,.25,.56,.56,.56Z"/><path class="cls-15" d="M112.33,230.93c.31,0,.56-.25,.56-.56s-.25-.56-.56-.56-.56,.25-.56,.56,.25,.56,.56,.56Z"/><path class="cls-15" d="M114.52,230.93c.31,0,.56-.25,.56-.56s-.25-.56-.56-.56-.56,.25-.56,.56,.25,.56,.56,.56Z"/><path class="cls-15" d="M116.71,230.93c.31,0,.56-.25,.56-.56s-.25-.56-.56-.56-.56,.25-.56,.56,.25,.56,.56,.56Z"/><path class="cls-15" d="M118.89,230.93c.31,0,.56-.25,.56-.56s-.25-.56-.56-.56-.56,.25-.56,.56,.25,.56,.56,.56Z"/><path class="cls-15" d="M121.03,230.93c.31,0,.56-.25,.56-.56s-.25-.56-.56-.56-.56,.25-.56,.56,.25,.56,.56,.56Z"/><path class="cls-15" d="M103.69,232.76c.31,0,.56-.25,.56-.56s-.25-.56-.56-.56-.56,.25-.56,.56,.25,.56,.56,.56Z"/><path class="cls-15" d="M105.82,232.76c.31,0,.56-.25,.56-.56s-.25-.56-.56-.56-.56,.25-.56,.56,.25,.56,.56,.56Z"/><path class="cls-15" d="M108.01,232.76c.31,0,.56-.25,.56-.56s-.25-.56-.56-.56-.56,.25-.56,.56,.25,.56,.56,.56Z"/><path class="cls-15" d="M110.2,232.76c.31,0,.56-.25,.56-.56s-.25-.56-.56-.56-.56,.25-.56,.56,.25,.56,.56,.56Z"/><path class="cls-15" d="M112.33,232.76c.31,0,.56-.25,.56-.56s-.25-.56-.56-.56-.56,.25-.56,.56,.25,.56,.56,.56Z"/><path class="cls-15" d="M114.52,232.76c.31,0,.56-.25,.56-.56s-.25-.56-.56-.56-.56,.25-.56,.56,.25,.56,.56,.56Z"/><path class="cls-15" d="M116.71,232.76c.31,0,.56-.25,.56-.56s-.25-.56-.56-.56-.56,.25-.56,.56,.25,.56,.56,.56Z"/><path class="cls-15" d="M118.89,232.76c.31,0,.56-.25,.56-.56s-.25-.56-.56-.56-.56,.25-.56,.56,.25,.56,.56,.56Z"/><path class="cls-15" d="M121.03,232.76c.31,0,.56-.25,.56-.56s-.25-.56-.56-.56-.56,.25-.56,.56,.25,.56,.56,.56Z"/><path class="cls-15" d="M103.69,234.64c.31,0,.56-.25,.56-.56s-.25-.56-.56-.56-.56,.25-.56,.56,.25,.56,.56,.56Z"/><path class="cls-15" d="M105.82,234.64c.31,0,.56-.25,.56-.56s-.25-.56-.56-.56-.56,.25-.56,.56,.25,.56,.56,.56Z"/><path class="cls-15" d="M108.01,234.64c.31,0,.56-.25,.56-.56s-.25-.56-.56-.56-.56,.25-.56,.56,.25,.56,.56,.56Z"/><path class="cls-15" d="M110.2,234.64c.31,0,.56-.25,.56-.56s-.25-.56-.56-.56-.56,.25-.56,.56,.25,.56,.56,.56Z"/><path class="cls-15" d="M112.33,234.64c.31,0,.56-.25,.56-.56s-.25-.56-.56-.56-.56,.25-.56,.56,.25,.56,.56,.56Z"/><path class="cls-15" d="M114.52,234.64c.31,0,.56-.25,.56-.56s-.25-.56-.56-.56-.56,.25-.56,.56,.25,.56,.56,.56Z"/><path class="cls-15" d="M116.71,234.64c.31,0,.56-.25,.56-.56s-.25-.56-.56-.56-.56,.25-.56,.56,.25,.56,.56,.56Z"/><path class="cls-15" d="M118.89,234.64c.31,0,.56-.25,.56-.56s-.25-.56-.56-.56-.56,.25-.56,.56,.25,.56,.56,.56Z"/><path class="cls-15" d="M121.03,234.64c.31,0,.56-.25,.56-.56s-.25-.56-.56-.56-.56,.25-.56,.56,.25,.56,.56,.56Z"/><path class="cls-15" d="M157.48,208.16c.31,0,.56-.25,.56-.56s-.25-.56-.56-.56-.56,.25-.56,.56,.25,.56,.56,.56Z"/><path class="cls-15" d="M159.67,208.16c.31,0,.56-.25,.56-.56s-.25-.56-.56-.56-.56,.25-.56,.56,.25,.56,.56,.56Z"/><path class="cls-15" d="M161.86,208.16c.31,0,.56-.25,.56-.56s-.25-.56-.56-.56-.56,.25-.56,.56,.25,.56,.56,.56Z"/><path class="cls-15" d="M163.99,208.16c.31,0,.56-.25,.56-.56s-.25-.56-.56-.56-.56,.25-.56,.56,.25,.56,.56,.56Z"/><path class="cls-15" d="M166.18,208.16c.31,0,.56-.25,.56-.56s-.25-.56-.56-.56-.56,.25-.56,.56,.25,.56,.56,.56Z"/><path class="cls-15" d="M168.36,208.16c.31,0,.56-.25,.56-.56s-.25-.56-.56-.56-.56,.25-.56,.56,.25,.56,.56,.56h0Z"/><path class="cls-15" d="M170.5,208.16c.31,0,.56-.25,.56-.56s-.25-.56-.56-.56-.56,.25-.56,.56,.25,.56,.56,.56Z"/><path class="cls-15" d="M172.69,208.16c.31,0,.56-.25,.56-.56s-.25-.56-.56-.56-.56,.25-.56,.56,.25,.56,.56,.56Z"/><path class="cls-15" d="M174.87,208.16c.31,0,.56-.25,.56-.56s-.25-.56-.56-.56-.56,.25-.56,.56,.25,.56,.56,.56Z"/><path class="cls-15" d="M157.48,210.04c.31,0,.56-.25,.56-.56s-.25-.56-.56-.56-.56,.25-.56,.56,.25,.56,.56,.56Z"/><path class="cls-15" d="M159.67,210.04c.31,0,.56-.25,.56-.56s-.25-.56-.56-.56-.56,.25-.56,.56,.25,.56,.56,.56Z"/><path class="cls-15" d="M161.86,210.04c.31,0,.56-.25,.56-.56s-.25-.56-.56-.56-.56,.25-.56,.56,.25,.56,.56,.56Z"/><path class="cls-15" d="M163.99,210.04c.31,0,.56-.25,.56-.56s-.25-.56-.56-.56-.56,.25-.56,.56,.25,.56,.56,.56Z"/><path class="cls-15" d="M166.18,210.04c.31,0,.56-.25,.56-.56s-.25-.56-.56-.56-.56,.25-.56,.56,.25,.56,.56,.56Z"/><path class="cls-15" d="M168.36,210.04c.31,0,.56-.25,.56-.56s-.25-.56-.56-.56-.56,.25-.56,.56,.25,.56,.56,.56h0Z"/><path class="cls-15" d="M170.5,210.04c.31,0,.56-.25,.56-.56s-.25-.56-.56-.56-.56,.25-.56,.56,.25,.56,.56,.56Z"/><path class="cls-15" d="M172.69,210.04c.31,0,.56-.25,.56-.56s-.25-.56-.56-.56-.56,.25-.56,.56,.25,.56,.56,.56Z"/><path class="cls-15" d="M174.87,210.04c.31,0,.56-.25,.56-.56s-.25-.56-.56-.56-.56,.25-.56,.56,.25,.56,.56,.56Z"/><path class="cls-15" d="M157.48,211.87c.31,0,.56-.25,.56-.56s-.25-.56-.56-.56-.56,.25-.56,.56,.25,.56,.56,.56Z"/><path class="cls-15" d="M159.67,211.87c.31,0,.56-.25,.56-.56s-.25-.56-.56-.56-.56,.25-.56,.56,.25,.56,.56,.56Z"/><path class="cls-15" d="M161.86,211.87c.31,0,.56-.25,.56-.56s-.25-.56-.56-.56-.56,.25-.56,.56,.25,.56,.56,.56Z"/><path class="cls-15" d="M163.99,211.87c.31,0,.56-.25,.56-.56s-.25-.56-.56-.56-.56,.25-.56,.56,.25,.56,.56,.56Z"/><path class="cls-15" d="M166.18,211.87c.31,0,.56-.25,.56-.56s-.25-.56-.56-.56-.56,.25-.56,.56,.25,.56,.56,.56Z"/><path class="cls-15" d="M168.36,211.87c.31,0,.56-.25,.56-.56s-.25-.56-.56-.56-.56,.25-.56,.56,.25,.56,.56,.56h0Z"/><path class="cls-15" d="M170.5,211.87c.31,0,.56-.25,.56-.56s-.25-.56-.56-.56-.56,.25-.56,.56,.25,.56,.56,.56Z"/><path class="cls-15" d="M172.69,211.87c.31,0,.56-.25,.56-.56s-.25-.56-.56-.56-.56,.25-.56,.56,.25,.56,.56,.56Z"/><path class="cls-15" d="M174.87,211.87c.31,0,.56-.25,.56-.56s-.25-.56-.56-.56-.56,.25-.56,.56,.25,.56,.56,.56Z"/><path class="cls-15" d="M157.48,213.75c.31,0,.56-.25,.56-.56s-.25-.56-.56-.56-.56,.25-.56,.56,.25,.56,.56,.56Z"/><path class="cls-15" d="M159.67,213.75c.31,0,.56-.25,.56-.56s-.25-.56-.56-.56-.56,.25-.56,.56,.25,.56,.56,.56Z"/><path class="cls-15" d="M161.86,213.75c.31,0,.56-.25,.56-.56s-.25-.56-.56-.56-.56,.25-.56,.56,.25,.56,.56,.56Z"/><path class="cls-15" d="M163.99,213.75c.31,0,.56-.25,.56-.56s-.25-.56-.56-.56-.56,.25-.56,.56,.25,.56,.56,.56Z"/><path class="cls-15" d="M166.18,213.75c.31,0,.56-.25,.56-.56s-.25-.56-.56-.56-.56,.25-.56,.56,.25,.56,.56,.56Z"/><path class="cls-15" d="M168.36,213.75c.31,0,.56-.25,.56-.56s-.25-.56-.56-.56-.56,.25-.56,.56,.25,.56,.56,.56h0Z"/><path class="cls-15" d="M170.5,213.75c.31,0,.56-.25,.56-.56s-.25-.56-.56-.56-.56,.25-.56,.56,.25,.56,.56,.56Z"/><path class="cls-15" d="M172.69,213.75c.31,0,.56-.25,.56-.56s-.25-.56-.56-.56-.56,.25-.56,.56,.25,.56,.56,.56Z"/><path class="cls-15" d="M174.87,213.75c.31,0,.56-.25,.56-.56s-.25-.56-.56-.56-.56,.25-.56,.56,.25,.56,.56,.56Z"/></g></svg>