<?xml version="1.0" encoding="utf-8"?>
<!-- Generator: Adobe Illustrator 26.5.0, SVG Export Plug-In . SVG Version: 6.00 Build 0)  -->
<svg version="1.1" id="Layer_1" xmlns="http://www.w3.org/2000/svg" xmlns:xlink="http://www.w3.org/1999/xlink" x="0px" y="0px"
	 viewBox="0 0 1254 586" style="enable-background:new 0 0 1254 586;" xml:space="preserve">
<style type="text/css">
	.st0{fill:url(#SVGID_1_);}
	.st1{fill:url(#SVGID_00000181769505328943490870000017095625714843955101_);}
	.st2{fill:none;stroke:#BCBEC0;stroke-width:0.75;stroke-miterlimit:10;}
	.st3{fill:url(#SVGID_00000014629235947223057510000005019965783219009972_);}
	.st4{fill:#FFFFFF;}
	.st5{fill:url(#SVGID_00000171691086938143842230000000939670828058792113_);}
	.st6{fill:url(#SVGID_00000026141709953907773230000012245042160037179538_);}
	.st7{fill:url(#SVGID_00000067955834646287083080000015588844539113008318_);}
	.st8{fill:url(#SVGID_00000042000029161291046770000009433142719289642644_);}
	.st9{fill:url(#SVGID_00000048492806789805326140000007109707820567478918_);}
	.st10{fill:#A4519F;}
	.st11{fill:#FFCB05;}
	.st12{fill:#AEA7BF;}
	.st13{fill:#E6DDEE;}
	.st14{fill:url(#SVGID_00000148645004392990878180000013137716400963460488_);}
	.st15{fill:#481E54;}
	.st16{fill:#1D102C;}
	.st17{fill:url(#SVGID_00000110441222373984496470000016977350041799656341_);}
	.st18{fill:url(#SVGID_00000015347165120396377270000012049747726887703996_);}
	.st19{fill:url(#SVGID_00000036230337690945880530000014027849857518594195_);}
	.st20{fill:#EE264B;}
	.st21{fill:#F9AA85;}
	.st22{fill:#EC9F79;}
	.st23{fill:url(#SVGID_00000054247362888949104000000015207297365852055945_);}
	.st24{fill:url(#SVGID_00000114764553101765569950000012999791454617193351_);}
	.st25{fill:url(#SVGID_00000153703571807389691490000015539810664112955794_);}
	.st26{fill:url(#SVGID_00000023964629662289698950000002314265564540053438_);}
	.st27{fill:url(#SVGID_00000137098480006445644140000013827101648903771575_);}
	.st28{fill:url(#SVGID_00000170985270472905670570000003342911060311777947_);}
	.st29{fill:url(#SVGID_00000010308618814495062900000001515860636062194100_);}
	.st30{fill:#FED402;}
	.st31{fill:url(#SVGID_00000067919248083774500850000009743633209378516150_);}
	.st32{fill:url(#SVGID_00000016772255226322920610000007697055214578652581_);}
	.st33{fill:#66C3A0;}
	.st34{fill:url(#SVGID_00000008863486968889241450000000023982960212842172_);}
	.st35{fill:url(#SVGID_00000120543290153323310600000000883818270753045137_);}
	.st36{fill:none;stroke:#010101;stroke-width:0.32;stroke-linecap:round;stroke-linejoin:round;}
	.st37{fill:#EE3E95;}
	.st38{fill:#EE3E95;stroke:#FFFFFF;stroke-width:0.32;stroke-miterlimit:10;}
	.st39{fill:#010101;}
</style>
<linearGradient id="SVGID_1_" gradientUnits="userSpaceOnUse" x1="1254.95" y1="294" x2="-1" y2="294" gradientTransform="matrix(1 0 0 -1 0 586)">
	<stop  offset="0" style="stop-color:#003246"/>
	<stop  offset="1" style="stop-color:#09202A"/>
</linearGradient>
<rect x="-1" y="-1" class="st0" width="1255.9" height="586"/>
<g>
	
		<linearGradient id="SVGID_00000064328138300996635030000013345391522109681296_" gradientUnits="userSpaceOnUse" x1="688.6105" y1="215.4678" x2="1151.4406" y2="339.5278" gradientTransform="matrix(1 0 0 1 0 2)">
		<stop  offset="0.13" style="stop-color:#004059"/>
		<stop  offset="1" style="stop-color:#09202A"/>
	</linearGradient>
	<path style="fill:url(#SVGID_00000064328138300996635030000013345391522109681296_);" d="M916.7,57.2
		c78.6-17.2,171.7,7.7,229.7,76.4c72.5,85.9,71.5,217.9,0,306.2c-65.5,80.8-175.4,107.5-268,76.4c-8.1-2.7-122-42.8-152.9-152.9
		C689.3,236.1,783.8,86,916.7,57.2L916.7,57.2z"/>
	<path class="st2" d="M950.9,356.3c94.8,0,171.7-36.3,171.7-81.1s-76.9-81.1-171.7-81.1s-171.7,36.3-171.7,81.1
		S856.1,356.3,950.9,356.3L950.9,356.3z"/>
	
		<linearGradient id="SVGID_00000078025594139988416160000016153970110431454873_" gradientUnits="userSpaceOnUse" x1="807.49" y1="149.425" x2="941.0796" y2="149.425" gradientTransform="matrix(1 0 0 1 0 2)">
		<stop  offset="0" style="stop-color:#46B978"/>
		<stop  offset="1" style="stop-color:#4BC1E0"/>
	</linearGradient>
	<path style="fill:url(#SVGID_00000078025594139988416160000016153970110431454873_);" d="M937,132.8l-125.4,72.5
		c-1.3,0.7-2.9,0.3-3.7-1c-0.3-0.4-0.4-0.9-0.4-1.3v-25.6c0-3.1,1.6-5.9,4.2-7.3l125.4-72.3c1.3-0.7,2.9-0.3,3.7,1
		c0.3,0.4,0.3,0.9,0.3,1.3v25.5C941.2,128.5,939.6,131.3,937,132.8L937,132.8z"/>
	<path class="st4" d="M846,177.7l-26.8,15.4c-1.9,1.2-3.5,0.4-3.5-1.5v-12c0.3-2.2,1.5-4.2,3.5-5.4l26.8-15.4
		c1.9-1.2,3.5-0.4,3.5,1.5v12C849.2,174.5,847.9,176.5,846,177.7z"/>
	
		<linearGradient id="SVGID_00000097482236491317991770000000352773954289075631_" gradientUnits="userSpaceOnUse" x1="853.34" y1="145.84" x2="887.02" y2="145.84" gradientTransform="matrix(1 0 0 1 0 2)">
		<stop  offset="0" style="stop-color:#0D212A"/>
		<stop  offset="1" style="stop-color:#003848"/>
	</linearGradient>
	<path style="fill:url(#SVGID_00000097482236491317991770000000352773954289075631_);" d="M885.1,141.7l-29.9,17.1
		c-1,0.6-1.9,0.3-1.9-0.9v-0.9c0.2-1.3,0.9-2.5,1.9-3.1l29.9-17.1c1-0.6,1.9-0.3,1.9,0.9v0.9C887,139.8,886.3,141,885.1,141.7z"/>
	<path class="st4" d="M927.8,124.8L855,166.7c-0.9,0.4-1.6,0.1-1.6-0.7c0.2-1,0.7-2.1,1.6-2.5l72.8-42c0.9-0.4,1.6-0.2,1.6,0.7
		C929.2,123.2,928.6,124.3,927.8,124.8z"/>
	<path class="st4" d="M902.3,144.3l-47.5,27.4c-0.9,0.4-1.5,0.1-1.5-0.6c0.2-1,0.6-1.9,1.5-2.3l47.5-27.5c0.9-0.4,1.5-0.1,1.5,0.6
		C903.7,142.9,903.1,143.7,902.3,144.3L902.3,144.3z"/>
	
		<linearGradient id="SVGID_00000031930217028206168490000005252977733083584946_" gradientUnits="userSpaceOnUse" x1="747.3" y1="230.545" x2="880.88" y2="230.545" gradientTransform="matrix(1 0 0 1 0 2)">
		<stop  offset="0" style="stop-color:#0172AC"/>
		<stop  offset="1" style="stop-color:#61A1CC"/>
	</linearGradient>
	<path style="fill:url(#SVGID_00000031930217028206168490000005252977733083584946_);" d="M876.6,214l-125.4,72.3
		c-1.3,0.7-2.9,0.3-3.7-1c-0.3-0.4-0.3-0.9-0.3-1.3v-25.6c0-3.1,1.6-5.9,4.2-7.3l125.4-72.3c1.3-0.7,2.9-0.3,3.7,1
		c0.3,0.4,0.3,0.9,0.3,1.3v25.6C880.9,209.6,879.3,212.4,876.6,214L876.6,214z"/>
	<path class="st4" d="M786.5,257.9l-26.8,15.5c-1.9,1-3.5,0.4-3.5-1.5v-12.1c0.3-2.2,1.5-4.2,3.5-5.4l26.8-15.5
		c1.9-1.2,3.5-0.4,3.5,1.5v12C789.8,254.7,788.5,256.8,786.5,257.9z"/>
	
		<linearGradient id="SVGID_00000101802181293663181760000014727659559178762167_" gradientUnits="userSpaceOnUse" x1="794.1" y1="227.8948" x2="820.7" y2="227.8948" gradientTransform="matrix(1 0 0 1 0 2)">
		<stop  offset="0" style="stop-color:#0D212A"/>
		<stop  offset="1" style="stop-color:#003848"/>
	</linearGradient>
	<path style="fill:url(#SVGID_00000101802181293663181760000014727659559178762167_);" d="M818.3,226l-21.8,12.6
		c-1.3,0.7-2.3,0.3-2.3-1c0.2-1.6,1-2.9,2.3-3.8l21.8-12.6c1.3-0.7,2.3-0.3,2.3,1C820.5,223.8,819.7,225.3,818.3,226L818.3,226z"/>
	<path class="st4" d="M812.5,237.1l-17,9.8c-0.9,0.4-1.6,0.1-1.6-0.7c0.2-1,0.7-2.1,1.6-2.5l17-9.8c0.9-0.4,1.6-0.1,1.6,0.7
		C813.9,235.7,813.3,236.6,812.5,237.1z"/>
	
		<linearGradient id="SVGID_00000177452898311368402590000012041723128794563713_" gradientUnits="userSpaceOnUse" x1="816.16" y1="225.565" x2="836.3699" y2="225.565" gradientTransform="matrix(1 0 0 1 0 2)">
		<stop  offset="0" style="stop-color:#0D212A"/>
		<stop  offset="1" style="stop-color:#003848"/>
	</linearGradient>
	<path style="fill:url(#SVGID_00000177452898311368402590000012041723128794563713_);" d="M834.7,224.3l-17,9.8
		c-0.9,0.4-1.6,0.1-1.6-0.7c0.2-1,0.7-2.1,1.6-2.5l17-9.8c0.9-0.4,1.6-0.1,1.6,0.7C836.2,222.8,835.6,223.7,834.7,224.3z"/>
	<path class="st4" d="M842.8,224.6l-47.5,27.4c-0.9,0.4-1.5,0.1-1.5-0.6c0.2-1,0.6-1.9,1.5-2.3l47.5-27.4c0.9-0.4,1.5-0.1,1.5,0.6
		C844.1,223.1,843.7,224,842.8,224.6z"/>
	<path class="st4" d="M864.5,212l-15.4,8.9c-0.9,0.4-1.5,0.1-1.5-0.6c0.2-1,0.6-1.9,1.5-2.3l15.4-8.9c0.9-0.4,1.5-0.1,1.5,0.6
		C865.8,210.7,865.3,211.5,864.5,212L864.5,212z"/>
	
		<linearGradient id="SVGID_00000129182476438538084880000017155553718974659235_" gradientUnits="userSpaceOnUse" x1="1027.92" y1="187.6914" x2="1102.7858" y2="187.6914" gradientTransform="matrix(1 0 0 1 0 2)">
		<stop  offset="0" style="stop-color:#46B978"/>
		<stop  offset="1" style="stop-color:#4BC1E0"/>
	</linearGradient>
	<path style="fill:url(#SVGID_00000129182476438538084880000017155553718974659235_);" d="M1096.8,252.8l-62.8-36.3
		c-3.5-2.3-5.7-6.1-6-10.4V130c0-3.8,2.8-5.3,6-3.4l62.8,36.3c3.5,2.3,5.9,6.1,6,10.4v76.1C1102.9,253.1,1100.1,254.7,1096.8,252.8
		L1096.8,252.8z"/>
	<path class="st10" d="M1111.9,210.8v-21.1l-63.6-36.8v21.1c0.2,2.9,1.8,5.6,4.2,7.2l55.2,31.9
		C1110.1,214.5,1111.9,213.4,1111.9,210.8z"/>
	<path class="st10" d="M1048.3,132.8v21.1l63.7,36.8v-21.1c-0.2-2.9-1.8-5.6-4.1-7.2l-55.4-31.9
		C1050.2,129.1,1048.3,130.1,1048.3,132.8L1048.3,132.8z"/>
	<path class="st11" d="M1060.2,210.2l-22.8-13.2c-1.5-1-2.5-2.6-2.6-4.4c0-1.6,1.2-2.3,2.6-1.5l22.8,13.2c1.5,1,2.5,2.6,2.6,4.4
		C1062.8,210.4,1061.6,210.9,1060.2,210.2L1060.2,210.2z"/>
	<path class="st4" d="M1088.4,233.8l-52-30c-1-0.6-1.6-1.8-1.8-2.9c0-1,0.7-1.5,1.8-1l52,30c1,0.6,1.6,1.8,1.8,2.9
		C1090.2,233.8,1089.5,234.4,1088.4,233.8z"/>
	<path class="st4" d="M1076.6,232.9l-40.1-23.1c-1-0.6-1.6-1.8-1.6-2.9v-0.1c0-1,0.7-1.5,1.6-1l40.1,23.1c1,0.6,1.6,1.8,1.6,2.9v0.3
		C1078.2,233,1077.4,233.5,1076.6,232.9L1076.6,232.9z"/>
	<path class="st12" d="M1064.6,310.4h30.8v47h-30.8c-2.1,0-3.7-1.6-3.7-3.7V314C1060.9,312,1062.5,310.4,1064.6,310.4z"/>
	<path class="st13" d="M1064.6,309.2h30.8v47h-30.8c-2.1,0-3.7-1.6-3.7-3.7v-39.8C1060.9,310.8,1062.7,309.2,1064.6,309.2
		L1064.6,309.2z"/>
	<path class="st12" d="M1096,357.4l13.6-20.1c0.9-1.3,1.3-2.8,1.3-4.4v-39.7c0-1.5-2.9-2.2-3.8-1l-11.9,64v1.2L1096,357.4
		L1096,357.4z"/>
	
		<linearGradient id="SVGID_00000036232712470752427620000018148001772929674116_" gradientUnits="userSpaceOnUse" x1="1095.34" y1="321.9651" x2="1109.84" y2="321.9651" gradientTransform="matrix(1 0 0 1 0 2)">
		<stop  offset="0" style="stop-color:#0D212A"/>
		<stop  offset="1" style="stop-color:#003848"/>
	</linearGradient>
	<path style="fill:url(#SVGID_00000036232712470752427620000018148001772929674116_);" d="M1095.3,356.2l13.2-18.9
		c0.9-1.3,1.3-2.8,1.3-4.4v-39.7c0-0.9-0.7-1.6-1.6-1.5c-0.4,0-0.9,0.3-1.2,0.6l-11.7,16.8V356.2L1095.3,356.2z"/>
	<path class="st10" d="M1096.8,310.8v39.8l11.6-16.5v-39.8L1096.8,310.8z"/>
	<path class="st12" d="M1075.1,313.3h14.4c1.2,0,2.1,0.9,2.1,2v34.1c0,1.2-0.9,2-2.1,2h-14.4c-1.2,0-2.1-0.9-2.1-2v-34.1
		C1073,314.2,1073.9,313.3,1075.1,313.3L1075.1,313.3z"/>
	<path class="st12" d="M1065.1,327h4.1c0.3,0,0.6,0.3,0.6,0.6v9.8c0,0.3-0.3,0.6-0.6,0.6h-4.1c-0.3,0-0.6-0.3-0.6-0.6v-9.8
		C1064.6,327.2,1064.7,327,1065.1,327z"/>
	<path class="st12" d="M1039.5,299.1l-7.9-4.5c-0.7-0.3-1.5-0.3-2.2,0l-17.3,10h-0.6v0.7c0,0.3,0.2,0.4,0.4,0.6l8.2,4.7
		c0.7,0.3,1.5,0.3,2.2,0l17.4-10.1c0.3-0.1,0.4-0.3,0.4-0.6v-0.9L1039.5,299.1L1039.5,299.1z"/>
	<path class="st13" d="M1020.2,309.8l-8.2-4.7c-0.3-0.1-0.6-0.4-0.4-0.9c0-0.1,0.3-0.4,0.4-0.4l17.4-10.1c0.7-0.3,1.5-0.3,2.2,0
		l8.2,4.7c0.3,0.1,0.6,0.4,0.4,0.9c0,0.1-0.3,0.4-0.4,0.4l-17.4,10.1C1021.6,310.1,1020.9,310.1,1020.2,309.8L1020.2,309.8z"/>
	<path class="st15" d="M1039.7,300.2l-15.5,8.9v-0.4l6-5.3l9.5-3.7L1039.7,300.2L1039.7,300.2z"/>
	<path class="st16" d="M1017.7,307.3l-1.5-0.9c-0.3-0.1-0.3-0.4,0-0.6s0.7-0.1,1,0l1.5,0.9c0.3,0.1,0.3,0.4,0,0.6
		C1018.4,307.4,1018,307.4,1017.7,307.3L1017.7,307.3z"/>
	
		<linearGradient id="SVGID_00000147180162711958168500000007511514105257079199_" gradientUnits="userSpaceOnUse" x1="1013.75" y1="299.275" x2="1039.63" y2="299.275" gradientTransform="matrix(1 0 0 1 0 2)">
		<stop  offset="0" style="stop-color:#0D212A"/>
		<stop  offset="1" style="stop-color:#003848"/>
	</linearGradient>
	<path style="fill:url(#SVGID_00000147180162711958168500000007511514105257079199_);" d="M1029.2,293.8l-15.5,8.9l10.4,6l15.5-8.9
		L1029.2,293.8z"/>
	<path class="st10" d="M1029.2,293.8l-15.5,8.9l25.9-2.9L1029.2,293.8z"/>
	
		<linearGradient id="SVGID_00000070100366669555290530000002859855216587223727_" gradientUnits="userSpaceOnUse" x1="826.83" y1="232.885" x2="960.41" y2="232.885" gradientTransform="matrix(1 0 0 1 0 2)">
		<stop  offset="0" style="stop-color:#46B978"/>
		<stop  offset="1" style="stop-color:#4BC1E0"/>
	</linearGradient>
	<path style="fill:url(#SVGID_00000070100366669555290530000002859855216587223727_);" d="M956.2,216.4l-125.4,72.3
		c-1.3,0.7-2.9,0.3-3.7-1c-0.3-0.4-0.3-0.9-0.3-1.3v-25.6c0-3.1,1.6-5.9,4.2-7.3l125.4-72.3c1.3-0.7,2.9-0.3,3.7,1
		c0.3,0.4,0.3,0.9,0.3,1.3v25.5C960.4,212.1,958.8,214.9,956.2,216.4L956.2,216.4z"/>
	<path class="st4" d="M866.1,260.3l-26.8,15.5c-1.9,1.2-3.5,0.4-3.5-1.5v-12c0.3-2.2,1.5-4.2,3.5-5.4l26.8-15.5
		c1.9-1.2,3.5-0.4,3.5,1.5v12C869.3,257.1,868,259.1,866.1,260.3L866.1,260.3z"/>
	
		<linearGradient id="SVGID_00000142857975699583361500000003236535085313244067_" gradientUnits="userSpaceOnUse" x1="873.37" y1="229.7248" x2="902.17" y2="229.7248" gradientTransform="matrix(1 0 0 1 0 2)">
		<stop  offset="0" style="stop-color:#0D212A"/>
		<stop  offset="1" style="stop-color:#003848"/>
	</linearGradient>
	<path style="fill:url(#SVGID_00000142857975699583361500000003236535085313244067_);" d="M899.8,227.3l-24,13.8
		c-1.3,0.7-2.3,0.3-2.3-1c0.2-1.6,1-2.9,2.3-3.8l24-13.9c1.3-0.7,2.3-0.3,2.3,1C902,225.1,901.1,226.4,899.8,227.3L899.8,227.3z"/>
	<path class="st4" d="M914.6,226.5L875,249.3c-0.9,0.4-1.6,0.1-1.6-0.7c0.2-1,0.7-2.1,1.6-2.5l39.5-22.8c0.9-0.4,1.6-0.1,1.6,0.7
		C916,225,915.4,226,914.6,226.5z"/>
	<path class="st4" d="M922.3,226.9l-47.5,27.4c-0.9,0.4-1.5,0.1-1.5-0.6c0.2-1,0.6-1.9,1.5-2.3l47.5-27.4c0.9-0.4,1.5-0.1,1.5,0.6
		C923.6,225.6,923.1,226.5,922.3,226.9z"/>
	<path class="st20" d="M1042.3,436.6c0,0,18.8-9.4,22.4-26.9c1.6-8.2,20.7-21.2,25.3-28.7l-34.9,7.2l-25.8,22.5L1042.3,436.6z"/>
	<path class="st21" d="M1107.5,431.1c-3.7-0.1-11.3-2.6-16.4-4.4c-3.1-1-5.6-3.2-7-6.1c-5.9-11.6-21.8-35.4-29.3-46.7
		c-17.6-22.7-61.5-33.1-61.5-33.1c-2-0.4-15.7-3.8-23.7-1.8c0,14.8,26.5,26.5,43.7,31.3s36,16.1,36,16.1c1.5,7.5,9.5,25.3,14.7,28.4
		c5.1,3.1,15.2,13.8,15.2,13.8c2.1,1.9,2.2,5.7,3.5,7c1.3,1.3,5.1-0.1,6-0.7c1.6,0,3.4,0.1,5,0.3c1.2,0.1,4.8,2.9,6.6,3.2
		c2.2,0.1,4.4-0.1,6.6-1C1108.5,436.7,1113.3,431.4,1107.5,431.1L1107.5,431.1z"/>
	<path class="st22" d="M1073.5,402.7l-14.7-8.8c-1.8,2-3.2,4.2-4.7,6.6c1.6,3.4,3.4,6.7,5.4,9.8c6,0,12-0.3,18-1
		C1076.3,407.3,1074.9,405.1,1073.5,402.7L1073.5,402.7z"/>
	<path class="st21" d="M966.8,354.4c-0.3,3.4-0.4,6.7-2.2,9.8s-6.4,14.8,6.5,22.1c12.9,7.3,29.3,8.2,37.6,8.5
		c8.1,0.3,18.3,1.8,22.4,2c5.7,0.6,11.3,1.9,16.6,4c12.9,5,26.7,7.6,40.6,7.9c5,0.4,10,1.5,14.8,3.1c0.4,1.5,2.1,3.4,6.2,3.2
		c6.6,0.7,5.6,3.1,12.4,3.5c7.3,0.6,12.9,0.4,15.5-7c1.6-4.4-21.2-3.8-23.6-4.7c-7.5-3.1-50.7-16.7-65.9-20.9
		c-2.2-1.5-4.2-0.7-7.5-3.2c-9.5-7.3-43.1-23.6-69.1-34C966.3,350.9,967,352.8,966.8,354.4L966.8,354.4z"/>
	
		<linearGradient id="SVGID_00000098189599184849007720000016840930347581112210_" gradientUnits="userSpaceOnUse" x1="956.4443" y1="386.4077" x2="1090.0299" y2="386.4077" gradientTransform="matrix(1 0 0 1 0 2)">
		<stop  offset="0" style="stop-color:#E94B57"/>
		<stop  offset="1" style="stop-color:#EC764D"/>
	</linearGradient>
	<path style="fill:url(#SVGID_00000098189599184849007720000016840930347581112210_);" d="M966.8,354.4c0,0-10.1,9.1-10.4,22.1
		c-0.4,17.1,24.9,29.7,41.9,36.5s35,12.6,43.9,23.4c0-12,8.6-18.6,16.3-22.1s7-16.4,11.3-20.6c4.8-4.8,17.3-10.8,20.2-12.7
		c-43.4-10.5-43.9-33.7-96.8-40.1C969.2,338,968.9,349.3,966.8,354.4L966.8,354.4z"/>
	
		<linearGradient id="SVGID_00000113320766717281297350000009522641453073335214_" gradientUnits="userSpaceOnUse" x1="910.3311" y1="283.08" x2="971.7614" y2="283.08" gradientTransform="matrix(1 0 0 1 0 2)">
		<stop  offset="0" style="stop-color:#0D212A"/>
		<stop  offset="1" style="stop-color:#003848"/>
	</linearGradient>
	<path style="fill:url(#SVGID_00000113320766717281297350000009522641453073335214_);" d="M949.6,246.7c0,0-17.3,3.2-27.8,31.2
		c-4.8,12.7-1.8,23.4-5.1,28.8c-3.4,5.4-8.9,8.4-4.8,13.2s20.9,4.4,29.6,1.2c8.6-3.2,21-7.9,19.2-16.8s8.9-8.5,11.1-17
		c0.7-3.1-4.2-22.1-9.7-25.8S949.6,246.7,949.6,246.7z"/>
	<path class="st21" d="M967.9,285.2c0,0,2.2-7.9,9.8-5.3c7.6,2.6,2.6,21.2,2.5,39.1c-0.2,17.9-7.2,17.4-7.2,17.4l-7-41.4
		L967.9,285.2L967.9,285.2z"/>
	<path class="st20" d="M973.9,293.4l-6,13.2l0.3,1.3l12.6,0.6c0.6-7,1.3-13.6,1.3-18.7C980.9,292.4,973.9,293.4,973.9,293.4
		L973.9,293.4z"/>
	
		<linearGradient id="SVGID_00000093859954448650562100000002917955459349665182_" gradientUnits="userSpaceOnUse" x1="926.2681" y1="317.57" x2="993.2581" y2="317.57" gradientTransform="matrix(1 0 0 1 0 2)">
		<stop  offset="0" style="stop-color:#E94B57"/>
		<stop  offset="1" style="stop-color:#EC764D"/>
	</linearGradient>
	<path style="fill:url(#SVGID_00000093859954448650562100000002917955459349665182_);" d="M926.6,316.2c0,0-2.3-8.4,6-11.4
		c8.3-3.1,29.9-12.6,35.3-19.8c0.2,2.2,1,4.2,2.3,6c0.7,0.9,2.9,1.2,3.8,2.2c2.6,2.9,5.9,5.1,9.5,6.7c6.7,2.8,5.6,12.5,1.8,16.7
		c4.8,5.4,8.2,20.9,8.1,24c-3.4,5.3-17.1,12.7-26.4,13.5c-1.5-6.7-16.5-19.2-21.5-23.3C942.1,328.5,936.3,323.4,926.6,316.2
		L926.6,316.2z"/>
	<path class="st20" d="M929.7,311.5c-3.8,3.7-3.1,4.7-3.1,4.7c9.7,7.2,14.7,12.7,17.9,15.4c5,4.1,21.1,16.1,22.4,22.8
		C966.3,344,935.1,316.8,929.7,311.5L929.7,311.5z"/>
	<path class="st21" d="M930.1,306.1c-11.7,3.7-4.5,53-8.1,56.5c-3.5,3.5-16.8,20.6-16.8,20.6c-8.8-1.5-14.1,0.9-17.7,3.2
		s6.2,2.3,6.2,2.3h14.9c1.6,0,3.2-0.7,4.4-1.9c4.7-4.8,17-17.6,19.2-20.8c2.6-4.1,4.7-30.9,4.7-45.7S930.1,306.1,930.1,306.1
		L930.1,306.1z"/>
	<path class="st21" d="M966.1,307.1c7.5-7,6.3-10.2,7.9-13.6c-2.3-2.5-4.4-5.3-6.2-8.2c-5.4,7.2-27,16.7-35.3,19.8s-6,11.4-6,11.4
		S954.1,318.3,966.1,307.1L966.1,307.1z"/>
	
		<linearGradient id="SVGID_00000092442668890688775510000013672338618598374818_" gradientUnits="userSpaceOnUse" x1="922.62" y1="322.565" x2="938.75" y2="322.565" gradientTransform="matrix(1 0 0 1 0 2)">
		<stop  offset="0" style="stop-color:#E94B57"/>
		<stop  offset="1" style="stop-color:#EC764D"/>
	</linearGradient>
	<path style="fill:url(#SVGID_00000092442668890688775510000013672338618598374818_);" d="M938.7,316.1c-4.7,0.4-9.5,0.1-14.1-0.7
		v-0.1l-0.2,0.1c-1.2,5.9-1.8,11.7-1.8,17.6c0,0,9.5-1.3,14.1,1c0.4-6.1,1.5-9.2,1.9-13.5L938.7,316.1L938.7,316.1z"/>
	<path class="st21" d="M967.3,296.6l-3.7-1.5c0,0-2.5-3.2-4.5-11.6s-10.2-1.2-10.2-1.2s0.6,4.1-2,16s14.3,4.4,14.3,4.4L967.3,296.6
		L967.3,296.6z"/>
	<path class="st22" d="M949.9,281.7c2.3-1.6,7.8-4.8,9.2,1.6c0.7,3.4,1.8,6.6,3.1,9.7C954.4,292.3,951,285,949.9,281.7L949.9,281.7z
		"/>
	<path class="st21" d="M961.4,286c3.4,0.3,6.5-1.6,7.8-4.7c0.7-1.8,1-3.7,1-5.6c0.2-9.4-1.9-17.1-7-20.9s-9.8-4.7-12.3-3.4
		c-2.5,1.3-16,4.4-16.3,9.1c-0.3,4.7,9.2,18.2,14.1,22C952.2,285,958,285.8,961.4,286L961.4,286z"/>
	
		<linearGradient id="SVGID_00000057857140641915585480000011630382845878894483_" gradientUnits="userSpaceOnUse" x1="933.14" y1="262.2536" x2="971.634" y2="262.2536" gradientTransform="matrix(1 0 0 1 0 2)">
		<stop  offset="0" style="stop-color:#0D212A"/>
		<stop  offset="1" style="stop-color:#003848"/>
	</linearGradient>
	<path style="fill:url(#SVGID_00000057857140641915585480000011630382845878894483_);" d="M967.3,251.2c2,1.6,3.5,3.9,4.2,6.6
		c0.7,3.4-0.4,6.7-8.9,10.4c-11.3,4.8-11.1,8.2-10.8,10.8l-4.8-7.2l2,10.7c0,0-10.4-2.9-12.2-7c-1.8-4.1-4.8-10.4-3.1-15.8
		c1.8-5.4,11.4-12.3,18.2-13.5C956.7,245.1,963.2,248,967.3,251.2L967.3,251.2z"/>
	<path class="st21" d="M948.2,274.9c1.6,1.8,2,4,1,5c-1,1-3.4,0.4-5-1.3s-2-4.1-0.9-5.1C944.6,272.4,946.5,273.2,948.2,274.9
		L948.2,274.9z"/>
	
		<linearGradient id="SVGID_00000041976779611295201560000013535478225870593183_" gradientUnits="userSpaceOnUse" x1="778.32" y1="390.4242" x2="868" y2="390.4242" gradientTransform="matrix(1 0 0 1 0 2)">
		<stop  offset="0" style="stop-color:#46B978"/>
		<stop  offset="1" style="stop-color:#4BC1E0"/>
	</linearGradient>
	<path style="fill:url(#SVGID_00000041976779611295201560000013535478225870593183_);" d="M859.9,454.7l-75.9-42.9
		c-3.7-2-6.7-6.9-6.7-10.5l0.2-68.4c0-3.7,3.1-5,6.7-2.8l75.9,43c3.7,2,6.7,6.9,6.7,10.5l-0.2,68.4
		C866.7,455.6,863.6,456.9,859.9,454.7L859.9,454.7z"/>
	
		<linearGradient id="SVGID_00000180347522934259347530000007526576406305675187_" gradientUnits="userSpaceOnUse" x1="783.13" y1="376.4901" x2="836.14" y2="376.4901" gradientTransform="matrix(1 0 0 1 0 2)">
		<stop  offset="0" style="stop-color:#0D212A"/>
		<stop  offset="1" style="stop-color:#003848"/>
	</linearGradient>
	<path style="fill:url(#SVGID_00000180347522934259347530000007526576406305675187_);" d="M830.6,418.6l-44.2-25
		c-2.3-1.3-4.2-6.9-4.2-9.2v-43.9c0-2.3,1.9-3.1,4.2-1.8l44.2,25.2c2.3,1.5,4,3.8,4.2,6.6v45.5C834.9,418.1,833,419.9,830.6,418.6z"
		/>
	<path class="st11" d="M797.7,372.4c4.3-1.4,5.7-8.9,3.1-16.8c-2.6-7.8-8.2-13-12.5-11.6s-5.7,8.9-3.1,16.8
		C787.8,368.6,793.4,373.8,797.7,372.4L797.7,372.4z"/>
	<path class="st30" d="M834.9,415.9v-22.8L807,377.3v28l24.3,13.8C833.4,420.2,834.9,418.7,834.9,415.9L834.9,415.9z"/>
	<path class="st11" d="M856.7,406.5l-14.4-8.2c-0.9-0.4-1.3-1.3-1.5-2.3v-0.7c0-0.9,0.7-1,1.5-0.6l14.4,8.2c0.9,0.4,1.3,1.3,1.5,2.3
		v0.7C858.2,406.7,857.6,407,856.7,406.5L856.7,406.5z"/>
	<path class="st4" d="M857.2,426l-18.3-10.4c-0.9-0.4-1.3-1.3-1.5-2.2v-0.6c0-0.7,0.6-1,1.5-0.6l18.3,10.4c0.9,0.4,1.3,1.3,1.5,2.2
		v0.6C858.6,426.3,857.9,426.6,857.2,426z"/>
	<path class="st4" d="M857.2,420.3l-18.3-10.4c-0.9-0.4-1.3-1.3-1.5-2.2v-0.6c0-0.7,0.6-1,1.5-0.6l18.3,10.4
		c0.9,0.4,1.3,1.3,1.5,2.2v0.6C858.6,420.4,857.9,420.7,857.2,420.3L857.2,420.3z"/>
	<path class="st4" d="M857.2,414.6l-18.3-10.4c-0.9-0.4-1.3-1.3-1.5-2.2v-0.6c0-0.7,0.6-1,1.5-0.6l18.3,10.4
		c0.9,0.4,1.3,1.3,1.5,2.2v0.6C858.6,414.7,857.9,415,857.2,414.6L857.2,414.6z"/>
	
		<linearGradient id="SVGID_00000015316524085952422770000014170603888703133573_" gradientUnits="userSpaceOnUse" x1="798.26" y1="376.59" x2="836.14" y2="376.59" gradientTransform="matrix(1 0 0 1 0 2)">
		<stop  offset="0" style="stop-color:#E94B57"/>
		<stop  offset="1" style="stop-color:#EC764D"/>
	</linearGradient>
	<path style="fill:url(#SVGID_00000015316524085952422770000014170603888703133573_);" d="M797.2,372.4l8.5,5.1l29.3,16.5v-14.5
		l-29.2-16.5L797.2,372.4L797.2,372.4z"/>
	
		<linearGradient id="SVGID_00000007399334559895447650000014332960810082961035_" gradientUnits="userSpaceOnUse" x1="814.45" y1="401.9555" x2="823.37" y2="401.9555" gradientTransform="matrix(1 0 0 1 0 2)">
		<stop  offset="0" style="stop-color:#E94B57"/>
		<stop  offset="1" style="stop-color:#EC764D"/>
	</linearGradient>
	<path style="fill:url(#SVGID_00000007399334559895447650000014332960810082961035_);" d="M821.8,398.9l-8.2-4.7
		c-0.2-0.1-0.3,0-0.3,0.3v14.2l8.9,5v-14.2C822.3,399.4,822.1,399.1,821.8,398.9L821.8,398.9z"/>
	<path class="st33" d="M791.1,389c0-2.6-1.3-5-3.2-6.7c-0.3-1.5-1.2-2.8-2.5-3.7c-0.7-0.4-1.6-0.3-2.2,0.3c0,0.1-0.2,0.1-0.2,0.3
		c-0.2-0.1-0.3-0.3-0.4-0.3c-0.2-0.1-0.3-0.1-0.4-0.1v7.2c0,2.8,1.2,5.4,3.5,7.2l6.4,3.7c0.4-0.7,0.7-1.8,0.7-2.6
		C792.7,392.2,792.1,390.4,791.1,389L791.1,389z"/>
	<path class="st33" d="M798.3,397.2c0-1.3-0.7-2.6-1.8-3.5c-0.2-0.7-0.6-1.5-1.3-1.9c-0.4-0.3-0.9-0.1-1.2,0.1c0,0,0,0.1-0.2,0.1
		l-0.3-0.1c-0.9-0.4-1.5,0.1-1.5,1.3c0,0.4,0,0.7,0.2,1.2c-0.4,0-0.7,0.6-0.7,1.5v0.7l7.2,4.1c0-0.3,0.2-0.4,0.2-0.7
		C799,399,798.7,398.1,798.3,397.2L798.3,397.2z"/>
	<path class="st11" d="M829.8,426.9l-46-26.1c-1-0.6-1.6-1.6-1.8-2.8v-0.7c0-0.9,0.7-1.3,1.8-0.7l46,26.1c1,0.6,1.6,1.6,1.8,2.8v0.7
		C831.5,427.2,830.8,427.5,829.8,426.9z"/>
	<path class="st11" d="M817,424.9l-33.7-19.2c-0.7-0.4-1.2-1-1.2-1.9v-0.4c0-0.6,0.6-0.9,1.2-0.4l33.7,19.2c0.7,0.4,1.2,1,1.2,1.9
		v0.6C818.2,425,817.6,425.3,817,424.9L817,424.9z"/>
	<path class="st11" d="M1145.7,224.9c7.3,4.2,13.2,14.4,13.2,22.8s-6,11.7-13.2,7.6c-7.2-4.1-13.2-14.4-13.2-22.8
		S1138.4,220.6,1145.7,224.9z"/>
	<path class="st4" d="M1152.7,251.5c0.7-0.4-2.3-6.3-6.6-13.1c-4.3-6.8-8.4-12-9.1-11.6c-0.7,0.4,2.3,6.3,6.6,13.1
		C1147.9,246.8,1152,252,1152.7,251.5L1152.7,251.5z"/>
	<path class="st4" d="M1151.3,235.1l-9.4-0.7l-4.8,6.7l0.7,1.5l14.2-6.1L1151.3,235.1L1151.3,235.1z"/>
	<path class="st4" d="M1154.3,247.8l-4.4-0.6l-2.2,3.2l0.9,1.5l6.6-2.9L1154.3,247.8L1154.3,247.8z"/>
	<path class="st11" d="M789.8,285.5c7.3,4.2,13.2,14.5,13.2,22.8s-6,11.7-13.2,7.5c-7.2-4.2-13.2-14.4-13.2-22.8
		S782.5,281.4,789.8,285.5z"/>
	
		<linearGradient id="SVGID_00000160153692328521941600000006599102073925432225_" gradientUnits="userSpaceOnUse" x1="779.761" y1="298.7594" x2="799.6611" y2="298.7594" gradientTransform="matrix(1 0 0 1 0 2)">
		<stop  offset="0" style="stop-color:#E94B57"/>
		<stop  offset="1" style="stop-color:#EC764D"/>
	</linearGradient>
	<path style="fill:url(#SVGID_00000160153692328521941600000006599102073925432225_);" d="M779.8,293.2c0.2-2.9,2.6-4,5.7-2.3
		c1.8,0.9,3.1,2.2,4.2,3.8c1.5-0.3,3.1,0.1,4.2,1c3.1,2,5.1,5.3,5.7,8.9c0,0.7,0,1.3-0.3,2c-0.3,0.9-1.2,1.6-2,1.8
		c-1.8,0.3-6.6,1.3-7.3,2.9h-0.2c-0.2,0-0.2-0.1-0.3-0.1l-0.2-0.1c-0.7-2.5-5.6-8.9-7.3-11.4c-0.9-1.2-1.6-2.6-2-4.1
		C779.8,294.7,779.7,294,779.8,293.2L779.8,293.2z"/>
	
		<linearGradient id="SVGID_00000094593630648150900360000016923673583858891186_" gradientUnits="userSpaceOnUse" x1="971.54" y1="143.4621" x2="997.95" y2="143.4621" gradientTransform="matrix(1 0 0 1 0 2)">
		<stop  offset="0" style="stop-color:#F3A71D"/>
		<stop  offset="1" style="stop-color:#FED925"/>
	</linearGradient>
	<path style="fill:url(#SVGID_00000094593630648150900360000016923673583858891186_);" d="M984.7,130.3
		c-7.3,4.2-13.2,14.4-13.2,22.8s6,11.7,13.3,7.6s13.2-14.4,13.2-22.8S992,126,984.7,130.3z"/>
	<path class="st4" d="M986,136.9c-5,2.9-9.2,8.1-9.2,11.4c-0.2,1.5,1,2.8,2.5,2.8h0.3l-1.6,4.8c0,0.1,0,0.1,0.2,0l5.6-5.7
		c0.7-0.3,1.6-0.7,2.3-1.2c5.1-2.9,9.2-8.1,9.2-11.4S991,133.9,986,136.9L986,136.9z M980.6,147.6c-0.9,0.4-1.6,0.1-1.6-0.7
		c0.2-1,0.7-1.9,1.6-2.5c0.9-0.4,1.6-0.1,1.6,0.7C982.1,146.1,981.5,147,980.6,147.6z M985.9,144.5c-0.9,0.4-1.6,0.1-1.6-0.7
		c0.2-1,0.7-1.9,1.6-2.5c0.9-0.4,1.6-0.1,1.6,0.7C987.3,143,986.8,143.9,985.9,144.5z M991.2,141.5c-0.9,0.4-1.6,0.1-1.6-0.7
		c0.2-1,0.7-1.9,1.6-2.5c0.9-0.4,1.6-0.1,1.6,0.7C992.6,139.9,992,140.9,991.2,141.5z"/>
	<path class="st10" d="M1106.9,210.9l-53.2-32.9c-2.8-2.1-4.5-5.1-4.7-8.5l-0.6-33.8c0-3.1,1.9-4.4,4.5-2.8l53.2,32.9
		c2.8,2.1,4.4,5.1,4.7,8.5l0.6,33.8C1111.4,211.2,1109.4,212.4,1106.9,210.9z"/>
	<path class="st36" d="M1053.4,138.5l4.1,7.8"/>
	<path class="st36" d="M1053.4,143.6l4.1-2.5"/>
	<path class="st37" d="M1079.6,164.2c3.2-8.9,15.4,10.1,19.6,20.4c-2.8,3.5-9.1,8.4-19.2,2.2c-10.1-6.1-16.7-18.9-19.8-26.1
		C1064.3,155.8,1075.8,151.1,1079.6,164.2z"/>
	<path class="st36" d="M1093.4,181.7l-27.2-16.7"/>
	<path class="st38" d="M1072.9,164.8c-2.8-0.7-4.7,0.1-5.3,2.6l-2.3,11.1l7.8,7.2l2.3-11.1C1076,172.1,1075,168.5,1072.9,164.8
		L1072.9,164.8z"/>
	<path class="st39" d="M1073.8,190.4l1.2-5.4c0.7-3.2-1.2-8.1-4.1-10.7c-2.9-2.8-5.9-2.5-6.6,0.7l-1.8,8.4L1073.8,190.4
		L1073.8,190.4z"/>
	<path class="st12" d="M836.6,302.7c0.9,0,1.6-0.7,1.6-1.6s-0.7-1.6-1.6-1.6s-1.6,0.7-1.6,1.6S835.8,302.7,836.6,302.7z"/>
	<path class="st12" d="M842.8,302.7c0.9,0,1.6-0.7,1.6-1.6s-0.7-1.6-1.6-1.6s-1.6,0.7-1.6,1.6S841.9,302.7,842.8,302.7z"/>
	<path class="st12" d="M849.1,302.7c0.9,0,1.6-0.7,1.6-1.6s-0.7-1.6-1.6-1.6s-1.6,0.7-1.6,1.6S848.2,302.7,849.1,302.7z"/>
	<path class="st12" d="M855.4,302.7c0.9,0,1.6-0.7,1.6-1.6s-0.7-1.6-1.6-1.6s-1.6,0.7-1.6,1.6S854.5,302.7,855.4,302.7z"/>
	<path class="st12" d="M861.5,302.7c0.9,0,1.6-0.7,1.6-1.6s-0.7-1.6-1.6-1.6s-1.6,0.7-1.6,1.6S860.6,302.7,861.5,302.7z"/>
	<path class="st12" d="M867.8,302.7c0.9,0,1.6-0.7,1.6-1.6s-0.7-1.6-1.6-1.6s-1.6,0.7-1.6,1.6S867,302.7,867.8,302.7z"/>
	<path class="st12" d="M874.1,302.7c0.9,0,1.6-0.7,1.6-1.6s-0.7-1.6-1.6-1.6s-1.6,0.7-1.6,1.6S873.2,302.7,874.1,302.7z"/>
	<path class="st12" d="M880.4,302.7c0.9,0,1.6-0.7,1.6-1.6s-0.7-1.6-1.6-1.6s-1.6,0.7-1.6,1.6S879.5,302.7,880.4,302.7z"/>
	<path class="st12" d="M886.6,302.7c0.9,0,1.6-0.7,1.6-1.6s-0.7-1.6-1.6-1.6s-1.6,0.7-1.6,1.6S885.7,302.7,886.6,302.7z"/>
	<path class="st12" d="M836.6,308c0.9,0,1.6-0.7,1.6-1.6s-0.7-1.6-1.6-1.6s-1.6,0.7-1.6,1.6S835.8,308,836.6,308z"/>
	<path class="st12" d="M842.8,308c0.9,0,1.6-0.7,1.6-1.6s-0.7-1.6-1.6-1.6s-1.6,0.7-1.6,1.6S841.9,308,842.8,308z"/>
	<path class="st12" d="M849.1,308c0.9,0,1.6-0.7,1.6-1.6s-0.7-1.6-1.6-1.6s-1.6,0.7-1.6,1.6S848.2,308,849.1,308z"/>
	<path class="st12" d="M855.4,308c0.9,0,1.6-0.7,1.6-1.6s-0.7-1.6-1.6-1.6s-1.6,0.7-1.6,1.6S854.5,308,855.4,308z"/>
	<path class="st12" d="M861.5,308c0.9,0,1.6-0.7,1.6-1.6s-0.7-1.6-1.6-1.6s-1.6,0.7-1.6,1.6S860.6,308,861.5,308z"/>
	<path class="st12" d="M867.8,308c0.9,0,1.6-0.7,1.6-1.6s-0.7-1.6-1.6-1.6s-1.6,0.7-1.6,1.6S867,308,867.8,308z"/>
	<path class="st12" d="M874.1,308c0.9,0,1.6-0.7,1.6-1.6s-0.7-1.6-1.6-1.6s-1.6,0.7-1.6,1.6S873.2,308,874.1,308z"/>
	<path class="st12" d="M880.4,308c0.9,0,1.6-0.7,1.6-1.6s-0.7-1.6-1.6-1.6s-1.6,0.7-1.6,1.6S879.5,308,880.4,308z"/>
	<path class="st12" d="M886.6,308c0.9,0,1.6-0.7,1.6-1.6s-0.7-1.6-1.6-1.6s-1.6,0.7-1.6,1.6S885.7,308,886.6,308z"/>
	<path class="st12" d="M836.6,313.3c0.9,0,1.6-0.7,1.6-1.6s-0.7-1.6-1.6-1.6s-1.6,0.7-1.6,1.6S835.8,313.3,836.6,313.3z"/>
	<path class="st12" d="M842.8,313.3c0.9,0,1.6-0.7,1.6-1.6s-0.7-1.6-1.6-1.6s-1.6,0.7-1.6,1.6S841.9,313.3,842.8,313.3z"/>
	<path class="st12" d="M849.1,313.3c0.9,0,1.6-0.7,1.6-1.6s-0.7-1.6-1.6-1.6s-1.6,0.7-1.6,1.6S848.2,313.3,849.1,313.3z"/>
	<path class="st12" d="M855.4,313.3c0.9,0,1.6-0.7,1.6-1.6s-0.7-1.6-1.6-1.6s-1.6,0.7-1.6,1.6S854.5,313.3,855.4,313.3z"/>
	<path class="st12" d="M861.5,313.3c0.9,0,1.6-0.7,1.6-1.6s-0.7-1.6-1.6-1.6s-1.6,0.7-1.6,1.6S860.6,313.3,861.5,313.3z"/>
	<path class="st12" d="M867.8,313.3c0.9,0,1.6-0.7,1.6-1.6s-0.7-1.6-1.6-1.6s-1.6,0.7-1.6,1.6S867,313.3,867.8,313.3z"/>
	<path class="st12" d="M874.1,313.3c0.9,0,1.6-0.7,1.6-1.6s-0.7-1.6-1.6-1.6s-1.6,0.7-1.6,1.6S873.2,313.3,874.1,313.3z"/>
	<path class="st12" d="M880.4,313.3c0.9,0,1.6-0.7,1.6-1.6s-0.7-1.6-1.6-1.6s-1.6,0.7-1.6,1.6S879.5,313.3,880.4,313.3z"/>
	<path class="st12" d="M886.6,313.3c0.9,0,1.6-0.7,1.6-1.6s-0.7-1.6-1.6-1.6s-1.6,0.7-1.6,1.6S885.7,313.3,886.6,313.3z"/>
	<path class="st12" d="M836.6,318.7c0.9,0,1.6-0.7,1.6-1.6s-0.7-1.6-1.6-1.6s-1.6,0.7-1.6,1.6S835.8,318.7,836.6,318.7z"/>
	<path class="st12" d="M842.8,318.7c0.9,0,1.6-0.7,1.6-1.6s-0.7-1.6-1.6-1.6s-1.6,0.7-1.6,1.6S841.9,318.7,842.8,318.7z"/>
	<path class="st12" d="M849.1,318.7c0.9,0,1.6-0.7,1.6-1.6s-0.7-1.6-1.6-1.6s-1.6,0.7-1.6,1.6S848.2,318.7,849.1,318.7z"/>
	<path class="st12" d="M855.4,318.7c0.9,0,1.6-0.7,1.6-1.6s-0.7-1.6-1.6-1.6s-1.6,0.7-1.6,1.6S854.5,318.7,855.4,318.7z"/>
	<path class="st12" d="M861.5,318.7c0.9,0,1.6-0.7,1.6-1.6s-0.7-1.6-1.6-1.6s-1.6,0.7-1.6,1.6S860.6,318.7,861.5,318.7z"/>
	<path class="st12" d="M867.8,318.7c0.9,0,1.6-0.7,1.6-1.6s-0.7-1.6-1.6-1.6s-1.6,0.7-1.6,1.6S867,318.7,867.8,318.7z"/>
	<path class="st12" d="M874.1,318.7c0.9,0,1.6-0.7,1.6-1.6s-0.7-1.6-1.6-1.6s-1.6,0.7-1.6,1.6S873.2,318.7,874.1,318.7z"/>
	<path class="st12" d="M880.4,318.7c0.9,0,1.6-0.7,1.6-1.6s-0.7-1.6-1.6-1.6s-1.6,0.7-1.6,1.6S879.5,318.7,880.4,318.7z"/>
	<path class="st12" d="M886.6,318.7c0.9,0,1.6-0.7,1.6-1.6s-0.7-1.6-1.6-1.6s-1.6,0.7-1.6,1.6S885.7,318.7,886.6,318.7z"/>
	<path class="st12" d="M991.6,242.4c0.9,0,1.6-0.7,1.6-1.6s-0.7-1.6-1.6-1.6s-1.6,0.7-1.6,1.6S990.7,242.4,991.6,242.4z"/>
	<path class="st12" d="M997.9,242.4c0.9,0,1.6-0.7,1.6-1.6s-0.7-1.6-1.6-1.6s-1.6,0.7-1.6,1.6S997,242.4,997.9,242.4z"/>
	<path class="st12" d="M1004.2,242.4c0.9,0,1.6-0.7,1.6-1.6s-0.7-1.6-1.6-1.6s-1.6,0.7-1.6,1.6S1003.3,242.4,1004.2,242.4z"/>
	<path class="st12" d="M1010.3,242.4c0.9,0,1.6-0.7,1.6-1.6s-0.7-1.6-1.6-1.6s-1.6,0.7-1.6,1.6S1009.5,242.4,1010.3,242.4z"/>
	<path class="st12" d="M1016.7,242.4c0.9,0,1.6-0.7,1.6-1.6s-0.7-1.6-1.6-1.6s-1.6,0.7-1.6,1.6S1015.8,242.4,1016.7,242.4z"/>
	<path class="st12" d="M1023,242.4c0.9,0,1.6-0.7,1.6-1.6s-0.7-1.6-1.6-1.6s-1.6,0.7-1.6,1.6S1022.1,242.4,1023,242.4L1023,242.4z"
		/>
	<path class="st12" d="M1029.1,242.4c0.9,0,1.6-0.7,1.6-1.6s-0.7-1.6-1.6-1.6s-1.6,0.7-1.6,1.6S1028.2,242.4,1029.1,242.4z"/>
	<path class="st12" d="M1035.4,242.4c0.9,0,1.6-0.7,1.6-1.6s-0.7-1.6-1.6-1.6s-1.6,0.7-1.6,1.6S1034.5,242.4,1035.4,242.4z"/>
	<path class="st12" d="M1041.7,242.4c0.9,0,1.6-0.7,1.6-1.6s-0.7-1.6-1.6-1.6s-1.6,0.7-1.6,1.6S1040.8,242.4,1041.7,242.4z"/>
	<path class="st12" d="M991.6,247.8c0.9,0,1.6-0.7,1.6-1.6s-0.7-1.6-1.6-1.6s-1.6,0.7-1.6,1.6S990.7,247.8,991.6,247.8z"/>
	<path class="st12" d="M997.9,247.8c0.9,0,1.6-0.7,1.6-1.6s-0.7-1.6-1.6-1.6s-1.6,0.7-1.6,1.6S997,247.8,997.9,247.8z"/>
	<path class="st12" d="M1004.2,247.8c0.9,0,1.6-0.7,1.6-1.6s-0.7-1.6-1.6-1.6s-1.6,0.7-1.6,1.6S1003.3,247.8,1004.2,247.8z"/>
	<path class="st12" d="M1010.3,247.8c0.9,0,1.6-0.7,1.6-1.6s-0.7-1.6-1.6-1.6s-1.6,0.7-1.6,1.6S1009.5,247.8,1010.3,247.8z"/>
	<path class="st12" d="M1016.7,247.8c0.9,0,1.6-0.7,1.6-1.6s-0.7-1.6-1.6-1.6s-1.6,0.7-1.6,1.6S1015.8,247.8,1016.7,247.8z"/>
	<path class="st12" d="M1023,247.8c0.9,0,1.6-0.7,1.6-1.6s-0.7-1.6-1.6-1.6s-1.6,0.7-1.6,1.6S1022.1,247.8,1023,247.8L1023,247.8z"
		/>
	<path class="st12" d="M1029.1,247.8c0.9,0,1.6-0.7,1.6-1.6s-0.7-1.6-1.6-1.6s-1.6,0.7-1.6,1.6S1028.2,247.8,1029.1,247.8z"/>
	<path class="st12" d="M1035.4,247.8c0.9,0,1.6-0.7,1.6-1.6s-0.7-1.6-1.6-1.6s-1.6,0.7-1.6,1.6S1034.5,247.8,1035.4,247.8z"/>
	<path class="st12" d="M1041.7,247.8c0.9,0,1.6-0.7,1.6-1.6s-0.7-1.6-1.6-1.6s-1.6,0.7-1.6,1.6S1040.8,247.8,1041.7,247.8z"/>
	<path class="st12" d="M991.6,253.1c0.9,0,1.6-0.7,1.6-1.6s-0.7-1.6-1.6-1.6s-1.6,0.7-1.6,1.6S990.7,253.1,991.6,253.1z"/>
	<path class="st12" d="M997.9,253.1c0.9,0,1.6-0.7,1.6-1.6s-0.7-1.6-1.6-1.6s-1.6,0.7-1.6,1.6S997,253.1,997.9,253.1z"/>
	<path class="st12" d="M1004.2,253.1c0.9,0,1.6-0.7,1.6-1.6s-0.7-1.6-1.6-1.6s-1.6,0.7-1.6,1.6S1003.3,253.1,1004.2,253.1z"/>
	<path class="st12" d="M1010.3,253.1c0.9,0,1.6-0.7,1.6-1.6s-0.7-1.6-1.6-1.6s-1.6,0.7-1.6,1.6S1009.5,253.1,1010.3,253.1z"/>
	<path class="st12" d="M1016.7,253.1c0.9,0,1.6-0.7,1.6-1.6s-0.7-1.6-1.6-1.6s-1.6,0.7-1.6,1.6S1015.8,253.1,1016.7,253.1z"/>
	<path class="st12" d="M1023,253.1c0.9,0,1.6-0.7,1.6-1.6s-0.7-1.6-1.6-1.6s-1.6,0.7-1.6,1.6S1022.1,253.1,1023,253.1L1023,253.1z"
		/>
	<path class="st12" d="M1029.1,253.1c0.9,0,1.6-0.7,1.6-1.6s-0.7-1.6-1.6-1.6s-1.6,0.7-1.6,1.6S1028.2,253.1,1029.1,253.1z"/>
	<path class="st12" d="M1035.4,253.1c0.9,0,1.6-0.7,1.6-1.6s-0.7-1.6-1.6-1.6s-1.6,0.7-1.6,1.6S1034.5,253.1,1035.4,253.1z"/>
	<path class="st12" d="M1041.7,253.1c0.9,0,1.6-0.7,1.6-1.6s-0.7-1.6-1.6-1.6s-1.6,0.7-1.6,1.6S1040.8,253.1,1041.7,253.1z"/>
	<path class="st12" d="M991.6,258.5c0.9,0,1.6-0.7,1.6-1.6s-0.7-1.6-1.6-1.6s-1.6,0.7-1.6,1.6S990.7,258.5,991.6,258.5z"/>
	<path class="st12" d="M997.9,258.5c0.9,0,1.6-0.7,1.6-1.6s-0.7-1.6-1.6-1.6s-1.6,0.7-1.6,1.6S997,258.5,997.9,258.5z"/>
	<path class="st12" d="M1004.2,258.5c0.9,0,1.6-0.7,1.6-1.6s-0.7-1.6-1.6-1.6s-1.6,0.7-1.6,1.6S1003.3,258.5,1004.2,258.5z"/>
	<path class="st12" d="M1010.3,258.5c0.9,0,1.6-0.7,1.6-1.6s-0.7-1.6-1.6-1.6s-1.6,0.7-1.6,1.6S1009.5,258.5,1010.3,258.5z"/>
	<path class="st12" d="M1016.7,258.5c0.9,0,1.6-0.7,1.6-1.6s-0.7-1.6-1.6-1.6s-1.6,0.7-1.6,1.6S1015.8,258.5,1016.7,258.5z"/>
	<path class="st12" d="M1023,258.5c0.9,0,1.6-0.7,1.6-1.6s-0.7-1.6-1.6-1.6s-1.6,0.7-1.6,1.6S1022.1,258.5,1023,258.5L1023,258.5z"
		/>
	<path class="st12" d="M1029.1,258.5c0.9,0,1.6-0.7,1.6-1.6s-0.7-1.6-1.6-1.6s-1.6,0.7-1.6,1.6S1028.2,258.5,1029.1,258.5z"/>
	<path class="st12" d="M1035.4,258.5c0.9,0,1.6-0.7,1.6-1.6s-0.7-1.6-1.6-1.6s-1.6,0.7-1.6,1.6S1034.5,258.5,1035.4,258.5z"/>
	<path class="st12" d="M1041.7,258.5c0.9,0,1.6-0.7,1.6-1.6s-0.7-1.6-1.6-1.6s-1.6,0.7-1.6,1.6S1040.8,258.5,1041.7,258.5z"/>
</g>
</svg>
