<?xml version="1.0" encoding="UTF-8"?><svg id="Layer_1" xmlns="http://www.w3.org/2000/svg" xmlns:xlink="http://www.w3.org/1999/xlink" viewBox="0 0 690.63 458.91"><defs><style>.cls-1{fill:url(#linear-gradient);}.cls-2{fill:#f9aa85;}.cls-3{fill:#010101;}.cls-4,.cls-5{fill:#ee3e95;}.cls-6{fill:#ee264b;}.cls-7{fill:#ec9f79;}.cls-8{fill:#fff;}.cls-9{fill:#ffcb05;}.cls-10{fill:#e6ddee;}.cls-11{fill:#fed402;}.cls-12{fill:#66c3a0;}.cls-13{fill:#aea7bf;}.cls-14{fill:#1d102c;}.cls-15{fill:#a4519f;}.cls-16{fill:#481e54;}.cls-5{stroke:#fff;}.cls-5,.cls-17{stroke-width:.2px;}.cls-5,.cls-18{stroke-miterlimit:10;}.cls-17{stroke:#010101;stroke-linecap:round;stroke-linejoin:round;}.cls-17,.cls-18{fill:none;}.cls-19{fill:url(#linear-gradient-8);}.cls-20{fill:url(#linear-gradient-9);}.cls-21{fill:url(#linear-gradient-3);}.cls-22{fill:url(#linear-gradient-4);}.cls-23{fill:url(#linear-gradient-2);}.cls-24{fill:url(#linear-gradient-6);}.cls-25{fill:url(#linear-gradient-7);}.cls-26{fill:url(#linear-gradient-5);}.cls-27{fill:url(#linear-gradient-14);}.cls-28{fill:url(#linear-gradient-18);}.cls-29{fill:url(#linear-gradient-22);}.cls-30{fill:url(#linear-gradient-20);}.cls-31{fill:url(#linear-gradient-21);}.cls-32{fill:url(#linear-gradient-23);}.cls-33{fill:url(#linear-gradient-15);}.cls-34{fill:url(#linear-gradient-19);}.cls-35{fill:url(#linear-gradient-16);}.cls-36{fill:url(#linear-gradient-17);}.cls-37{fill:url(#linear-gradient-13);}.cls-38{fill:url(#linear-gradient-12);}.cls-39{fill:url(#linear-gradient-10);}.cls-40{fill:url(#linear-gradient-11);}.cls-18{stroke:#bcbec0;stroke-width:.47px;}</style><linearGradient id="linear-gradient" x1="690.63" y1="229.82" x2="0" y2="229.82" gradientTransform="translate(0 459.27) scale(1 -1)" gradientUnits="userSpaceOnUse"><stop offset="0" stop-color="#003246"/><stop offset="1" stop-color="#09202a"/></linearGradient><linearGradient id="linear-gradient-2" x1="327.93" y1="214.23" x2="620.82" y2="292.74" gradientTransform="translate(0 2)" gradientUnits="userSpaceOnUse"><stop offset=".13" stop-color="#004059"/><stop offset="1" stop-color="#09202a"/></linearGradient><linearGradient id="linear-gradient-3" x1="403.16" y1="172.44" x2="487.7" y2="172.44" gradientTransform="translate(0 2)" gradientUnits="userSpaceOnUse"><stop offset="0" stop-color="#46b978"/><stop offset="1" stop-color="#4bc1e0"/></linearGradient><linearGradient id="linear-gradient-4" x1="432.17" y1="170.17" x2="453.49" y2="170.17" gradientTransform="translate(0 2)" gradientUnits="userSpaceOnUse"><stop offset="0" stop-color="#0d212a"/><stop offset="1" stop-color="#003848"/></linearGradient><linearGradient id="linear-gradient-5" x1="365.07" y1="223.77" x2="449.6" y2="223.77" gradientTransform="translate(0 2)" gradientUnits="userSpaceOnUse"><stop offset="0" stop-color="#0172ac"/><stop offset="1" stop-color="#61a1cc"/></linearGradient><linearGradient id="linear-gradient-6" x1="394.69" y1="222.1" x2="411.52" y2="222.1" xlink:href="#linear-gradient-4"/><linearGradient id="linear-gradient-7" x1="408.65" y1="220.62" x2="421.44" y2="220.62" xlink:href="#linear-gradient-4"/><linearGradient id="linear-gradient-8" x1="542.65" y1="196.66" x2="590.03" y2="196.66" xlink:href="#linear-gradient-3"/><linearGradient id="linear-gradient-9" x1="585.32" y1="281.63" x2="594.49" y2="281.63" xlink:href="#linear-gradient-4"/><linearGradient id="linear-gradient-10" x1="533.69" y1="267.27" x2="550.06" y2="267.27" xlink:href="#linear-gradient-4"/><linearGradient id="linear-gradient-11" x1="415.4" y1="225.26" x2="499.93" y2="225.26" xlink:href="#linear-gradient-3"/><linearGradient id="linear-gradient-12" x1="444.85" y1="223.26" x2="463.08" y2="223.26" xlink:href="#linear-gradient-4"/><linearGradient id="linear-gradient-13" x1="497.42" y1="322.41" x2="581.96" y2="322.41" gradientTransform="translate(0 2)" gradientUnits="userSpaceOnUse"><stop offset="0" stop-color="#e94b57"/><stop offset="1" stop-color="#ec764d"/></linearGradient><linearGradient id="linear-gradient-14" x1="468.24" y1="257.02" x2="507.11" y2="257.02" xlink:href="#linear-gradient-4"/><linearGradient id="linear-gradient-15" x1="478.33" y1="278.85" x2="520.72" y2="278.85" xlink:href="#linear-gradient-13"/><linearGradient id="linear-gradient-16" x1="476.02" y1="282.01" x2="486.22" y2="282.01" xlink:href="#linear-gradient-13"/><linearGradient id="linear-gradient-17" x1="482.67" y1="243.84" x2="507.03" y2="243.84" xlink:href="#linear-gradient-4"/><linearGradient id="linear-gradient-18" x1="384.7" y1="324.95" x2="441.45" y2="324.95" xlink:href="#linear-gradient-3"/><linearGradient id="linear-gradient-19" x1="387.74" y1="316.13" x2="421.29" y2="316.13" xlink:href="#linear-gradient-4"/><linearGradient id="linear-gradient-20" x1="397.32" y1="316.2" x2="421.29" y2="316.2" xlink:href="#linear-gradient-13"/><linearGradient id="linear-gradient-21" x1="407.56" y1="332.25" x2="413.21" y2="332.25" xlink:href="#linear-gradient-13"/><linearGradient id="linear-gradient-22" x1="385.61" y1="266.94" x2="398.2" y2="266.94" xlink:href="#linear-gradient-13"/><linearGradient id="linear-gradient-23" x1="506.97" y1="168.67" x2="523.69" y2="168.67" gradientTransform="translate(0 2)" gradientUnits="userSpaceOnUse"><stop offset="0" stop-color="#f3a71d"/><stop offset="1" stop-color="#fed925"/></linearGradient></defs><rect class="cls-1" width="690.63" height="458.91"/><g><path class="cls-23" d="M472.25,114.81c49.75-10.88,108.63,4.9,145.36,48.37,45.89,54.39,45.23,137.9,0,193.8-41.46,51.1-111.02,68-169.62,48.37-5.11-1.69-77.19-27.05-96.75-96.75-22.88-80.61,36.94-175.56,121-193.8h0Z"/><path class="cls-18" d="M493.91,304.11c60,0,108.64-22.98,108.64-51.33s-48.64-51.33-108.64-51.33-108.64,22.98-108.64,51.33,48.64,51.33,108.64,51.33h0Z"/><path class="cls-21" d="M485.1,162.63l-79.34,45.86c-.84,.46-1.85,.18-2.32-.65-.18-.28-.28-.56-.28-.84v-16.21c0-1.94,1.02-3.71,2.69-4.63l79.34-45.77c.84-.46,1.85-.18,2.32,.65,.18,.28,.18,.56,.18,.84v16.12c.09,1.94-.92,3.71-2.59,4.63h0Z"/><path class="cls-8" d="M427.54,191.07l-16.96,9.73c-1.2,.74-2.23,.28-2.23-.92v-7.6c.18-1.39,.92-2.69,2.23-3.43l16.96-9.73c1.2-.74,2.22-.28,2.22,.92v7.6c-.18,1.39-1.02,2.69-2.22,3.43Z"/><path class="cls-22" d="M452.29,168.28l-18.91,10.84c-.65,.37-1.2,.18-1.2-.56v-.56c.09-.84,.56-1.58,1.2-1.94l18.91-10.84c.65-.37,1.2-.18,1.2,.56v.56c0,.74-.46,1.48-1.2,1.94Z"/><path class="cls-8" d="M479.26,157.62l-46.07,26.5c-.56,.28-1.02,.09-1.02-.46,.09-.65,.46-1.3,1.02-1.58l46.07-26.59c.56-.28,1.02-.09,1.02,.46-.09,.65-.46,1.3-1.02,1.67Z"/><path class="cls-8" d="M463.13,169.94l-30.03,17.33c-.56,.28-.92,.09-.92-.37,.09-.65,.37-1.2,.92-1.48l30.03-17.42c.56-.28,.92-.09,.92,.37,0,.65-.37,1.2-.92,1.58h0Z"/><path class="cls-26" d="M446.91,214.05l-79.34,45.77c-.84,.46-1.85,.18-2.32-.65-.18-.28-.18-.56-.18-.84v-16.21c0-1.94,1.02-3.71,2.69-4.63l79.34-45.77c.84-.46,1.85-.18,2.32,.65,.18,.28,.18,.56,.18,.84v16.21c0,1.85-1.02,3.61-2.69,4.63h0Z"/><path class="cls-8" d="M389.91,241.85l-16.96,9.82c-1.2,.65-2.23,.28-2.23-.92v-7.69c.18-1.39,.92-2.69,2.23-3.43l16.96-9.82c1.2-.74,2.23-.28,2.23,.92v7.6c-.18,1.48-1.02,2.78-2.23,3.52Z"/><path class="cls-24" d="M410.02,221.65l-13.81,7.97c-.84,.46-1.48,.18-1.48-.65,.09-1.02,.65-1.85,1.48-2.41l13.81-7.97c.84-.46,1.48-.18,1.48,.65-.09,1.02-.65,1.95-1.48,2.41h0Z"/><path class="cls-8" d="M406.31,228.69l-10.75,6.21c-.56,.28-1.02,.09-1.02-.46,.09-.65,.46-1.3,1.02-1.58l10.75-6.21c.56-.28,1.02-.09,1.02,.46-.09,.65-.46,1.2-1.02,1.58Z"/><path class="cls-25" d="M420.4,220.54l-10.75,6.21c-.56,.28-1.02,.09-1.02-.46,.09-.65,.46-1.3,1.02-1.58l10.75-6.21c.56-.28,1.02-.09,1.02,.46-.09,.65-.46,1.2-1.02,1.58Z"/><path class="cls-8" d="M425.5,220.72l-30.03,17.33c-.56,.28-.93,.09-.93-.37,.09-.65,.37-1.2,.93-1.48l30.03-17.33c.56-.28,.92-.09,.92,.37-.09,.56-.37,1.11-.92,1.48Z"/><path class="cls-8" d="M439.22,212.75l-9.73,5.65c-.56,.28-.93,.09-.93-.37,.09-.65,.37-1.2,.93-1.48l9.73-5.65c.56-.28,.92-.09,.92,.37-.09,.65-.37,1.2-.92,1.48h0Z"/><path class="cls-19" d="M586.22,238.6l-39.77-22.98c-2.23-1.48-3.61-3.89-3.8-6.58v-48.18c0-2.41,1.76-3.34,3.8-2.13l39.77,22.98c2.23,1.48,3.71,3.89,3.8,6.58v48.18c.09,2.32-1.67,3.34-3.8,2.13h0Z"/><path class="cls-15" d="M595.77,212.01v-13.34l-40.23-23.26v13.34c.09,1.85,1.11,3.52,2.69,4.54l34.94,20.2c1.48,.84,2.59,.18,2.59-1.48Z"/><path class="cls-15" d="M555.54,162.63v13.34l40.32,23.26v-13.34c-.09-1.85-1.11-3.52-2.59-4.54l-35.04-20.2c-1.48-.84-2.69-.18-2.69,1.48h0Z"/><path class="cls-9" d="M563.06,211.64l-14.46-8.34c-.92-.65-1.58-1.67-1.67-2.78,0-1.02,.74-1.48,1.67-.92l14.46,8.34c.93,.65,1.58,1.67,1.67,2.78,0,1.02-.74,1.39-1.67,.92h0Z"/><path class="cls-8" d="M580.94,226.56l-32.91-18.99c-.65-.37-1.02-1.11-1.11-1.85,0-.65,.46-.92,1.11-.65l32.91,18.99c.65,.37,1.02,1.11,1.11,1.85,0,.65-.46,1.02-1.11,.65Z"/><path class="cls-8" d="M573.43,226l-25.4-14.64c-.65-.37-1.02-1.11-1.02-1.85v-.09c0-.65,.46-.92,1.02-.65l25.4,14.64c.65,.37,1.02,1.11,1.02,1.85v.18c0,.65-.46,.92-1.02,.56h0Z"/><path class="cls-13" d="M565.83,275.02h19.47v29.74h-19.47c-1.3,0-2.32-1.02-2.32-2.32v-25.11c0-1.3,1.02-2.32,2.32-2.32Z"/><path class="cls-10" d="M565.83,274.28h19.47v29.74h-19.47c-1.3,0-2.32-1.02-2.32-2.32v-25.2c0-1.2,1.11-2.22,2.32-2.22h0Z"/><path class="cls-13" d="M585.76,304.76l8.62-12.69c.56-.84,.84-1.76,.84-2.78v-25.11c0-.92-1.85-1.39-2.41-.65l-7.51,40.49v.74h.46Z"/><path class="cls-20" d="M585.3,304.01l8.34-11.95c.56-.84,.84-1.76,.84-2.78v-25.11c0-.56-.46-1.02-1.02-.92-.28,0-.56,.18-.74,.37l-7.42,10.66v29.74h0Z"/><path class="cls-15" d="M586.22,275.3v25.2l7.32-10.47v-25.2l-7.32,10.47Z"/><path class="cls-13" d="M572.51,276.87h9.09c.74,0,1.3,.56,1.3,1.3v21.59c0,.74-.56,1.3-1.3,1.3h-9.09c-.74,0-1.3-.56-1.3-1.3v-21.59c0-.74,.56-1.3,1.3-1.3h0Z"/><path class="cls-13" d="M566.21,285.58h2.59c.18,0,.37,.18,.37,.37v6.21c0,.18-.18,.37-.37,.37h-2.59c-.18,0-.37-.18-.37-.37v-6.21c0-.28,.09-.37,.37-.37Z"/><path class="cls-13" d="M549.98,267.88l-5.01-2.87c-.46-.18-.92-.18-1.39,0l-10.94,6.3h-.37v.46c0,.18,.09,.28,.28,.37l5.19,2.97c.46,.18,.93,.18,1.39,0l11.03-6.39c.18-.09,.28-.18,.28-.37v-.56l-.46,.09h0Z"/><path class="cls-10" d="M537.75,274.64l-5.19-2.96c-.18-.09-.37-.28-.28-.56,0-.09,.18-.28,.28-.28l11.03-6.39c.46-.18,.92-.18,1.39,0l5.19,2.96c.18,.09,.37,.28,.28,.56,0,.09-.18,.28-.28,.28l-11.03,6.39c-.46,.18-.92,.18-1.39,0h0Z"/><path class="cls-16" d="M550.08,268.62l-9.83,5.65v-.28l3.8-3.33,6.02-2.32v.28h0Z"/><path class="cls-14" d="M536.17,273.07l-.92-.56c-.18-.09-.18-.28,0-.37s.46-.09,.65,0l.92,.56c.18,.09,.18,.28,0,.37-.18,.09-.46,.09-.65,0h0Z"/><path class="cls-39" d="M543.5,264.54l-9.83,5.65,6.58,3.8,9.83-5.65-6.58-3.8Z"/><path class="cls-15" d="M543.5,264.54l-9.83,5.65,16.41-1.85-6.58-3.8Z"/><path class="cls-40" d="M497.24,215.53l-79.34,45.77c-.84,.46-1.85,.18-2.32-.65-.18-.28-.18-.56-.18-.84v-16.21c0-1.94,1.02-3.71,2.69-4.63l79.34-45.77c.84-.46,1.85-.18,2.32,.65,.18,.28,.18,.56,.18,.84v16.12c0,2.04-1.02,3.8-2.69,4.73h0Z"/><path class="cls-8" d="M440.24,243.33l-16.96,9.82c-1.2,.74-2.22,.28-2.22-.92v-7.6c.18-1.39,.92-2.69,2.22-3.43l16.96-9.82c1.2-.74,2.23-.28,2.23,.92v7.6c-.18,1.39-1.02,2.69-2.23,3.43h0Z"/><path class="cls-38" d="M461.56,222.48l-15.2,8.71c-.84,.46-1.48,.18-1.48-.65,.09-1.02,.65-1.85,1.48-2.41l15.2-8.8c.84-.46,1.48-.18,1.48,.65-.09,1.11-.65,1.94-1.48,2.5h0Z"/><path class="cls-8" d="M470.92,221.92l-25.03,14.45c-.56,.28-1.02,.09-1.02-.46,.09-.65,.46-1.3,1.02-1.58l25.03-14.45c.56-.28,1.02-.09,1.02,.46-.09,.65-.46,1.3-1.02,1.58Z"/><path class="cls-8" d="M475.83,222.2l-30.03,17.33c-.56,.28-.92,.09-.92-.37,.09-.65,.37-1.2,.92-1.48l30.03-17.33c.56-.28,.92-.09,.92,.37-.09,.65-.46,1.2-.92,1.48Z"/><path class="cls-6" d="M551.75,354.89s11.87-5.93,14.18-17.05c1.02-5.19,13.07-13.43,16.04-18.16l-22.06,4.54-16.31,14.27,8.16,16.4Z"/><path class="cls-2" d="M592.99,351.46c-2.32-.09-7.14-1.67-10.38-2.78-1.95-.65-3.52-2.04-4.45-3.89-3.71-7.32-13.81-22.42-18.54-29.56-11.13-14.36-38.93-20.94-38.93-20.94-1.3-.28-9.92-2.41-15.02-1.11,0,9.36,16.78,16.77,27.62,19.83s22.8,10.19,22.8,10.19c.92,4.73,6.02,16.03,9.27,17.97,3.25,1.95,9.64,8.71,9.64,8.71,1.3,1.2,1.39,3.61,2.23,4.45,.84,.84,3.25-.09,3.8-.46,1.02,0,2.13,.09,3.15,.18,.74,.09,3.06,1.85,4.17,2.04,1.39,.09,2.78-.09,4.17-.65,1.11-.46,4.17-3.8,.46-3.99h0Z"/><path class="cls-7" d="M571.49,333.48l-9.27-5.56c-1.11,1.3-2.04,2.69-2.97,4.17,1.02,2.13,2.13,4.27,3.43,6.21,3.8,0,7.6-.18,11.4-.65-.84-1.3-1.67-2.69-2.59-4.17h0Z"/><path class="cls-2" d="M504.01,302.91c-.18,2.13-.28,4.27-1.39,6.21s-4.08,9.36,4.08,13.99c8.16,4.63,18.54,5.19,23.82,5.37,5.1,.18,11.59,1.11,14.18,1.3,3.61,.37,7.14,1.2,10.47,2.5,8.16,3.15,16.87,4.82,25.67,5.01,3.15,.28,6.3,.92,9.36,1.94,.28,.92,1.3,2.13,3.89,2.04,4.17,.46,3.52,1.95,7.88,2.22,4.63,.37,8.16,.28,9.83-4.45,1.02-2.78-13.44-2.41-14.92-2.96-4.73-1.95-32.07-10.56-41.71-13.25-1.39-.92-2.69-.46-4.73-2.04-6.02-4.63-27.25-14.92-43.75-21.5-3.06,1.39-2.59,2.59-2.69,3.61h0Z"/><path class="cls-37" d="M504.01,302.91s-6.4,5.75-6.58,13.99c-.28,10.84,15.76,18.81,26.51,23.07,10.75,4.27,22.16,7.97,27.81,14.83,0-7.6,5.47-11.77,10.29-13.99s4.45-10.38,7.14-13.06c3.06-3.06,10.94-6.86,12.79-8.06-27.44-6.67-27.81-21.31-61.27-25.39-15.2-1.76-15.38,5.37-16.68,8.62h0Z"/><path class="cls-27" d="M493.07,234.71s-10.94,2.04-17.61,19.74c-3.06,8.06-1.11,14.83-3.25,18.25-2.13,3.43-5.65,5.28-3.06,8.34s13.25,2.78,18.73,.74c5.47-2.04,13.26-5.01,12.14-10.66s5.65-5.37,7.04-10.75c.46-1.94-2.69-13.99-6.12-16.31s-7.88-9.36-7.88-9.36Z"/><path class="cls-2" d="M504.66,259.08s1.39-5.01,6.21-3.33c4.82,1.67,1.67,13.43,1.58,24.74-.09,11.3-4.54,11.02-4.54,11.02l-4.45-26.22,1.2-6.21h0Z"/><path class="cls-6" d="M508.46,264.27l-3.8,8.34,.18,.84,7.97,.37c.37-4.45,.84-8.62,.84-11.86-.74,1.67-5.19,2.32-5.19,2.32h0Z"/><path class="cls-33" d="M478.52,278.72s-1.48-5.28,3.8-7.23c5.28-1.94,18.91-7.97,22.34-12.51,.09,1.39,.65,2.69,1.48,3.8,.46,.56,1.85,.74,2.41,1.39,1.67,1.85,3.71,3.24,6.02,4.26,4.27,1.76,3.52,7.88,1.11,10.56,3.06,3.43,5.19,13.25,5.1,15.19-2.13,3.33-10.85,8.06-16.68,8.52-.92-4.26-10.47-12.14-13.62-14.73-2.13-1.48-5.84-4.73-11.95-9.26h-.01Z"/><path class="cls-6" d="M480.47,275.76c-2.41,2.32-1.95,2.97-1.95,2.97,6.12,4.54,9.27,8.06,11.31,9.73,3.15,2.59,13.35,10.19,14.18,14.45-.37-6.58-20.12-23.81-23.54-27.15h0Z"/><path class="cls-2" d="M480.74,272.33c-7.42,2.32-2.87,33.54-5.1,35.77-2.22,2.22-10.66,13.06-10.66,13.06-5.56-.92-8.9,.56-11.21,2.04s3.89,1.48,3.89,1.48h9.45c1.02,0,2.04-.46,2.78-1.2,2.97-3.06,10.75-11.12,12.14-13.16,1.67-2.59,2.97-19.55,2.97-28.91s-4.27-9.08-4.27-9.08h0Z"/><path class="cls-2" d="M503.54,272.98c4.73-4.45,3.99-6.49,5.01-8.62-1.48-1.58-2.78-3.33-3.89-5.19-3.43,4.54-17.05,10.56-22.34,12.51-5.28,1.95-3.8,7.23-3.8,7.23,0,0,17.43,1.11,25.03-5.93h0Z"/><path class="cls-35" d="M486.21,278.63c-2.97,.28-6.02,.09-8.9-.46v-.09l-.09,.09c-.74,3.71-1.11,7.41-1.11,11.12,0,0,6.02-.84,8.9,.65,.28-3.89,.92-5.83,1.2-8.52v-2.78h0Z"/><path class="cls-2" d="M504.29,266.3l-2.32-.92s-1.58-2.04-2.87-7.32c-1.3-5.28-6.49-.74-6.49-.74,0,0,.37,2.59-1.3,10.1-1.67,7.51,9.08,2.78,9.08,2.78l3.89-3.89h0Z"/><path class="cls-7" d="M493.25,256.86c1.48-1.02,4.91-3.06,5.84,1.02,.46,2.13,1.11,4.17,1.95,6.11-4.91-.37-7.04-5.01-7.78-7.13h0Z"/><path class="cls-2" d="M500.58,259.63c2.13,.18,4.08-1.02,4.91-2.96,.46-1.11,.65-2.32,.65-3.52,.09-5.93-1.2-10.84-4.45-13.25s-6.21-2.96-7.78-2.13c-1.58,.84-10.11,2.78-10.29,5.75-.18,2.97,5.84,11.49,8.9,13.9,2.23,1.58,5.93,2.04,8.06,2.22h0Z"/><path class="cls-36" d="M504.29,237.59c1.3,1.02,2.23,2.5,2.69,4.17,.46,2.13-.28,4.27-5.65,6.58-7.14,3.06-7.04,5.19-6.86,6.85l-3.06-4.54,1.3,6.76s-6.58-1.85-7.7-4.45c-1.11-2.59-3.06-6.58-1.95-10.01,1.11-3.43,7.23-7.78,11.49-8.52,3.06-.74,7.14,1.11,9.73,3.15h0Z"/><path class="cls-2" d="M492.24,252.59c1.02,1.11,1.3,2.5,.65,3.15-.65,.65-2.13,.28-3.15-.84s-1.3-2.59-.56-3.24c.74-.65,1.95-.18,3.06,.92h0Z"/><path class="cls-28" d="M436.34,366.37l-48.01-27.15c-2.32-1.3-4.27-4.35-4.27-6.67l.09-43.27c0-2.32,1.95-3.15,4.27-1.76l48.01,27.24c2.32,1.3,4.27,4.35,4.27,6.67l-.09,43.27c0,2.22-1.94,3.06-4.27,1.67h0Z"/><path class="cls-34" d="M417.8,343.49l-28-15.85c-1.48-.84-2.69-4.35-2.69-5.83v-27.79c0-1.48,1.2-1.95,2.69-1.11l28,15.93c1.48,.92,2.5,2.41,2.69,4.17v28.81c0,1.39-1.2,2.5-2.69,1.67Z"/><path class="cls-9" d="M396.93,314.3c2.72-.89,3.61-5.64,1.98-10.6-1.63-4.96-5.16-8.25-7.88-7.36s-3.61,5.64-1.98,10.6c1.63,4.96,5.16,8.25,7.89,7.36h0Z"/><path class="cls-11" d="M420.49,341.82v-14.45l-17.61-10.01v17.7l15.38,8.71c1.3,.74,2.22-.18,2.22-1.94h0Z"/><path class="cls-9" d="M434.31,335.89l-9.09-5.19c-.56-.28-.84-.84-.92-1.48v-.46c0-.56,.46-.65,.92-.37l9.09,5.19c.56,.28,.84,.84,.92,1.48v.46c0,.46-.37,.65-.92,.37h0Z"/><path class="cls-8" d="M434.59,348.21l-11.59-6.58c-.56-.28-.84-.84-.92-1.39v-.37c0-.46,.37-.65,.92-.37l11.59,6.58c.56,.28,.84,.84,.92,1.39v.37c0,.56-.46,.74-.92,.37Z"/><path class="cls-8" d="M434.59,344.6l-11.59-6.58c-.56-.28-.84-.84-.92-1.39v-.37c0-.46,.37-.65,.92-.37l11.59,6.58c.56,.28,.84,.84,.92,1.39v.37c0,.46-.46,.65-.92,.37h0Z"/><path class="cls-8" d="M434.59,340.98l-11.59-6.58c-.56-.28-.84-.84-.92-1.39v-.37c0-.46,.37-.65,.92-.37l11.59,6.58c.56,.28,.84,.84,.92,1.39v.37c0,.46-.46,.65-.92,.37h0Z"/><path class="cls-30" d="M396.67,314.3l5.37,3.24,18.54,10.47v-9.17l-18.45-10.47-5.47,5.93h0Z"/><path class="cls-31" d="M412.25,331.07l-5.19-2.97c-.09-.09-.18,0-.18,.18v8.99l5.66,3.15v-8.99c0-.09-.09-.28-.28-.37h0Z"/><path class="cls-12" d="M392.78,324.77c0-1.67-.84-3.15-2.04-4.27-.18-.92-.74-1.76-1.58-2.32-.46-.28-1.02-.18-1.39,.18,0,.09-.09,.09-.09,.18-.09-.09-.18-.18-.28-.18-.09-.09-.18-.09-.28-.09v4.54c0,1.76,.74,3.43,2.22,4.54l4.08,2.32c.28-.46,.46-1.11,.46-1.67-.09-1.2-.46-2.32-1.11-3.24h.01Z"/><path class="cls-12" d="M397.32,329.96c0-.84-.46-1.67-1.11-2.22-.09-.46-.37-.92-.84-1.2-.28-.18-.56-.09-.74,.09,0,0,0,.09-.09,.09l-.18-.09c-.56-.28-.92,.09-.92,.84,0,.28,0,.46,.09,.74-.28,0-.46,.37-.46,.92v.46l4.54,2.59c0-.18,.09-.28,.09-.46,.09-.65-.09-1.2-.37-1.76h0Z"/><path class="cls-9" d="M417.25,348.77l-29.1-16.49c-.65-.37-1.02-1.02-1.11-1.76v-.46c0-.56,.46-.84,1.11-.46l29.1,16.49c.65,.37,1.02,1.02,1.11,1.76v.46c0,.65-.46,.84-1.11,.46Z"/><path class="cls-9" d="M409.18,347.47l-21.32-12.14c-.46-.28-.74-.65-.74-1.2v-.28c0-.37,.37-.56,.74-.28l21.32,12.14c.46,.28,.74,.65,.74,1.2v.37c0,.28-.37,.46-.74,.18h0Z"/><path class="cls-9" d="M617.19,220.9c4.63,2.69,8.34,9.08,8.34,14.45s-3.8,7.41-8.34,4.82c-4.54-2.59-8.34-9.08-8.34-14.45s3.71-7.51,8.34-4.82Z"/><path class="cls-8" d="M621.61,237.79c.43-.27-1.44-4-4.2-8.32-2.75-4.32-5.32-7.59-5.76-7.32-.43,.27,1.44,4,4.19,8.32,2.75,4.32,5.32,7.59,5.76,7.32h0Z"/><path class="cls-8" d="M620.71,227.39l-5.93-.46-3.06,4.27,.46,.92,8.99-3.89-.46-.84h0Z"/><path class="cls-8" d="M622.66,235.45l-2.78-.37-1.39,2.04,.56,.92,4.17-1.85-.56-.74h0Z"/><path class="cls-9" d="M391.95,259.27c4.63,2.69,8.34,9.17,8.34,14.45s-3.8,7.41-8.34,4.73c-4.54-2.69-8.34-9.08-8.34-14.45s3.71-7.32,8.34-4.73Z"/><path class="cls-29" d="M385.64,264.18c.09-1.85,1.67-2.5,3.61-1.48,1.11,.56,1.95,1.39,2.69,2.41,.92-.18,1.95,.09,2.69,.65,1.95,1.3,3.25,3.33,3.61,5.65,0,.46,0,.84-.18,1.3-.18,.56-.74,1.02-1.3,1.11-1.11,.18-4.17,.84-4.63,1.85h-.09c-.09,0-.09-.09-.18-.09l-.09-.09c-.46-1.58-3.52-5.65-4.63-7.23-.56-.74-1.02-1.67-1.3-2.59-.18-.56-.28-1.02-.18-1.48h0Z"/><path class="cls-32" d="M515.32,161.05c-4.63,2.69-8.34,9.08-8.34,14.45s3.8,7.41,8.44,4.82,8.34-9.08,8.34-14.45-3.8-7.51-8.44-4.82Z"/><path class="cls-8" d="M516.15,165.22c-3.15,1.85-5.84,5.09-5.84,7.23-.09,.92,.65,1.76,1.58,1.76h.18l-1.02,3.06c0,.06,.03,.06,.09,0l3.52-3.61c.46-.18,1.02-.46,1.48-.74,3.25-1.85,5.84-5.09,5.84-7.23s-2.69-2.32-5.84-.46h0Zm-3.43,6.76c-.56,.28-1.02,.09-1.02-.46,.09-.65,.46-1.2,1.02-1.58,.56-.28,1.02-.09,1.02,.46-.09,.65-.46,1.2-1.02,1.58Zm3.34-1.95c-.56,.28-1.02,.09-1.02-.46,.09-.65,.46-1.2,1.02-1.58,.56-.28,1.02-.09,1.02,.46-.09,.65-.46,1.2-1.02,1.58Zm3.34-1.85c-.56,.28-1.02,.09-1.02-.46,.09-.65,.46-1.2,1.02-1.58,.56-.28,1.02-.09,1.02,.46-.09,.56-.46,1.2-1.02,1.58Z"/><path class="cls-15" d="M592.62,212.1l-33.65-20.85c-1.76-1.3-2.87-3.24-2.97-5.37l-.37-21.4c0-1.95,1.2-2.78,2.87-1.76l33.65,20.85c1.76,1.3,2.78,3.24,2.97,5.37l.37,21.4c0,1.95-1.3,2.69-2.87,1.76Z"/><path class="cls-17" d="M558.79,166.24l2.59,4.91"/><path class="cls-17" d="M558.79,169.48l2.59-1.58"/><path class="cls-4" d="M575.38,182.55c2.04-5.65,9.73,6.39,12.42,12.88-1.76,2.22-5.75,5.28-12.14,1.39-6.4-3.89-10.57-11.95-12.51-16.49,2.5-3.15,9.83-6.11,12.23,2.22Z"/><path class="cls-17" d="M584.1,193.57l-17.24-10.56"/><path class="cls-5" d="M571.12,182.92c-1.76-.46-2.97,.09-3.34,1.67l-1.48,7.04,4.91,4.54,1.48-7.04c.37-1.58-.28-3.89-1.58-6.21h0Z"/><path class="cls-3" d="M571.68,199.13l.74-3.43c.46-2.04-.74-5.09-2.59-6.76-1.85-1.76-3.71-1.58-4.17,.46l-1.11,5.28,7.14,4.45h0Z"/><path class="cls-13" d="M421.61,270.2c.56,0,1.02-.46,1.02-1.02s-.46-1.02-1.02-1.02-1.02,.46-1.02,1.02,.46,1.02,1.02,1.02Z"/><path class="cls-13" d="M425.5,270.2c.56,0,1.02-.46,1.02-1.02s-.46-1.02-1.02-1.02-1.02,.46-1.02,1.02,.46,1.02,1.02,1.02Z"/><path class="cls-13" d="M429.48,270.2c.56,0,1.02-.46,1.02-1.02s-.46-1.02-1.02-1.02-1.02,.46-1.02,1.02,.46,1.02,1.02,1.02Z"/><path class="cls-13" d="M433.47,270.2c.56,0,1.02-.46,1.02-1.02s-.46-1.02-1.02-1.02-1.02,.46-1.02,1.02,.46,1.02,1.02,1.02Z"/><path class="cls-13" d="M437.36,270.2c.56,0,1.02-.46,1.02-1.02s-.46-1.02-1.02-1.02-1.02,.46-1.02,1.02,.46,1.02,1.02,1.02Z"/><path class="cls-13" d="M441.35,270.2c.56,0,1.02-.46,1.02-1.02s-.46-1.02-1.02-1.02-1.02,.46-1.02,1.02,.46,1.02,1.02,1.02Z"/><path class="cls-13" d="M445.34,270.2c.56,0,1.02-.46,1.02-1.02s-.46-1.02-1.02-1.02-1.02,.46-1.02,1.02,.46,1.02,1.02,1.02Z"/><path class="cls-13" d="M449.32,270.2c.56,0,1.02-.46,1.02-1.02s-.46-1.02-1.02-1.02-1.02,.46-1.02,1.02,.46,1.02,1.02,1.02Z"/><path class="cls-13" d="M453.22,270.2c.56,0,1.02-.46,1.02-1.02s-.46-1.02-1.02-1.02-1.02,.46-1.02,1.02,.46,1.02,1.02,1.02Z"/><path class="cls-13" d="M421.61,273.53c.56,0,1.02-.46,1.02-1.02s-.46-1.02-1.02-1.02-1.02,.46-1.02,1.02,.46,1.02,1.02,1.02Z"/><path class="cls-13" d="M425.5,273.53c.56,0,1.02-.46,1.02-1.02s-.46-1.02-1.02-1.02-1.02,.46-1.02,1.02,.46,1.02,1.02,1.02Z"/><path class="cls-13" d="M429.48,273.53c.56,0,1.02-.46,1.02-1.02s-.46-1.02-1.02-1.02-1.02,.46-1.02,1.02,.46,1.02,1.02,1.02Z"/><path class="cls-13" d="M433.47,273.53c.56,0,1.02-.46,1.02-1.02s-.46-1.02-1.02-1.02-1.02,.46-1.02,1.02,.46,1.02,1.02,1.02Z"/><path class="cls-13" d="M437.36,273.53c.56,0,1.02-.46,1.02-1.02s-.46-1.02-1.02-1.02-1.02,.46-1.02,1.02,.46,1.02,1.02,1.02Z"/><path class="cls-13" d="M441.35,273.53c.56,0,1.02-.46,1.02-1.02s-.46-1.02-1.02-1.02-1.02,.46-1.02,1.02,.46,1.02,1.02,1.02Z"/><path class="cls-13" d="M445.34,273.53c.56,0,1.02-.46,1.02-1.02s-.46-1.02-1.02-1.02-1.02,.46-1.02,1.02,.46,1.02,1.02,1.02Z"/><path class="cls-13" d="M449.32,273.53c.56,0,1.02-.46,1.02-1.02s-.46-1.02-1.02-1.02-1.02,.46-1.02,1.02,.46,1.02,1.02,1.02Z"/><path class="cls-13" d="M453.22,273.53c.56,0,1.02-.46,1.02-1.02s-.46-1.02-1.02-1.02-1.02,.46-1.02,1.02,.46,1.02,1.02,1.02Z"/><path class="cls-13" d="M421.61,276.87c.56,0,1.02-.46,1.02-1.02s-.46-1.02-1.02-1.02-1.02,.46-1.02,1.02,.46,1.02,1.02,1.02Z"/><path class="cls-13" d="M425.5,276.87c.56,0,1.02-.46,1.02-1.02s-.46-1.02-1.02-1.02-1.02,.46-1.02,1.02,.46,1.02,1.02,1.02Z"/><path class="cls-13" d="M429.48,276.87c.56,0,1.02-.46,1.02-1.02s-.46-1.02-1.02-1.02-1.02,.46-1.02,1.02,.46,1.02,1.02,1.02Z"/><path class="cls-13" d="M433.47,276.87c.56,0,1.02-.46,1.02-1.02s-.46-1.02-1.02-1.02-1.02,.46-1.02,1.02,.46,1.02,1.02,1.02Z"/><path class="cls-13" d="M437.36,276.87c.56,0,1.02-.46,1.02-1.02s-.46-1.02-1.02-1.02-1.02,.46-1.02,1.02,.46,1.02,1.02,1.02Z"/><path class="cls-13" d="M441.35,276.87c.56,0,1.02-.46,1.02-1.02s-.46-1.02-1.02-1.02-1.02,.46-1.02,1.02,.46,1.02,1.02,1.02Z"/><path class="cls-13" d="M445.34,276.87c.56,0,1.02-.46,1.02-1.02s-.46-1.02-1.02-1.02-1.02,.46-1.02,1.02,.46,1.02,1.02,1.02Z"/><path class="cls-13" d="M449.32,276.87c.56,0,1.02-.46,1.02-1.02s-.46-1.02-1.02-1.02-1.02,.46-1.02,1.02,.46,1.02,1.02,1.02Z"/><path class="cls-13" d="M453.22,276.87c.56,0,1.02-.46,1.02-1.02s-.46-1.02-1.02-1.02-1.02,.46-1.02,1.02,.46,1.02,1.02,1.02Z"/><path class="cls-13" d="M421.61,280.3c.56,0,1.02-.46,1.02-1.02s-.46-1.02-1.02-1.02-1.02,.46-1.02,1.02,.46,1.02,1.02,1.02Z"/><path class="cls-13" d="M425.5,280.3c.56,0,1.02-.46,1.02-1.02s-.46-1.02-1.02-1.02-1.02,.46-1.02,1.02,.46,1.02,1.02,1.02Z"/><path class="cls-13" d="M429.48,280.3c.56,0,1.02-.46,1.02-1.02s-.46-1.02-1.02-1.02-1.02,.46-1.02,1.02,.46,1.02,1.02,1.02Z"/><path class="cls-13" d="M433.47,280.3c.56,0,1.02-.46,1.02-1.02s-.46-1.02-1.02-1.02-1.02,.46-1.02,1.02,.46,1.02,1.02,1.02Z"/><path class="cls-13" d="M437.36,280.3c.56,0,1.02-.46,1.02-1.02s-.46-1.02-1.02-1.02-1.02,.46-1.02,1.02,.46,1.02,1.02,1.02Z"/><path class="cls-13" d="M441.35,280.3c.56,0,1.02-.46,1.02-1.02s-.46-1.02-1.02-1.02-1.02,.46-1.02,1.02,.46,1.02,1.02,1.02Z"/><path class="cls-13" d="M445.34,280.3c.56,0,1.02-.46,1.02-1.02s-.46-1.02-1.02-1.02-1.02,.46-1.02,1.02,.46,1.02,1.02,1.02Z"/><path class="cls-13" d="M449.32,280.3c.56,0,1.02-.46,1.02-1.02s-.46-1.02-1.02-1.02-1.02,.46-1.02,1.02,.46,1.02,1.02,1.02Z"/><path class="cls-13" d="M453.22,280.3c.56,0,1.02-.46,1.02-1.02s-.46-1.02-1.02-1.02-1.02,.46-1.02,1.02,.46,1.02,1.02,1.02Z"/><path class="cls-13" d="M519.68,232.02c.56,0,1.02-.46,1.02-1.02s-.46-1.02-1.02-1.02-1.02,.46-1.02,1.02,.46,1.02,1.02,1.02Z"/><path class="cls-13" d="M523.66,232.02c.56,0,1.02-.46,1.02-1.02s-.46-1.02-1.02-1.02-1.02,.46-1.02,1.02,.46,1.02,1.02,1.02Z"/><path class="cls-13" d="M527.64,232.02c.56,0,1.02-.46,1.02-1.02s-.46-1.02-1.02-1.02-1.02,.46-1.02,1.02,.46,1.02,1.02,1.02Z"/><path class="cls-13" d="M531.53,232.02c.56,0,1.02-.46,1.02-1.02s-.46-1.02-1.02-1.02-1.02,.46-1.02,1.02,.46,1.02,1.02,1.02Z"/><path class="cls-13" d="M535.52,232.02c.56,0,1.02-.46,1.02-1.02s-.46-1.02-1.02-1.02-1.02,.46-1.02,1.02,.46,1.02,1.02,1.02Z"/><path class="cls-13" d="M539.51,232.02c.56,0,1.02-.46,1.02-1.02s-.46-1.02-1.02-1.02-1.02,.46-1.02,1.02,.46,1.02,1.02,1.02h0Z"/><path class="cls-13" d="M543.4,232.02c.56,0,1.02-.46,1.02-1.02s-.46-1.02-1.02-1.02-1.02,.46-1.02,1.02,.46,1.02,1.02,1.02Z"/><path class="cls-13" d="M547.39,232.02c.56,0,1.02-.46,1.02-1.02s-.46-1.02-1.02-1.02-1.02,.46-1.02,1.02,.46,1.02,1.02,1.02Z"/><path class="cls-13" d="M551.37,232.02c.56,0,1.02-.46,1.02-1.02s-.46-1.02-1.02-1.02-1.02,.46-1.02,1.02,.46,1.02,1.02,1.02Z"/><path class="cls-13" d="M519.68,235.45c.56,0,1.02-.46,1.02-1.02s-.46-1.02-1.02-1.02-1.02,.46-1.02,1.02,.46,1.02,1.02,1.02Z"/><path class="cls-13" d="M523.66,235.45c.56,0,1.02-.46,1.02-1.02s-.46-1.02-1.02-1.02-1.02,.46-1.02,1.02,.46,1.02,1.02,1.02Z"/><path class="cls-13" d="M527.64,235.45c.56,0,1.02-.46,1.02-1.02s-.46-1.02-1.02-1.02-1.02,.46-1.02,1.02,.46,1.02,1.02,1.02Z"/><path class="cls-13" d="M531.53,235.45c.56,0,1.02-.46,1.02-1.02s-.46-1.02-1.02-1.02-1.02,.46-1.02,1.02,.46,1.02,1.02,1.02Z"/><path class="cls-13" d="M535.52,235.45c.56,0,1.02-.46,1.02-1.02s-.46-1.02-1.02-1.02-1.02,.46-1.02,1.02,.46,1.02,1.02,1.02Z"/><path class="cls-13" d="M539.51,235.45c.56,0,1.02-.46,1.02-1.02s-.46-1.02-1.02-1.02-1.02,.46-1.02,1.02,.46,1.02,1.02,1.02h0Z"/><path class="cls-13" d="M543.4,235.45c.56,0,1.02-.46,1.02-1.02s-.46-1.02-1.02-1.02-1.02,.46-1.02,1.02,.46,1.02,1.02,1.02Z"/><path class="cls-13" d="M547.39,235.45c.56,0,1.02-.46,1.02-1.02s-.46-1.02-1.02-1.02-1.02,.46-1.02,1.02,.46,1.02,1.02,1.02Z"/><path class="cls-13" d="M551.37,235.45c.56,0,1.02-.46,1.02-1.02s-.46-1.02-1.02-1.02-1.02,.46-1.02,1.02,.46,1.02,1.02,1.02Z"/><path class="cls-13" d="M519.68,238.79c.56,0,1.02-.46,1.02-1.02s-.46-1.02-1.02-1.02-1.02,.46-1.02,1.02,.46,1.02,1.02,1.02Z"/><path class="cls-13" d="M523.66,238.79c.56,0,1.02-.46,1.02-1.02s-.46-1.02-1.02-1.02-1.02,.46-1.02,1.02,.46,1.02,1.02,1.02Z"/><path class="cls-13" d="M527.64,238.79c.56,0,1.02-.46,1.02-1.02s-.46-1.02-1.02-1.02-1.02,.46-1.02,1.02,.46,1.02,1.02,1.02Z"/><path class="cls-13" d="M531.53,238.79c.56,0,1.02-.46,1.02-1.02s-.46-1.02-1.02-1.02-1.02,.46-1.02,1.02,.46,1.02,1.02,1.02Z"/><path class="cls-13" d="M535.52,238.79c.56,0,1.02-.46,1.02-1.02s-.46-1.02-1.02-1.02-1.02,.46-1.02,1.02,.46,1.02,1.02,1.02Z"/><path class="cls-13" d="M539.51,238.79c.56,0,1.02-.46,1.02-1.02s-.46-1.02-1.02-1.02-1.02,.46-1.02,1.02,.46,1.02,1.02,1.02h0Z"/><path class="cls-13" d="M543.4,238.79c.56,0,1.02-.46,1.02-1.02s-.46-1.02-1.02-1.02-1.02,.46-1.02,1.02,.46,1.02,1.02,1.02Z"/><path class="cls-13" d="M547.39,238.79c.56,0,1.02-.46,1.02-1.02s-.46-1.02-1.02-1.02-1.02,.46-1.02,1.02,.46,1.02,1.02,1.02Z"/><path class="cls-13" d="M551.37,238.79c.56,0,1.02-.46,1.02-1.02s-.46-1.02-1.02-1.02-1.02,.46-1.02,1.02,.46,1.02,1.02,1.02Z"/><path class="cls-13" d="M519.68,242.22c.56,0,1.02-.46,1.02-1.02s-.46-1.02-1.02-1.02-1.02,.46-1.02,1.02,.46,1.02,1.02,1.02Z"/><path class="cls-13" d="M523.66,242.22c.56,0,1.02-.46,1.02-1.02s-.46-1.02-1.02-1.02-1.02,.46-1.02,1.02,.46,1.02,1.02,1.02Z"/><path class="cls-13" d="M527.64,242.22c.56,0,1.02-.46,1.02-1.02s-.46-1.02-1.02-1.02-1.02,.46-1.02,1.02,.46,1.02,1.02,1.02Z"/><path class="cls-13" d="M531.53,242.22c.56,0,1.02-.46,1.02-1.02s-.46-1.02-1.02-1.02-1.02,.46-1.02,1.02,.46,1.02,1.02,1.02Z"/><path class="cls-13" d="M535.52,242.22c.56,0,1.02-.46,1.02-1.02s-.46-1.02-1.02-1.02-1.02,.46-1.02,1.02,.46,1.02,1.02,1.02Z"/><path class="cls-13" d="M539.51,242.22c.56,0,1.02-.46,1.02-1.02s-.46-1.02-1.02-1.02-1.02,.46-1.02,1.02,.46,1.02,1.02,1.02h0Z"/><path class="cls-13" d="M543.4,242.22c.56,0,1.02-.46,1.02-1.02s-.46-1.02-1.02-1.02-1.02,.46-1.02,1.02,.46,1.02,1.02,1.02Z"/><path class="cls-13" d="M547.39,242.22c.56,0,1.02-.46,1.02-1.02s-.46-1.02-1.02-1.02-1.02,.46-1.02,1.02,.46,1.02,1.02,1.02Z"/><path class="cls-13" d="M551.37,242.22c.56,0,1.02-.46,1.02-1.02s-.46-1.02-1.02-1.02-1.02,.46-1.02,1.02,.46,1.02,1.02,1.02Z"/></g></svg>