<?xml version="1.0" encoding="UTF-8"?><svg id="Layer_1" xmlns="http://www.w3.org/2000/svg" xmlns:xlink="http://www.w3.org/1999/xlink" viewBox="0 0 1254 586"><defs><style>.cls-1{fill:url(#linear-gradient);}.cls-2{stroke:#010101;stroke-linecap:round;stroke-linejoin:round;}.cls-2,.cls-3{fill:none;}.cls-2,.cls-4{stroke-width:.32px;}.cls-5{fill:#f9aa85;}.cls-6{fill:#010101;}.cls-7,.cls-4{fill:#ee3e95;}.cls-8{fill:#ee264b;}.cls-9{fill:#ec9f79;}.cls-10{fill:#fff;}.cls-11{fill:#ffcb05;}.cls-12{fill:#e6ddee;}.cls-13{fill:#fed402;}.cls-14{fill:#66c3a0;}.cls-15{fill:#aea7bf;}.cls-16{fill:#1d102c;}.cls-17{fill:#a4519f;}.cls-18{fill:#481e54;}.cls-3{stroke:#bcbec0;stroke-width:.75px;}.cls-3,.cls-4{stroke-miterlimit:10;}.cls-19{fill:url(#linear-gradient-8);}.cls-20{fill:url(#linear-gradient-9);}.cls-21{fill:url(#linear-gradient-3);}.cls-22{fill:url(#linear-gradient-4);}.cls-23{fill:url(#linear-gradient-2);}.cls-24{fill:url(#linear-gradient-6);}.cls-25{fill:url(#linear-gradient-7);}.cls-26{fill:url(#linear-gradient-5);}.cls-27{fill:url(#linear-gradient-14);}.cls-28{fill:url(#linear-gradient-18);}.cls-29{fill:url(#linear-gradient-22);}.cls-30{fill:url(#linear-gradient-20);}.cls-31{fill:url(#linear-gradient-21);}.cls-32{fill:url(#linear-gradient-23);}.cls-33{fill:url(#linear-gradient-15);}.cls-34{fill:url(#linear-gradient-19);}.cls-35{fill:url(#linear-gradient-16);}.cls-36{fill:url(#linear-gradient-17);}.cls-37{fill:url(#linear-gradient-13);}.cls-38{fill:url(#linear-gradient-12);}.cls-39{fill:url(#linear-gradient-10);}.cls-40{fill:url(#linear-gradient-11);}.cls-4{stroke:#fff;}</style><linearGradient id="linear-gradient" x1="1254.95" y1="292" x2="-1" y2="292" gradientUnits="userSpaceOnUse"><stop offset="0" stop-color="#003246"/><stop offset="1" stop-color="#09202a"/></linearGradient><linearGradient id="linear-gradient-2" x1="688.61" y1="370.53" x2="1151.44" y2="246.47" gradientTransform="translate(0 588) scale(1 -1)" gradientUnits="userSpaceOnUse"><stop offset=".13" stop-color="#004059"/><stop offset="1" stop-color="#09202a"/></linearGradient><linearGradient id="linear-gradient-3" x1="807.49" y1="436.58" x2="941.08" y2="436.58" gradientTransform="translate(0 588) scale(1 -1)" gradientUnits="userSpaceOnUse"><stop offset="0" stop-color="#46b978"/><stop offset="1" stop-color="#4bc1e0"/></linearGradient><linearGradient id="linear-gradient-4" x1="853.34" y1="440.16" x2="887.03" y2="440.16" gradientTransform="translate(0 588) scale(1 -1)" gradientUnits="userSpaceOnUse"><stop offset="0" stop-color="#0d212a"/><stop offset="1" stop-color="#003848"/></linearGradient><linearGradient id="linear-gradient-5" x1="747.29" y1="355.46" x2="880.87" y2="355.46" gradientTransform="translate(0 588) scale(1 -1)" gradientUnits="userSpaceOnUse"><stop offset="0" stop-color="#0172ac"/><stop offset="1" stop-color="#61a1cc"/></linearGradient><linearGradient id="linear-gradient-6" x1="794.1" y1="358.1" x2="820.7" y2="358.1" xlink:href="#linear-gradient-4"/><linearGradient id="linear-gradient-7" x1="816.16" y1="360.44" x2="836.35" y2="360.44" xlink:href="#linear-gradient-4"/><linearGradient id="linear-gradient-8" x1="1027.93" y1="398.3" x2="1102.78" y2="398.3" xlink:href="#linear-gradient-3"/><linearGradient id="linear-gradient-9" x1="1095.34" y1="264.04" x2="1109.84" y2="264.04" xlink:href="#linear-gradient-4"/><linearGradient id="linear-gradient-10" x1="1013.75" y1="286.72" x2="1039.63" y2="286.72" xlink:href="#linear-gradient-4"/><linearGradient id="linear-gradient-11" x1="826.83" y1="353.12" x2="960.41" y2="353.12" xlink:href="#linear-gradient-3"/><linearGradient id="linear-gradient-12" x1="873.37" y1="356.27" x2="902.17" y2="356.27" xlink:href="#linear-gradient-4"/><linearGradient id="linear-gradient-13" x1="956.45" y1="199.6" x2="1090.04" y2="199.6" gradientTransform="translate(0 588) scale(1 -1)" gradientUnits="userSpaceOnUse"><stop offset="0" stop-color="#e94b57"/><stop offset="1" stop-color="#ec764d"/></linearGradient><linearGradient id="linear-gradient-14" x1="910.33" y1="302.92" x2="971.76" y2="302.92" xlink:href="#linear-gradient-4"/><linearGradient id="linear-gradient-15" x1="926.27" y1="268.42" x2="993.26" y2="268.42" xlink:href="#linear-gradient-13"/><linearGradient id="linear-gradient-16" x1="922.62" y1="263.44" x2="938.75" y2="263.44" xlink:href="#linear-gradient-13"/><linearGradient id="linear-gradient-17" x1="933.14" y1="323.75" x2="971.6" y2="323.75" xlink:href="#linear-gradient-4"/><linearGradient id="linear-gradient-18" x1="778.32" y1="195.58" x2="868" y2="195.58" xlink:href="#linear-gradient-3"/><linearGradient id="linear-gradient-19" x1="783.13" y1="209.51" x2="836.14" y2="209.51" xlink:href="#linear-gradient-4"/><linearGradient id="linear-gradient-20" x1="798.26" y1="209.41" x2="836.14" y2="209.41" xlink:href="#linear-gradient-13"/><linearGradient id="linear-gradient-21" x1="814.45" y1="184.04" x2="823.37" y2="184.04" xlink:href="#linear-gradient-13"/><linearGradient id="linear-gradient-22" x1="779.75" y1="287.25" x2="799.65" y2="287.25" xlink:href="#linear-gradient-13"/><linearGradient id="linear-gradient-23" x1="971.54" y1="442.54" x2="997.95" y2="442.54" gradientTransform="translate(0 588) scale(1 -1)" gradientUnits="userSpaceOnUse"><stop offset="0" stop-color="#f3a71d"/><stop offset="1" stop-color="#fed925"/></linearGradient></defs><rect class="cls-1" x="-1" y="-1" width="1255.95" height="586"/><g><path class="cls-23" d="M916.67,57.2c78.62-17.2,171.66,7.75,229.7,76.44,72.51,85.94,71.47,217.91,0,306.25-65.52,80.75-175.43,107.45-268.03,76.44-8.08-2.67-121.98-42.75-152.88-152.88-36.15-127.38,58.37-277.42,191.21-306.25Z"/><path class="cls-3" d="M950.89,356.33c94.81,0,171.67-36.32,171.67-81.11s-76.86-81.11-171.67-81.11-171.67,36.32-171.67,81.11,76.86,81.11,171.67,81.11Z"/><path class="cls-21" d="M936.97,132.76l-125.38,72.47c-1.32,.73-2.93,.29-3.66-1.02-.29-.44-.44-.88-.44-1.32v-25.62c0-3.07,1.61-5.86,4.25-7.32l125.38-72.33c1.32-.73,2.93-.29,3.66,1.02,.29,.44,.29,.88,.29,1.32v25.48c.15,3.07-1.46,5.86-4.1,7.32Z"/><path class="cls-10" d="M846.01,177.71l-26.8,15.37c-1.9,1.17-3.52,.44-3.52-1.46v-12.01c.29-2.2,1.46-4.25,3.52-5.42l26.8-15.37c1.9-1.17,3.51-.44,3.51,1.46v12.01c-.29,2.2-1.61,4.25-3.51,5.42Z"/><path class="cls-22" d="M885.12,141.69l-29.88,17.13c-1.02,.58-1.9,.29-1.9-.88v-.88c.15-1.32,.88-2.49,1.9-3.07l29.88-17.13c1.03-.58,1.9-.29,1.9,.88v.88c0,1.17-.73,2.34-1.9,3.07Z"/><path class="cls-10" d="M927.75,124.85l-72.8,41.87c-.88,.44-1.61,.15-1.61-.73,.15-1.02,.73-2.05,1.61-2.49l72.8-42.02c.88-.44,1.61-.15,1.61,.73-.15,1.02-.73,2.05-1.61,2.64Z"/><path class="cls-10" d="M902.26,144.32l-47.46,27.38c-.88,.44-1.46,.15-1.46-.59,.15-1.02,.59-1.9,1.46-2.34l47.46-27.53c.88-.44,1.46-.15,1.46,.58,0,1.03-.59,1.9-1.46,2.49Z"/><path class="cls-26" d="M876.63,214.02l-125.38,72.33c-1.32,.73-2.93,.29-3.66-1.02-.29-.44-.29-.88-.29-1.32v-25.62c0-3.07,1.61-5.86,4.25-7.32l125.38-72.33c1.32-.73,2.93-.29,3.66,1.02,.29,.44,.29,.88,.29,1.32v25.62c0,2.93-1.61,5.71-4.25,7.32Z"/><path class="cls-10" d="M786.55,257.94l-26.8,15.52c-1.9,1.02-3.52,.44-3.52-1.46v-12.15c.29-2.2,1.46-4.25,3.52-5.42l26.8-15.52c1.9-1.17,3.52-.44,3.52,1.46v12.01c-.29,2.34-1.61,4.39-3.52,5.56Z"/><path class="cls-24" d="M818.33,226.02l-21.82,12.59c-1.32,.73-2.34,.29-2.34-1.03,.15-1.61,1.03-2.93,2.34-3.81l21.82-12.59c1.32-.73,2.34-.29,2.34,1.02-.15,1.61-1.02,3.08-2.34,3.81Z"/><path class="cls-10" d="M812.47,237.15l-16.99,9.81c-.88,.44-1.61,.15-1.61-.73,.15-1.03,.73-2.05,1.61-2.49l16.99-9.81c.88-.44,1.61-.15,1.61,.73-.15,1.02-.73,1.9-1.61,2.49Z"/><path class="cls-25" d="M834.73,224.27l-16.99,9.81c-.88,.44-1.61,.15-1.61-.73,.15-1.03,.73-2.05,1.61-2.49l16.99-9.81c.88-.44,1.61-.15,1.61,.73-.15,1.03-.73,1.9-1.61,2.49Z"/><path class="cls-10" d="M842.79,224.56l-47.46,27.38c-.88,.44-1.47,.15-1.47-.59,.15-1.02,.59-1.9,1.47-2.34l47.46-27.38c.88-.44,1.46-.15,1.46,.59-.15,.88-.59,1.76-1.46,2.34Z"/><path class="cls-10" d="M864.47,211.97l-15.38,8.93c-.88,.44-1.47,.15-1.47-.59,.15-1.02,.59-1.9,1.47-2.34l15.38-8.93c.88-.44,1.46-.15,1.46,.58-.15,1.03-.59,1.9-1.46,2.34Z"/><path class="cls-19" d="M1096.77,252.82l-62.84-36.31c-3.52-2.34-5.71-6.15-6.01-10.4v-76.14c0-3.81,2.78-5.27,6.01-3.37l62.84,36.31c3.52,2.34,5.86,6.15,6.01,10.4v76.13c.15,3.66-2.64,5.27-6.01,3.37Z"/><path class="cls-17" d="M1111.86,210.8v-21.08l-63.57-36.75v21.08c.15,2.93,1.76,5.56,4.25,7.17l55.22,31.92c2.34,1.32,4.1,.29,4.1-2.34Z"/><path class="cls-17" d="M1048.29,132.76v21.08l63.71,36.75v-21.08c-.15-2.93-1.76-5.56-4.1-7.17l-55.37-31.92c-2.34-1.32-4.25-.29-4.25,2.34Z"/><path class="cls-11" d="M1060.16,210.21l-22.85-13.18c-1.46-1.02-2.49-2.64-2.64-4.39,0-1.61,1.17-2.34,2.64-1.46l22.85,13.18c1.47,1.02,2.49,2.64,2.64,4.39,0,1.61-1.17,2.2-2.64,1.46Z"/><path class="cls-10" d="M1088.42,233.78l-52-30.01c-1.03-.59-1.61-1.76-1.76-2.93,0-1.02,.73-1.46,1.76-1.02l52,30.01c1.02,.59,1.61,1.76,1.76,2.93,0,1.02-.73,1.61-1.76,1.02Z"/><path class="cls-10" d="M1076.56,232.9l-40.13-23.13c-1.03-.59-1.61-1.76-1.61-2.93v-.15c0-1.03,.73-1.46,1.61-1.03l40.13,23.13c1.02,.59,1.61,1.76,1.61,2.93v.29c0,1.02-.73,1.46-1.61,.88Z"/><path class="cls-15" d="M1064.55,310.36h30.76v47h-30.76c-2.05,0-3.66-1.61-3.66-3.66v-39.68c0-2.05,1.61-3.66,3.66-3.66Z"/><path class="cls-12" d="M1064.55,309.19h30.76v47h-30.76c-2.05,0-3.66-1.61-3.66-3.66v-39.82c0-1.9,1.76-3.51,3.66-3.51Z"/><path class="cls-15" d="M1096.04,357.36l13.62-20.06c.88-1.32,1.32-2.78,1.32-4.39v-39.68c0-1.46-2.93-2.2-3.81-1.03l-11.86,63.98v1.17h.73Z"/><path class="cls-20" d="M1095.31,356.18l13.18-18.89c.88-1.32,1.32-2.78,1.32-4.39v-39.68c0-.88-.73-1.61-1.61-1.46-.44,0-.88,.29-1.17,.59l-11.72,16.84v47Z"/><path class="cls-17" d="M1096.77,310.8v39.82l11.57-16.54v-39.82l-11.57,16.54Z"/><path class="cls-15" d="M1075.1,313.28h14.36c1.17,0,2.05,.88,2.05,2.05v34.11c0,1.17-.88,2.05-2.05,2.05h-14.36c-1.17,0-2.05-.88-2.05-2.05v-34.11c0-1.17,.88-2.05,2.05-2.05Z"/><path class="cls-15" d="M1065.14,327.05h4.1c.29,0,.59,.29,.59,.59v9.81c0,.29-.29,.59-.59,.59h-4.1c-.29,0-.58-.29-.58-.59v-9.81c0-.44,.15-.59,.58-.59Z"/><path class="cls-15" d="M1039.5,299.08l-7.91-4.54c-.73-.29-1.46-.29-2.2,0l-17.28,9.96h-.59v.73c0,.29,.15,.44,.44,.59l8.2,4.69c.73,.29,1.47,.29,2.2,0l17.43-10.1c.29-.15,.44-.29,.44-.59v-.88l-.73,.15Z"/><path class="cls-12" d="M1020.17,309.77l-8.2-4.68c-.29-.15-.59-.44-.44-.88,0-.15,.29-.44,.44-.44l17.43-10.1c.73-.29,1.46-.29,2.2,0l8.2,4.68c.29,.15,.59,.44,.44,.88,0,.15-.29,.44-.44,.44l-17.43,10.1c-.73,.29-1.46,.29-2.2,0Z"/><path class="cls-18" d="M1039.65,300.25l-15.53,8.93v-.44l6-5.27,9.52-3.66v.44Z"/><path class="cls-16" d="M1017.68,307.28l-1.46-.88c-.29-.15-.29-.44,0-.59,.29-.15,.73-.15,1.02,0l1.46,.88c.29,.15,.29,.44,0,.58-.29,.15-.73,.15-1.03,0Z"/><path class="cls-39" d="M1029.25,293.81l-15.53,8.93,10.4,6,15.53-8.93-10.4-6Z"/><path class="cls-17" d="M1029.25,293.81l-15.53,8.93,25.93-2.93-10.4-6Z"/><path class="cls-40" d="M956.16,216.36l-125.38,72.33c-1.32,.73-2.93,.29-3.66-1.02-.29-.44-.29-.88-.29-1.32v-25.62c0-3.07,1.61-5.86,4.25-7.32l125.38-72.33c1.32-.73,2.93-.29,3.66,1.02,.29,.44,.29,.88,.29,1.32v25.48c0,3.22-1.61,6-4.25,7.47Z"/><path class="cls-10" d="M866.08,260.28l-26.8,15.52c-1.9,1.17-3.51,.44-3.51-1.46v-12.01c.29-2.2,1.46-4.25,3.51-5.42l26.8-15.52c1.9-1.17,3.52-.44,3.52,1.46v12.01c-.29,2.2-1.61,4.25-3.52,5.42Z"/><path class="cls-38" d="M899.77,227.34l-24.02,13.76c-1.32,.73-2.34,.29-2.34-1.03,.15-1.61,1.02-2.93,2.34-3.81l24.02-13.91c1.32-.73,2.34-.29,2.34,1.02-.15,1.76-1.03,3.07-2.34,3.95Z"/><path class="cls-10" d="M914.56,226.46l-39.55,22.84c-.88,.44-1.61,.15-1.61-.73,.15-1.02,.73-2.05,1.61-2.49l39.55-22.84c.88-.44,1.61-.15,1.61,.73-.15,1.03-.73,2.05-1.61,2.49Z"/><path class="cls-10" d="M922.33,226.9l-47.46,27.38c-.88,.44-1.46,.15-1.46-.59,.15-1.02,.59-1.9,1.46-2.34l47.46-27.38c.88-.44,1.46-.15,1.46,.59-.15,1.02-.73,1.9-1.46,2.34Z"/><path class="cls-8" d="M1042.29,436.57s18.75-9.37,22.41-26.94c1.61-8.2,20.65-21.23,25.34-28.7l-34.86,7.17-25.78,22.55,12.89,25.92Z"/><path class="cls-5" d="M1107.47,431.15c-3.66-.15-11.28-2.64-16.4-4.39-3.08-1.02-5.57-3.22-7.03-6.15-5.86-11.57-21.82-35.43-29.29-46.71-17.58-22.69-61.52-33.09-61.52-33.09-2.05-.44-15.67-3.81-23.73-1.76,0,14.79,26.51,26.5,43.65,31.33,17.14,4.83,36.03,16.11,36.03,16.11,1.46,7.47,9.52,25.33,14.65,28.4,5.13,3.08,15.23,13.76,15.23,13.76,2.05,1.9,2.2,5.71,3.52,7.03,1.32,1.32,5.13-.15,6.01-.73,1.61,0,3.37,.15,4.98,.29,1.17,.15,4.83,2.93,6.59,3.22,2.2,.15,4.39-.15,6.59-1.02,1.76-.73,6.59-6,.73-6.3Z"/><path class="cls-9" d="M1073.48,402.74l-14.65-8.79c-1.76,2.05-3.22,4.25-4.69,6.59,1.61,3.37,3.37,6.74,5.42,9.81,6.01,0,12.01-.29,18.02-1.02-1.32-2.05-2.64-4.25-4.1-6.59Z"/><path class="cls-5" d="M966.85,354.43c-.29,3.37-.44,6.74-2.2,9.81-1.76,3.07-6.44,14.79,6.45,22.11,12.89,7.32,29.29,8.2,37.64,8.49,8.06,.29,18.31,1.76,22.41,2.05,5.71,.59,11.28,1.9,16.55,3.95,12.89,4.98,26.66,7.61,40.57,7.91,4.98,.44,9.96,1.46,14.79,3.07,.44,1.46,2.05,3.37,6.15,3.22,6.59,.73,5.57,3.08,12.45,3.51,7.32,.59,12.89,.44,15.53-7.03,1.61-4.39-21.24-3.81-23.58-4.68-7.47-3.08-50.68-16.69-65.91-20.94-2.2-1.46-4.25-.73-7.47-3.22-9.52-7.32-43.06-23.57-69.14-33.97-4.83,2.2-4.1,4.1-4.25,5.71Z"/><path class="cls-37" d="M966.85,354.43s-10.11,9.08-10.4,22.11c-.44,17.13,24.9,29.72,41.89,36.46,16.99,6.74,35.01,12.59,43.94,23.43,0-12.01,8.64-18.6,16.26-22.11s7.03-16.4,11.28-20.64c4.83-4.83,17.28-10.84,20.21-12.74-43.36-10.54-43.94-33.68-96.82-40.12-24.02-2.78-24.31,8.49-26.36,13.62Z"/><path class="cls-27" d="M949.57,246.67s-17.28,3.22-27.83,31.19c-4.83,12.74-1.76,23.43-5.13,28.84-3.37,5.42-8.93,8.35-4.83,13.18,4.1,4.83,20.94,4.39,29.59,1.17,8.64-3.22,20.95-7.91,19.19-16.84s8.93-8.49,11.13-16.98c.73-3.07-4.25-22.11-9.67-25.77-5.42-3.66-12.45-14.79-12.45-14.79Z"/><path class="cls-5" d="M967.88,285.17s2.2-7.91,9.81-5.27c7.62,2.64,2.64,21.23,2.49,39.09-.15,17.86-7.18,17.42-7.18,17.42l-7.03-41.43,1.9-9.81Z"/><path class="cls-8" d="M973.88,293.37l-6.01,13.18,.29,1.32,12.6,.59c.59-7.03,1.32-13.62,1.32-18.74-1.17,2.64-8.2,3.66-8.2,3.66Z"/><path class="cls-33" d="M926.57,316.21s-2.34-8.35,6.01-11.42c8.35-3.07,29.88-12.59,35.3-19.77,.15,2.2,1.02,4.25,2.34,6,.73,.88,2.93,1.17,3.81,2.2,2.64,2.93,5.86,5.12,9.52,6.73,6.74,2.78,5.57,12.45,1.76,16.69,4.83,5.42,8.2,20.94,8.06,24.01-3.37,5.27-17.14,12.74-26.36,13.47-1.46-6.73-16.55-19.18-21.53-23.28-3.37-2.34-9.23-7.47-18.89-14.64Z"/><path class="cls-8" d="M929.65,311.53c-3.81,3.66-3.08,4.69-3.08,4.69,9.67,7.17,14.65,12.74,17.87,15.37,4.98,4.1,21.09,16.11,22.41,22.84-.59-10.4-31.79-37.63-37.2-42.9Z"/><path class="cls-5" d="M930.09,306.11c-11.72,3.66-4.54,53-8.06,56.52-3.51,3.51-16.84,20.64-16.84,20.64-8.79-1.46-14.06,.88-17.72,3.22-3.66,2.34,6.15,2.34,6.15,2.34h14.94c1.61,0,3.22-.73,4.39-1.9,4.69-4.83,16.99-17.57,19.19-20.79,2.64-4.1,4.69-30.89,4.69-45.68s-6.74-14.35-6.74-14.35Z"/><path class="cls-5" d="M966.12,307.14c7.47-7.03,6.3-10.25,7.91-13.62-2.34-2.49-4.39-5.27-6.15-8.2-5.42,7.18-26.95,16.69-35.3,19.77-8.35,3.08-6.01,11.42-6.01,11.42,0,0,27.54,1.76,39.55-9.37Z"/><path class="cls-35" d="M938.73,316.07c-4.69,.44-9.52,.15-14.06-.73v-.15l-.15,.15c-1.17,5.86-1.76,11.71-1.76,17.57,0,0,9.52-1.32,14.06,1.03,.44-6.15,1.46-9.22,1.9-13.47v-4.39Z"/><path class="cls-5" d="M967.29,296.59l-3.66-1.46s-2.49-3.22-4.54-11.57c-2.05-8.35-10.25-1.17-10.25-1.17,0,0,.59,4.1-2.05,15.96-2.64,11.86,14.35,4.39,14.35,4.39l6.15-6.15Z"/><path class="cls-9" d="M949.86,281.66c2.34-1.61,7.76-4.83,9.23,1.61,.73,3.37,1.76,6.59,3.08,9.66-7.76-.59-11.13-7.91-12.3-11.27Z"/><path class="cls-5" d="M961.43,286.05c3.37,.29,6.45-1.61,7.76-4.68,.73-1.76,1.02-3.66,1.02-5.56,.15-9.37-1.9-17.13-7.03-20.94-5.13-3.81-9.81-4.68-12.3-3.37-2.49,1.32-15.97,4.39-16.26,9.08-.29,4.69,9.23,18.16,14.06,21.96,3.52,2.49,9.37,3.22,12.74,3.51Z"/><path class="cls-36" d="M967.29,251.21c2.05,1.61,3.52,3.95,4.25,6.59,.73,3.37-.44,6.74-8.93,10.4-11.28,4.83-11.13,8.2-10.84,10.83l-4.83-7.18,2.05,10.69s-10.4-2.93-12.16-7.03c-1.76-4.1-4.83-10.4-3.08-15.81,1.76-5.42,11.43-12.3,18.16-13.47,4.83-1.17,11.28,1.76,15.38,4.98Z"/><path class="cls-5" d="M948.25,274.92c1.61,1.76,2.05,3.95,1.03,4.98-1.03,1.02-3.37,.44-4.98-1.32-1.61-1.76-2.05-4.1-.88-5.12,1.17-1.03,3.08-.29,4.83,1.46Z"/><path class="cls-28" d="M859.93,454.72l-75.87-42.9c-3.66-2.05-6.74-6.88-6.74-10.54l.15-68.38c0-3.66,3.08-4.98,6.74-2.78l75.87,43.05c3.66,2.05,6.74,6.88,6.74,10.54l-.15,68.38c0,3.51-3.07,4.83-6.74,2.64Z"/><path class="cls-34" d="M830.63,418.56l-44.24-25.04c-2.34-1.32-4.25-6.88-4.25-9.22v-43.92c0-2.34,1.9-3.08,4.25-1.76l44.24,25.18c2.34,1.46,3.95,3.81,4.25,6.59v45.53c0,2.2-1.9,3.95-4.25,2.64Z"/><path class="cls-11" d="M797.65,372.43c4.3-1.41,5.71-8.91,3.13-16.75-2.57-7.84-8.15-13.04-12.45-11.63-4.3,1.41-5.71,8.91-3.13,16.75,2.57,7.84,8.15,13.04,12.46,11.63Z"/><path class="cls-13" d="M834.88,415.92v-22.84l-27.83-15.81v27.97l24.31,13.76c2.05,1.17,3.51-.29,3.51-3.07Z"/><path class="cls-11" d="M856.71,406.55l-14.36-8.2c-.88-.44-1.32-1.32-1.46-2.34v-.73c0-.88,.73-1.02,1.46-.58l14.36,8.2c.88,.44,1.32,1.32,1.46,2.34v.73c0,.73-.59,1.02-1.46,.59Z"/><path class="cls-10" d="M857.15,426.02l-18.31-10.4c-.88-.44-1.32-1.32-1.46-2.2v-.59c0-.73,.59-1.02,1.46-.59l18.31,10.4c.88,.44,1.32,1.32,1.46,2.2v.59c0,.88-.73,1.17-1.46,.59Z"/><path class="cls-10" d="M857.15,420.31l-18.31-10.39c-.88-.44-1.32-1.32-1.46-2.2v-.59c0-.73,.59-1.03,1.46-.59l18.31,10.4c.88,.44,1.32,1.32,1.46,2.2v.58c0,.73-.73,1.03-1.46,.59Z"/><path class="cls-10" d="M857.15,414.6l-18.31-10.39c-.88-.44-1.32-1.32-1.46-2.2v-.59c0-.73,.59-1.02,1.46-.59l18.31,10.4c.88,.44,1.32,1.32,1.46,2.2v.58c0,.73-.73,1.02-1.46,.59Z"/><path class="cls-30" d="M797.24,372.44l8.49,5.12,29.29,16.55v-14.49l-29.15-16.55-8.64,9.37Z"/><path class="cls-31" d="M821.85,398.94l-8.2-4.69c-.15-.15-.29,0-.29,.29v14.2l8.94,4.98v-14.2c0-.15-.15-.44-.44-.58Z"/><path class="cls-14" d="M791.09,388.98c0-2.64-1.32-4.98-3.22-6.74-.29-1.46-1.17-2.78-2.49-3.66-.73-.44-1.61-.29-2.2,.29,0,.15-.15,.15-.15,.29-.15-.15-.29-.29-.44-.29-.15-.15-.29-.15-.44-.15v7.17c0,2.78,1.17,5.42,3.51,7.17l6.44,3.66c.44-.73,.73-1.76,.73-2.64-.15-1.9-.73-3.66-1.76-5.12Z"/><path class="cls-14" d="M798.26,397.18c0-1.32-.73-2.64-1.76-3.51-.15-.73-.59-1.46-1.32-1.9-.44-.29-.88-.15-1.17,.15,0,0,0,.15-.15,.15l-.29-.15c-.88-.44-1.46,.15-1.46,1.32,0,.44,0,.73,.15,1.17-.44,0-.73,.59-.73,1.46v.73l7.18,4.1c0-.29,.15-.44,.15-.73,.15-1.02-.15-1.9-.59-2.78Z"/><path class="cls-11" d="M829.76,426.9l-45.99-26.06c-1.03-.59-1.61-1.61-1.76-2.78v-.73c0-.88,.73-1.32,1.76-.73l45.99,26.06c1.02,.58,1.61,1.61,1.76,2.78v.73c0,1.02-.73,1.32-1.76,.73Z"/><path class="cls-11" d="M817.01,424.85l-33.69-19.18c-.73-.44-1.17-1.02-1.17-1.9v-.44c0-.58,.59-.88,1.17-.44l33.69,19.18c.73,.44,1.17,1.02,1.17,1.9v.58c0,.44-.59,.73-1.17,.29Z"/><path class="cls-11" d="M1145.7,224.85c7.32,4.25,13.18,14.35,13.18,22.84s-6.01,11.71-13.18,7.61c-7.18-4.1-13.18-14.35-13.18-22.84s5.86-11.86,13.18-7.61Z"/><path class="cls-10" d="M1152.69,251.54c.68-.43-2.28-6.32-6.63-13.14-4.34-6.82-8.41-12-9.1-11.57-.68,.43,2.28,6.32,6.62,13.14,4.34,6.82,8.41,12,9.1,11.57Z"/><path class="cls-10" d="M1151.26,235.1l-9.37-.73-4.83,6.74,.73,1.46,14.21-6.15-.73-1.32Z"/><path class="cls-10" d="M1154.34,247.84l-4.39-.59-2.2,3.22,.88,1.46,6.59-2.93-.88-1.17Z"/><path class="cls-11" d="M789.77,285.47c7.32,4.25,13.18,14.49,13.18,22.84s-6.01,11.71-13.18,7.47c-7.18-4.25-13.18-14.35-13.18-22.84s5.86-11.57,13.18-7.47Z"/><path class="cls-29" d="M779.81,293.23c.15-2.93,2.64-3.95,5.71-2.34,1.76,.88,3.08,2.2,4.25,3.81,1.46-.29,3.08,.15,4.25,1.02,3.08,2.05,5.13,5.27,5.71,8.93,0,.73,0,1.32-.29,2.05-.29,.88-1.17,1.61-2.05,1.76-1.76,.29-6.59,1.32-7.32,2.93h-.15c-.15,0-.15-.15-.29-.15l-.15-.15c-.73-2.49-5.57-8.93-7.32-11.42-.88-1.17-1.61-2.64-2.05-4.1-.29-.88-.44-1.61-.29-2.34Z"/><path class="cls-32" d="M984.72,130.27c-7.32,4.25-13.18,14.35-13.18,22.84s6.01,11.71,13.33,7.61c7.32-4.1,13.18-14.35,13.18-22.84s-6.01-11.86-13.33-7.61Z"/><path class="cls-10" d="M986.04,136.86c-4.98,2.93-9.23,8.05-9.23,11.42-.15,1.46,1.02,2.78,2.49,2.78h.29l-1.61,4.83q0,.15,.15,0l5.57-5.71c.73-.29,1.61-.73,2.34-1.17,5.13-2.93,9.23-8.05,9.23-11.42s-4.25-3.66-9.23-.73Zm-5.42,10.69c-.88,.44-1.61,.15-1.61-.73,.15-1.03,.73-1.9,1.61-2.49,.88-.44,1.61-.15,1.61,.73-.15,1.02-.73,1.9-1.61,2.49Zm5.27-3.08c-.88,.44-1.61,.15-1.61-.73,.15-1.03,.73-1.9,1.61-2.49,.88-.44,1.61-.15,1.61,.73-.15,1.03-.73,1.9-1.61,2.49Zm5.27-2.93c-.88,.44-1.61,.15-1.61-.73,.15-1.03,.73-1.9,1.61-2.49,.88-.44,1.61-.15,1.61,.73-.15,.88-.73,1.9-1.61,2.49Z"/><path class="cls-17" d="M1106.88,210.94l-53.17-32.94c-2.78-2.05-4.54-5.12-4.69-8.49l-.59-33.82c0-3.08,1.9-4.39,4.54-2.78l53.17,32.94c2.78,2.05,4.39,5.12,4.69,8.49l.59,33.82c0,3.08-2.05,4.25-4.54,2.78Z"/><path class="cls-2" d="M1053.42,138.47l4.1,7.76"/><path class="cls-2" d="M1053.42,143.59l4.1-2.49"/><path class="cls-7" d="M1079.64,164.24c3.22-8.93,15.38,10.1,19.63,20.35-2.78,3.51-9.08,8.35-19.19,2.2-10.11-6.15-16.7-18.89-19.77-26.06,3.95-4.98,15.53-9.66,19.33,3.51Z"/><path class="cls-2" d="M1093.41,181.66l-27.24-16.69"/><path class="cls-4" d="M1072.9,164.82c-2.78-.73-4.69,.15-5.27,2.64l-2.34,11.13,7.76,7.18,2.34-11.13c.58-2.49-.44-6.15-2.49-9.81Z"/><path class="cls-6" d="M1073.78,190.44l1.17-5.42c.73-3.22-1.17-8.05-4.1-10.69-2.93-2.78-5.86-2.49-6.59,.73l-1.76,8.35,11.28,7.03Z"/><path class="cls-15" d="M836.64,302.74c.89,0,1.61-.72,1.61-1.61s-.72-1.61-1.61-1.61-1.61,.72-1.61,1.61,.72,1.61,1.61,1.61Z"/><path class="cls-15" d="M842.79,302.74c.89,0,1.61-.72,1.61-1.61s-.72-1.61-1.61-1.61-1.61,.72-1.61,1.61,.72,1.61,1.61,1.61Z"/><path class="cls-15" d="M849.09,302.74c.89,0,1.61-.72,1.61-1.61s-.72-1.61-1.61-1.61-1.61,.72-1.61,1.61,.72,1.61,1.61,1.61Z"/><path class="cls-15" d="M855.39,302.74c.89,0,1.61-.72,1.61-1.61s-.72-1.61-1.61-1.61-1.61,.72-1.61,1.61,.72,1.61,1.61,1.61Z"/><path class="cls-15" d="M861.54,302.74c.89,0,1.61-.72,1.61-1.61s-.72-1.61-1.61-1.61-1.61,.72-1.61,1.61,.72,1.61,1.61,1.61Z"/><path class="cls-15" d="M867.84,302.74c.89,0,1.61-.72,1.61-1.61s-.72-1.61-1.61-1.61-1.61,.72-1.61,1.61,.72,1.61,1.61,1.61Z"/><path class="cls-15" d="M874.14,302.74c.89,0,1.61-.72,1.61-1.61s-.72-1.61-1.61-1.61-1.61,.72-1.61,1.61,.72,1.61,1.61,1.61Z"/><path class="cls-15" d="M880.43,302.74c.89,0,1.61-.72,1.61-1.61s-.72-1.61-1.61-1.61-1.61,.72-1.61,1.61,.72,1.61,1.61,1.61Z"/><path class="cls-15" d="M886.59,302.74c.89,0,1.61-.72,1.61-1.61s-.72-1.61-1.61-1.61-1.61,.72-1.61,1.61,.72,1.61,1.61,1.61Z"/><path class="cls-15" d="M836.64,308.01c.89,0,1.61-.72,1.61-1.61s-.72-1.61-1.61-1.61-1.61,.72-1.61,1.61,.72,1.61,1.61,1.61Z"/><path class="cls-15" d="M842.79,308.01c.89,0,1.61-.72,1.61-1.61s-.72-1.61-1.61-1.61-1.61,.72-1.61,1.61,.72,1.61,1.61,1.61Z"/><path class="cls-15" d="M849.09,308.01c.89,0,1.61-.72,1.61-1.61s-.72-1.61-1.61-1.61-1.61,.72-1.61,1.61,.72,1.61,1.61,1.61Z"/><path class="cls-15" d="M855.39,308.01c.89,0,1.61-.72,1.61-1.61s-.72-1.61-1.61-1.61-1.61,.72-1.61,1.61,.72,1.61,1.61,1.61Z"/><path class="cls-15" d="M861.54,308.01c.89,0,1.61-.72,1.61-1.61s-.72-1.61-1.61-1.61-1.61,.72-1.61,1.61,.72,1.61,1.61,1.61Z"/><path class="cls-15" d="M867.84,308.01c.89,0,1.61-.72,1.61-1.61s-.72-1.61-1.61-1.61-1.61,.72-1.61,1.61,.72,1.61,1.61,1.61Z"/><path class="cls-15" d="M874.14,308.01c.89,0,1.61-.72,1.61-1.61s-.72-1.61-1.61-1.61-1.61,.72-1.61,1.61,.72,1.61,1.61,1.61Z"/><path class="cls-15" d="M880.43,308.01c.89,0,1.61-.72,1.61-1.61s-.72-1.61-1.61-1.61-1.61,.72-1.61,1.61,.72,1.61,1.61,1.61Z"/><path class="cls-15" d="M886.59,308.01c.89,0,1.61-.72,1.61-1.61s-.72-1.61-1.61-1.61-1.61,.72-1.61,1.61,.72,1.61,1.61,1.61Z"/><path class="cls-15" d="M836.64,313.28c.89,0,1.61-.72,1.61-1.61s-.72-1.61-1.61-1.61-1.61,.72-1.61,1.61,.72,1.61,1.61,1.61Z"/><path class="cls-15" d="M842.79,313.28c.89,0,1.61-.72,1.61-1.61s-.72-1.61-1.61-1.61-1.61,.72-1.61,1.61,.72,1.61,1.61,1.61Z"/><path class="cls-15" d="M849.09,313.28c.89,0,1.61-.72,1.61-1.61s-.72-1.61-1.61-1.61-1.61,.72-1.61,1.61,.72,1.61,1.61,1.61Z"/><path class="cls-15" d="M855.39,313.28c.89,0,1.61-.72,1.61-1.61s-.72-1.61-1.61-1.61-1.61,.72-1.61,1.61,.72,1.61,1.61,1.61Z"/><path class="cls-15" d="M861.54,313.28c.89,0,1.61-.72,1.61-1.61s-.72-1.61-1.61-1.61-1.61,.72-1.61,1.61,.72,1.61,1.61,1.61Z"/><path class="cls-15" d="M867.84,313.28c.89,0,1.61-.72,1.61-1.61s-.72-1.61-1.61-1.61-1.61,.72-1.61,1.61,.72,1.61,1.61,1.61Z"/><path class="cls-15" d="M874.14,313.28c.89,0,1.61-.72,1.61-1.61s-.72-1.61-1.61-1.61-1.61,.72-1.61,1.61,.72,1.61,1.61,1.61Z"/><path class="cls-15" d="M880.43,313.28c.89,0,1.61-.72,1.61-1.61s-.72-1.61-1.61-1.61-1.61,.72-1.61,1.61,.72,1.61,1.61,1.61Z"/><path class="cls-15" d="M886.59,313.28c.89,0,1.61-.72,1.61-1.61s-.72-1.61-1.61-1.61-1.61,.72-1.61,1.61,.72,1.61,1.61,1.61Z"/><path class="cls-15" d="M836.64,318.7c.89,0,1.61-.72,1.61-1.61s-.72-1.61-1.61-1.61-1.61,.72-1.61,1.61,.72,1.61,1.61,1.61Z"/><path class="cls-15" d="M842.79,318.7c.89,0,1.61-.72,1.61-1.61s-.72-1.61-1.61-1.61-1.61,.72-1.61,1.61,.72,1.61,1.61,1.61Z"/><path class="cls-15" d="M849.09,318.7c.89,0,1.61-.72,1.61-1.61s-.72-1.61-1.61-1.61-1.61,.72-1.61,1.61,.72,1.61,1.61,1.61Z"/><path class="cls-15" d="M855.39,318.7c.89,0,1.61-.72,1.61-1.61s-.72-1.61-1.61-1.61-1.61,.72-1.61,1.61,.72,1.61,1.61,1.61Z"/><path class="cls-15" d="M861.54,318.7c.89,0,1.61-.72,1.61-1.61s-.72-1.61-1.61-1.61-1.61,.72-1.61,1.61,.72,1.61,1.61,1.61Z"/><path class="cls-15" d="M867.84,318.7c.89,0,1.61-.72,1.61-1.61s-.72-1.61-1.61-1.61-1.61,.72-1.61,1.61,.72,1.61,1.61,1.61Z"/><path class="cls-15" d="M874.14,318.7c.89,0,1.61-.72,1.61-1.61s-.72-1.61-1.61-1.61-1.61,.72-1.61,1.61,.72,1.61,1.61,1.61Z"/><path class="cls-15" d="M880.43,318.7c.89,0,1.61-.72,1.61-1.61s-.72-1.61-1.61-1.61-1.61,.72-1.61,1.61,.72,1.61,1.61,1.61Z"/><path class="cls-15" d="M886.59,318.7c.89,0,1.61-.72,1.61-1.61s-.72-1.61-1.61-1.61-1.61,.72-1.61,1.61,.72,1.61,1.61,1.61Z"/><path class="cls-15" d="M991.61,242.42c.89,0,1.61-.72,1.61-1.61s-.72-1.61-1.61-1.61-1.61,.72-1.61,1.61,.72,1.61,1.61,1.61Z"/><path class="cls-15" d="M997.91,242.42c.89,0,1.61-.72,1.61-1.61s-.72-1.61-1.61-1.61-1.61,.72-1.61,1.61,.72,1.61,1.61,1.61Z"/><path class="cls-15" d="M1004.2,242.42c.89,0,1.61-.72,1.61-1.61s-.72-1.61-1.61-1.61-1.61,.72-1.61,1.61,.72,1.61,1.61,1.61Z"/><path class="cls-15" d="M1010.35,242.42c.89,0,1.61-.72,1.61-1.61s-.72-1.61-1.61-1.61-1.61,.72-1.61,1.61,.72,1.61,1.61,1.61Z"/><path class="cls-15" d="M1016.65,242.42c.89,0,1.61-.72,1.61-1.61s-.72-1.61-1.61-1.61-1.61,.72-1.61,1.61,.72,1.61,1.61,1.61Z"/><path class="cls-15" d="M1022.95,242.42c.89,0,1.61-.72,1.61-1.61s-.72-1.61-1.61-1.61-1.61,.72-1.61,1.61,.72,1.61,1.61,1.61Z"/><path class="cls-15" d="M1029.1,242.42c.89,0,1.61-.72,1.61-1.61s-.72-1.61-1.61-1.61-1.61,.72-1.61,1.61,.72,1.61,1.61,1.61Z"/><path class="cls-15" d="M1035.4,242.42c.89,0,1.61-.72,1.61-1.61s-.72-1.61-1.61-1.61-1.61,.72-1.61,1.61,.72,1.61,1.61,1.61Z"/><path class="cls-15" d="M1041.7,242.42c.89,0,1.61-.72,1.61-1.61s-.72-1.61-1.61-1.61-1.61,.72-1.61,1.61,.72,1.61,1.61,1.61Z"/><path class="cls-15" d="M991.61,247.84c.89,0,1.61-.72,1.61-1.61s-.72-1.61-1.61-1.61-1.61,.72-1.61,1.61,.72,1.61,1.61,1.61Z"/><path class="cls-15" d="M997.91,247.84c.89,0,1.61-.72,1.61-1.61s-.72-1.61-1.61-1.61-1.61,.72-1.61,1.61,.72,1.61,1.61,1.61Z"/><path class="cls-15" d="M1004.2,247.84c.89,0,1.61-.72,1.61-1.61s-.72-1.61-1.61-1.61-1.61,.72-1.61,1.61,.72,1.61,1.61,1.61Z"/><path class="cls-15" d="M1010.35,247.84c.89,0,1.61-.72,1.61-1.61s-.72-1.61-1.61-1.61-1.61,.72-1.61,1.61,.72,1.61,1.61,1.61Z"/><path class="cls-15" d="M1016.65,247.84c.89,0,1.61-.72,1.61-1.61s-.72-1.61-1.61-1.61-1.61,.72-1.61,1.61,.72,1.61,1.61,1.61Z"/><path class="cls-15" d="M1022.95,247.84c.89,0,1.61-.72,1.61-1.61s-.72-1.61-1.61-1.61-1.61,.72-1.61,1.61,.72,1.61,1.61,1.61Z"/><path class="cls-15" d="M1029.1,247.84c.89,0,1.61-.72,1.61-1.61s-.72-1.61-1.61-1.61-1.61,.72-1.61,1.61,.72,1.61,1.61,1.61Z"/><path class="cls-15" d="M1035.4,247.84c.89,0,1.61-.72,1.61-1.61s-.72-1.61-1.61-1.61-1.61,.72-1.61,1.61,.72,1.61,1.61,1.61Z"/><path class="cls-15" d="M1041.7,247.84c.89,0,1.61-.72,1.61-1.61s-.72-1.61-1.61-1.61-1.61,.72-1.61,1.61,.72,1.61,1.61,1.61Z"/><path class="cls-15" d="M991.61,253.11c.89,0,1.61-.72,1.61-1.61s-.72-1.61-1.61-1.61-1.61,.72-1.61,1.61,.72,1.61,1.61,1.61Z"/><path class="cls-15" d="M997.91,253.11c.89,0,1.61-.72,1.61-1.61s-.72-1.61-1.61-1.61-1.61,.72-1.61,1.61,.72,1.61,1.61,1.61Z"/><path class="cls-15" d="M1004.2,253.11c.89,0,1.61-.72,1.61-1.61s-.72-1.61-1.61-1.61-1.61,.72-1.61,1.61,.72,1.61,1.61,1.61Z"/><path class="cls-15" d="M1010.35,253.11c.89,0,1.61-.72,1.61-1.61s-.72-1.61-1.61-1.61-1.61,.72-1.61,1.61,.72,1.61,1.61,1.61Z"/><path class="cls-15" d="M1016.65,253.11c.89,0,1.61-.72,1.61-1.61s-.72-1.61-1.61-1.61-1.61,.72-1.61,1.61,.72,1.61,1.61,1.61Z"/><path class="cls-15" d="M1022.95,253.11c.89,0,1.61-.72,1.61-1.61s-.72-1.61-1.61-1.61-1.61,.72-1.61,1.61,.72,1.61,1.61,1.61Z"/><path class="cls-15" d="M1029.1,253.11c.89,0,1.61-.72,1.61-1.61s-.72-1.61-1.61-1.61-1.61,.72-1.61,1.61,.72,1.61,1.61,1.61Z"/><path class="cls-15" d="M1035.4,253.11c.89,0,1.61-.72,1.61-1.61s-.72-1.61-1.61-1.61-1.61,.72-1.61,1.61,.72,1.61,1.61,1.61Z"/><path class="cls-15" d="M1041.7,253.11c.89,0,1.61-.72,1.61-1.61s-.72-1.61-1.61-1.61-1.61,.72-1.61,1.61,.72,1.61,1.61,1.61Z"/><path class="cls-15" d="M991.61,258.53c.89,0,1.61-.72,1.61-1.61s-.72-1.61-1.61-1.61-1.61,.72-1.61,1.61,.72,1.61,1.61,1.61Z"/><path class="cls-15" d="M997.91,258.53c.89,0,1.61-.72,1.61-1.61s-.72-1.61-1.61-1.61-1.61,.72-1.61,1.61,.72,1.61,1.61,1.61Z"/><path class="cls-15" d="M1004.2,258.53c.89,0,1.61-.72,1.61-1.61s-.72-1.61-1.61-1.61-1.61,.72-1.61,1.61,.72,1.61,1.61,1.61Z"/><path class="cls-15" d="M1010.35,258.53c.89,0,1.61-.72,1.61-1.61s-.72-1.61-1.61-1.61-1.61,.72-1.61,1.61,.72,1.61,1.61,1.61Z"/><path class="cls-15" d="M1016.65,258.53c.89,0,1.61-.72,1.61-1.61s-.72-1.61-1.61-1.61-1.61,.72-1.61,1.61,.72,1.61,1.61,1.61Z"/><path class="cls-15" d="M1022.95,258.53c.89,0,1.61-.72,1.61-1.61s-.72-1.61-1.61-1.61-1.61,.72-1.61,1.61,.72,1.61,1.61,1.61Z"/><path class="cls-15" d="M1029.1,258.53c.89,0,1.61-.72,1.61-1.61s-.72-1.61-1.61-1.61-1.61,.72-1.61,1.61,.72,1.61,1.61,1.61Z"/><path class="cls-15" d="M1035.4,258.53c.89,0,1.61-.72,1.61-1.61s-.72-1.61-1.61-1.61-1.61,.72-1.61,1.61,.72,1.61,1.61,1.61Z"/><path class="cls-15" d="M1041.7,258.53c.89,0,1.61-.72,1.61-1.61s-.72-1.61-1.61-1.61-1.61,.72-1.61,1.61,.72,1.61,1.61,1.61Z"/></g></svg>