<?xml version="1.0" encoding="UTF-8"?><svg id="Layer_1" xmlns="http://www.w3.org/2000/svg" xmlns:xlink="http://www.w3.org/1999/xlink" viewBox="0 0 482.67 476.95"><defs><style>.cls-1{fill:url(#linear-gradient);}.cls-2{stroke:#010101;stroke-linecap:round;stroke-linejoin:round;}.cls-2,.cls-3{fill:none;}.cls-2,.cls-4{stroke-width:.32px;}.cls-5{fill:#f9aa85;}.cls-6{fill:#010101;}.cls-7,.cls-4{fill:#ee3e95;}.cls-8{fill:#ee264b;}.cls-9{fill:#ec9f79;}.cls-10{fill:#fff;}.cls-11{fill:#ffcb05;}.cls-12{fill:#e6ddee;}.cls-13{fill:#fed402;}.cls-14{fill:#66c3a0;}.cls-15{fill:#aea7bf;}.cls-16{fill:#1d102c;}.cls-17{fill:#a4519f;}.cls-18{fill:#481e54;}.cls-3{stroke:#bcbec0;stroke-width:.75px;}.cls-3,.cls-4{stroke-miterlimit:10;}.cls-19{fill:url(#linear-gradient-8);}.cls-20{fill:url(#linear-gradient-9);}.cls-21{fill:url(#linear-gradient-3);}.cls-22{fill:url(#linear-gradient-4);}.cls-23{fill:url(#linear-gradient-2);}.cls-24{fill:url(#linear-gradient-6);}.cls-25{fill:url(#linear-gradient-7);}.cls-26{fill:url(#linear-gradient-5);}.cls-27{fill:url(#linear-gradient-14);}.cls-28{fill:url(#linear-gradient-18);}.cls-29{fill:url(#linear-gradient-22);}.cls-30{fill:url(#linear-gradient-20);}.cls-31{fill:url(#linear-gradient-21);}.cls-32{fill:url(#linear-gradient-15);}.cls-33{fill:url(#linear-gradient-19);}.cls-34{fill:url(#linear-gradient-16);}.cls-35{fill:url(#linear-gradient-17);}.cls-36{fill:url(#linear-gradient-13);}.cls-37{fill:url(#linear-gradient-12);}.cls-38{fill:url(#linear-gradient-10);}.cls-39{fill:url(#linear-gradient-11);}.cls-4{stroke:#fff;}</style><linearGradient id="linear-gradient" x1="-29.08" y1="163.52" x2="433.75" y2="287.58" gradientTransform="translate(0 2)" gradientUnits="userSpaceOnUse"><stop offset=".13" stop-color="#004059"/><stop offset="1" stop-color="#09202a"/></linearGradient><linearGradient id="linear-gradient-2" x1="89.8" y1="97.48" x2="223.38" y2="97.48" gradientTransform="translate(0 2)" gradientUnits="userSpaceOnUse"><stop offset="0" stop-color="#46b978"/><stop offset="1" stop-color="#4bc1e0"/></linearGradient><linearGradient id="linear-gradient-3" x1="135.65" y1="93.89" x2="169.33" y2="93.89" gradientTransform="translate(0 2)" gradientUnits="userSpaceOnUse"><stop offset="0" stop-color="#0d212a"/><stop offset="1" stop-color="#003848"/></linearGradient><linearGradient id="linear-gradient-4" x1="29.61" y1="178.6" x2="163.19" y2="178.6" gradientTransform="translate(0 2)" gradientUnits="userSpaceOnUse"><stop offset="0" stop-color="#0172ac"/><stop offset="1" stop-color="#61a1cc"/></linearGradient><linearGradient id="linear-gradient-5" x1="76.41" y1="175.95" x2="103.01" y2="175.95" xlink:href="#linear-gradient-3"/><linearGradient id="linear-gradient-6" x1="98.47" y1="173.62" x2="118.68" y2="173.62" xlink:href="#linear-gradient-3"/><linearGradient id="linear-gradient-7" x1="310.23" y1="135.74" x2="385.09" y2="135.74" xlink:href="#linear-gradient-2"/><linearGradient id="linear-gradient-8" x1="377.65" y1="270.02" x2="392.15" y2="270.02" xlink:href="#linear-gradient-3"/><linearGradient id="linear-gradient-9" x1="296.06" y1="247.33" x2="321.94" y2="247.33" xlink:href="#linear-gradient-3"/><linearGradient id="linear-gradient-10" x1="109.14" y1="180.94" x2="242.72" y2="180.94" xlink:href="#linear-gradient-2"/><linearGradient id="linear-gradient-11" x1="155.68" y1="177.78" x2="184.48" y2="177.78" xlink:href="#linear-gradient-3"/><linearGradient id="linear-gradient-12" x1="238.75" y1="334.46" x2="372.33" y2="334.46" gradientTransform="translate(0 2)" gradientUnits="userSpaceOnUse"><stop offset="0" stop-color="#e94b57"/><stop offset="1" stop-color="#ec764d"/></linearGradient><linearGradient id="linear-gradient-13" x1="192.64" y1="231.13" x2="254.07" y2="231.13" xlink:href="#linear-gradient-3"/><linearGradient id="linear-gradient-14" x1="208.57" y1="265.62" x2="275.56" y2="265.62" xlink:href="#linear-gradient-12"/><linearGradient id="linear-gradient-15" x1="204.93" y1="270.62" x2="221.06" y2="270.62" xlink:href="#linear-gradient-12"/><linearGradient id="linear-gradient-16" x1="215.45" y1="210.3" x2="253.94" y2="210.3" xlink:href="#linear-gradient-3"/><linearGradient id="linear-gradient-17" x1="60.63" y1="338.47" x2="150.31" y2="338.47" xlink:href="#linear-gradient-2"/><linearGradient id="linear-gradient-18" x1="65.44" y1="324.54" x2="118.45" y2="324.54" xlink:href="#linear-gradient-3"/><linearGradient id="linear-gradient-19" x1="80.57" y1="324.64" x2="118.45" y2="324.64" xlink:href="#linear-gradient-12"/><linearGradient id="linear-gradient-20" x1="96.76" y1="350.01" x2="105.68" y2="350.01" xlink:href="#linear-gradient-12"/><linearGradient id="linear-gradient-21" x1="62.07" y1="246.81" x2="81.97" y2="246.81" xlink:href="#linear-gradient-12"/><linearGradient id="linear-gradient-22" x1="253.85" y1="91.51" x2="280.26" y2="91.51" gradientTransform="translate(0 2)" gradientUnits="userSpaceOnUse"><stop offset="0" stop-color="#f3a71d"/><stop offset="1" stop-color="#fed925"/></linearGradient></defs><path class="cls-1" d="M198.98,5.25c78.62-17.2,171.66,7.75,229.7,76.44,72.51,85.94,71.47,217.91,0,306.25-65.52,80.75-175.43,107.45-268.03,76.44-8.08-2.67-121.98-42.75-152.88-152.88C-28.38,184.12,66.14,34.08,198.98,5.25h0Z"/><path class="cls-3" d="M233.2,304.38c94.81,0,171.67-36.32,171.67-81.11s-76.86-81.11-171.67-81.11S61.53,178.48,61.53,223.27s76.86,81.11,171.67,81.11h0Z"/><path class="cls-23" d="M219.28,80.81l-125.38,72.47c-1.32,.73-2.93,.29-3.66-1.02-.29-.44-.44-.88-.44-1.32v-25.62c0-3.07,1.61-5.86,4.25-7.32L219.43,45.67c1.32-.73,2.93-.29,3.66,1.02,.29,.44,.29,.88,.29,1.32v25.48c.15,3.07-1.46,5.86-4.1,7.32h0Z"/><path class="cls-10" d="M128.32,125.76l-26.8,15.37c-1.9,1.17-3.52,.44-3.52-1.46v-12.01c.29-2.2,1.46-4.25,3.52-5.42l26.8-15.37c1.9-1.17,3.51-.44,3.51,1.46v12.01c-.29,2.2-1.61,4.25-3.51,5.42Z"/><path class="cls-21" d="M167.43,89.74l-29.88,17.13c-1.02,.58-1.9,.29-1.9-.88v-.88c.15-1.32,.88-2.49,1.9-3.07l29.88-17.13c1.03-.58,1.9-.29,1.9,.88v.88c0,1.17-.73,2.34-1.9,3.07Z"/><path class="cls-10" d="M210.06,72.9l-72.8,41.87c-.88,.44-1.61,.15-1.61-.73,.15-1.02,.73-2.05,1.61-2.49l72.8-42.02c.88-.44,1.61-.15,1.61,.73-.15,1.02-.73,2.05-1.61,2.64Z"/><path class="cls-10" d="M184.57,92.37l-47.46,27.38c-.88,.44-1.46,.15-1.46-.59,.15-1.02,.59-1.9,1.46-2.34l47.46-27.53c.88-.44,1.46-.15,1.46,.58,0,1.03-.59,1.9-1.46,2.49h0Z"/><path class="cls-22" d="M158.94,162.07L33.56,234.4c-1.32,.73-2.93,.29-3.66-1.02-.29-.44-.29-.88-.29-1.32v-25.62c0-3.07,1.61-5.86,4.25-7.32l125.38-72.33c1.32-.73,2.93-.29,3.66,1.02,.29,.44,.29,.88,.29,1.32v25.62c0,2.93-1.61,5.71-4.25,7.32h0Z"/><path class="cls-10" d="M68.86,205.99l-26.8,15.52c-1.9,1.02-3.52,.44-3.52-1.46v-12.15c.29-2.2,1.46-4.25,3.52-5.42l26.8-15.52c1.9-1.17,3.52-.44,3.52,1.46v12.01c-.29,2.34-1.61,4.39-3.52,5.56Z"/><path class="cls-26" d="M100.64,174.07l-21.82,12.59c-1.32,.73-2.34,.29-2.34-1.03,.15-1.61,1.03-2.93,2.34-3.81l21.82-12.59c1.32-.73,2.34-.29,2.34,1.02-.15,1.61-1.02,3.08-2.34,3.81h0Z"/><path class="cls-10" d="M94.78,185.2l-16.99,9.81c-.88,.44-1.61,.15-1.61-.73,.15-1.03,.73-2.05,1.61-2.49l16.99-9.81c.88-.44,1.61-.15,1.61,.73-.15,1.02-.73,1.9-1.61,2.49Z"/><path class="cls-24" d="M117.04,172.32l-16.99,9.81c-.88,.44-1.61,.15-1.61-.73,.15-1.03,.73-2.05,1.61-2.49l16.99-9.81c.88-.44,1.61-.15,1.61,.73-.15,1.03-.73,1.9-1.61,2.49Z"/><path class="cls-10" d="M125.1,172.61l-47.46,27.38c-.88,.44-1.47,.15-1.47-.59,.15-1.02,.59-1.9,1.47-2.34l47.46-27.38c.88-.44,1.46-.15,1.46,.59-.15,.88-.59,1.76-1.46,2.34Z"/><path class="cls-10" d="M146.78,160.02l-15.38,8.93c-.88,.44-1.47,.15-1.47-.59,.15-1.02,.59-1.9,1.47-2.34l15.38-8.93c.88-.44,1.46-.15,1.46,.58-.15,1.03-.59,1.9-1.46,2.34h0Z"/><path class="cls-25" d="M379.08,200.87l-62.84-36.31c-3.52-2.34-5.71-6.15-6.01-10.4V78.02c0-3.81,2.78-5.27,6.01-3.37l62.84,36.31c3.52,2.34,5.86,6.15,6.01,10.4v76.13c.15,3.66-2.64,5.27-6.01,3.37h0Z"/><path class="cls-17" d="M394.17,158.85v-21.08l-63.57-36.75v21.08c.15,2.93,1.76,5.56,4.25,7.17l55.22,31.92c2.34,1.32,4.1,.29,4.1-2.34Z"/><path class="cls-17" d="M330.6,80.81v21.08l63.71,36.75v-21.08c-.15-2.93-1.76-5.56-4.1-7.17l-55.37-31.92c-2.34-1.32-4.25-.29-4.25,2.34h.01Z"/><path class="cls-11" d="M342.47,158.26l-22.85-13.18c-1.46-1.02-2.49-2.64-2.64-4.39,0-1.61,1.17-2.34,2.64-1.46l22.85,13.18c1.47,1.02,2.49,2.64,2.64,4.39,0,1.61-1.17,2.2-2.64,1.46h0Z"/><path class="cls-10" d="M370.73,181.83l-52-30.01c-1.03-.59-1.61-1.76-1.76-2.93,0-1.02,.73-1.46,1.76-1.02l52,30.01c1.02,.59,1.61,1.76,1.76,2.93,0,1.02-.73,1.61-1.76,1.02Z"/><path class="cls-10" d="M358.87,180.95l-40.13-23.13c-1.03-.59-1.61-1.76-1.61-2.93v-.15c0-1.03,.73-1.46,1.61-1.03l40.13,23.13c1.02,.59,1.61,1.76,1.61,2.93v.29c0,1.02-.73,1.46-1.61,.88h0Z"/><path class="cls-15" d="M346.86,258.41h30.76v47h-30.76c-2.05,0-3.66-1.61-3.66-3.66v-39.68c0-2.05,1.61-3.66,3.66-3.66Z"/><path class="cls-12" d="M346.86,257.24h30.76v47h-30.76c-2.05,0-3.66-1.61-3.66-3.66v-39.82c0-1.9,1.76-3.51,3.66-3.51h0Z"/><path class="cls-15" d="M378.35,305.41l13.62-20.06c.88-1.32,1.32-2.78,1.32-4.39v-39.68c0-1.46-2.93-2.2-3.81-1.03l-11.86,63.98v1.17h.73Z"/><path class="cls-19" d="M377.62,304.23l13.18-18.89c.88-1.32,1.32-2.78,1.32-4.39v-39.68c0-.88-.73-1.61-1.61-1.46-.44,0-.88,.29-1.17,.59l-11.72,16.84v47h0Z"/><path class="cls-17" d="M379.08,258.85v39.82l11.57-16.54v-39.82l-11.57,16.54Z"/><path class="cls-15" d="M357.41,261.33h14.36c1.17,0,2.05,.88,2.05,2.05v34.11c0,1.17-.88,2.05-2.05,2.05h-14.36c-1.17,0-2.05-.88-2.05-2.05v-34.11c0-1.17,.88-2.05,2.05-2.05h0Z"/><path class="cls-15" d="M347.45,275.1h4.1c.29,0,.59,.29,.59,.59v9.81c0,.29-.29,.59-.59,.59h-4.1c-.29,0-.58-.29-.58-.59v-9.81c0-.44,.15-.59,.58-.59Z"/><path class="cls-15" d="M321.81,247.13l-7.91-4.54c-.73-.29-1.46-.29-2.2,0l-17.28,9.96h-.59v.73c0,.29,.15,.44,.44,.59l8.2,4.69c.73,.29,1.47,.29,2.2,0l17.43-10.1c.29-.15,.44-.29,.44-.59v-.88l-.73,.15h0Z"/><path class="cls-12" d="M302.48,257.82l-8.2-4.68c-.29-.15-.59-.44-.44-.88,0-.15,.29-.44,.44-.44l17.43-10.1c.73-.29,1.46-.29,2.2,0l8.2,4.68c.29,.15,.59,.44,.44,.88,0,.15-.29,.44-.44,.44l-17.43,10.1c-.73,.29-1.46,.29-2.2,0h0Z"/><path class="cls-18" d="M321.96,248.3l-15.53,8.93v-.44l6-5.27,9.52-3.66v.44h.01Z"/><path class="cls-16" d="M299.99,255.33l-1.46-.88c-.29-.15-.29-.44,0-.59s.73-.15,1.02,0l1.46,.88c.29,.15,.29,.44,0,.58-.29,.15-.73,.15-1.03,0h.01Z"/><path class="cls-20" d="M311.56,241.86l-15.53,8.93,10.4,6,15.53-8.93-10.4-6Z"/><path class="cls-17" d="M311.56,241.86l-15.53,8.93,25.93-2.93-10.4-6Z"/><path class="cls-38" d="M238.47,164.41l-125.38,72.33c-1.32,.73-2.93,.29-3.66-1.02-.29-.44-.29-.88-.29-1.32v-25.62c0-3.07,1.61-5.86,4.25-7.32l125.38-72.33c1.32-.73,2.93-.29,3.66,1.02,.29,.44,.29,.88,.29,1.32v25.48c0,3.22-1.61,6-4.25,7.47h0Z"/><path class="cls-10" d="M148.39,208.33l-26.8,15.52c-1.9,1.17-3.51,.44-3.51-1.46v-12.01c.29-2.2,1.46-4.25,3.51-5.42l26.8-15.52c1.9-1.17,3.52-.44,3.52,1.46v12.01c-.29,2.2-1.61,4.25-3.52,5.42h0Z"/><path class="cls-39" d="M182.08,175.39l-24.02,13.76c-1.32,.73-2.34,.29-2.34-1.03,.15-1.61,1.02-2.93,2.34-3.81l24.02-13.91c1.32-.73,2.34-.29,2.34,1.02-.15,1.76-1.03,3.07-2.34,3.95v.02Z"/><path class="cls-10" d="M196.87,174.51l-39.55,22.84c-.88,.44-1.61,.15-1.61-.73,.15-1.02,.73-2.05,1.61-2.49l39.55-22.84c.88-.44,1.61-.15,1.61,.73-.15,1.03-.73,2.05-1.61,2.49Z"/><path class="cls-10" d="M204.64,174.95l-47.46,27.38c-.88,.44-1.46,.15-1.46-.59,.15-1.02,.59-1.9,1.46-2.34l47.46-27.38c.88-.44,1.46-.15,1.46,.59-.15,1.02-.73,1.9-1.46,2.34Z"/><path class="cls-8" d="M324.6,384.62s18.75-9.37,22.41-26.94c1.61-8.2,20.65-21.23,25.34-28.7l-34.86,7.17-25.78,22.55,12.89,25.92Z"/><path class="cls-5" d="M389.78,379.2c-3.66-.15-11.28-2.64-16.4-4.39-3.08-1.02-5.57-3.22-7.03-6.15-5.86-11.57-21.82-35.43-29.29-46.71-17.58-22.69-61.52-33.09-61.52-33.09-2.05-.44-15.67-3.81-23.73-1.76,0,14.79,26.51,26.5,43.65,31.33s36.03,16.11,36.03,16.11c1.46,7.47,9.52,25.33,14.65,28.4,5.13,3.08,15.23,13.76,15.23,13.76,2.05,1.9,2.2,5.71,3.52,7.03,1.32,1.32,5.13-.15,6.01-.73,1.61,0,3.37,.15,4.98,.29,1.17,.15,4.83,2.93,6.59,3.22,2.2,.15,4.39-.15,6.59-1.02,1.76-.73,6.59-6,.73-6.3h0Z"/><path class="cls-9" d="M355.79,350.79l-14.65-8.79c-1.76,2.05-3.22,4.25-4.69,6.59,1.61,3.37,3.37,6.74,5.42,9.81,6.01,0,12.01-.29,18.02-1.02-1.32-2.05-2.64-4.25-4.1-6.59h0Z"/><path class="cls-5" d="M249.16,302.48c-.29,3.37-.44,6.74-2.2,9.81s-6.44,14.79,6.45,22.11c12.89,7.32,29.29,8.2,37.64,8.49,8.06,.29,18.31,1.76,22.41,2.05,5.71,.59,11.28,1.9,16.55,3.95,12.89,4.98,26.66,7.61,40.57,7.91,4.98,.44,9.96,1.46,14.79,3.07,.44,1.46,2.05,3.37,6.15,3.22,6.59,.73,5.57,3.08,12.45,3.51,7.32,.59,12.89,.44,15.53-7.03,1.61-4.39-21.24-3.81-23.58-4.68-7.47-3.08-50.68-16.69-65.91-20.94-2.2-1.46-4.25-.73-7.47-3.22-9.52-7.32-43.06-23.57-69.14-33.97-4.83,2.2-4.1,4.1-4.25,5.71h0Z"/><path class="cls-37" d="M249.16,302.48s-10.11,9.08-10.4,22.11c-.44,17.13,24.9,29.72,41.89,36.46s35.01,12.59,43.94,23.43c0-12.01,8.64-18.6,16.26-22.11s7.03-16.4,11.28-20.64c4.83-4.83,17.28-10.84,20.21-12.74-43.36-10.54-43.94-33.68-96.82-40.12-24.02-2.78-24.31,8.49-26.36,13.62h0Z"/><path class="cls-36" d="M231.88,194.72s-17.28,3.22-27.83,31.19c-4.83,12.74-1.76,23.43-5.13,28.84-3.37,5.42-8.93,8.35-4.83,13.18s20.94,4.39,29.59,1.17c8.64-3.22,20.95-7.91,19.19-16.84s8.93-8.49,11.13-16.98c.73-3.07-4.25-22.11-9.67-25.77s-12.45-14.79-12.45-14.79Z"/><path class="cls-5" d="M250.19,233.22s2.2-7.91,9.81-5.27c7.62,2.64,2.64,21.23,2.49,39.09-.15,17.86-7.18,17.42-7.18,17.42l-7.03-41.43,1.9-9.81h.01Z"/><path class="cls-8" d="M256.19,241.42l-6.01,13.18,.29,1.32,12.6,.59c.59-7.03,1.32-13.62,1.32-18.74-1.17,2.64-8.2,3.66-8.2,3.66h0Z"/><path class="cls-27" d="M208.88,264.26s-2.34-8.35,6.01-11.42c8.35-3.07,29.88-12.59,35.3-19.77,.15,2.2,1.02,4.25,2.34,6,.73,.88,2.93,1.17,3.81,2.2,2.64,2.93,5.86,5.12,9.52,6.73,6.74,2.78,5.57,12.45,1.76,16.69,4.83,5.42,8.2,20.94,8.06,24.01-3.37,5.27-17.14,12.74-26.36,13.47-1.46-6.73-16.55-19.18-21.53-23.28-3.37-2.34-9.23-7.47-18.89-14.64h-.02Z"/><path class="cls-8" d="M211.96,259.58c-3.81,3.66-3.08,4.69-3.08,4.69,9.67,7.17,14.65,12.74,17.87,15.37,4.98,4.1,21.09,16.11,22.41,22.84-.59-10.4-31.79-37.63-37.2-42.9h0Z"/><path class="cls-5" d="M212.4,254.16c-11.72,3.66-4.54,53-8.06,56.52-3.51,3.51-16.84,20.64-16.84,20.64-8.79-1.46-14.06,.88-17.72,3.22s6.15,2.34,6.15,2.34h14.94c1.61,0,3.22-.73,4.39-1.9,4.69-4.83,16.99-17.57,19.19-20.79,2.64-4.1,4.69-30.89,4.69-45.68s-6.74-14.35-6.74-14.35h0Z"/><path class="cls-5" d="M248.43,255.19c7.47-7.03,6.3-10.25,7.91-13.62-2.34-2.49-4.39-5.27-6.15-8.2-5.42,7.18-26.95,16.69-35.3,19.77s-6.01,11.42-6.01,11.42c0,0,27.54,1.76,39.55-9.37h0Z"/><path class="cls-32" d="M221.04,264.12c-4.69,.44-9.52,.15-14.06-.73v-.15l-.15,.15c-1.17,5.86-1.76,11.71-1.76,17.57,0,0,9.52-1.32,14.06,1.03,.44-6.15,1.46-9.22,1.9-13.47v-4.39h.01Z"/><path class="cls-5" d="M249.6,244.64l-3.66-1.46s-2.49-3.22-4.54-11.57-10.25-1.17-10.25-1.17c0,0,.59,4.1-2.05,15.96s14.35,4.39,14.35,4.39l6.15-6.15h0Z"/><path class="cls-9" d="M232.17,229.71c2.34-1.61,7.76-4.83,9.23,1.61,.73,3.37,1.76,6.59,3.08,9.66-7.76-.59-11.13-7.91-12.3-11.27h-.01Z"/><path class="cls-5" d="M243.74,234.1c3.37,.29,6.45-1.61,7.76-4.68,.73-1.76,1.02-3.66,1.02-5.56,.15-9.37-1.9-17.13-7.03-20.94s-9.81-4.68-12.3-3.37c-2.49,1.32-15.97,4.39-16.26,9.08-.29,4.69,9.23,18.16,14.06,21.96,3.52,2.49,9.37,3.22,12.74,3.51h.01Z"/><path class="cls-34" d="M249.6,199.26c2.05,1.61,3.52,3.95,4.25,6.59,.73,3.37-.44,6.74-8.93,10.4-11.28,4.83-11.13,8.2-10.84,10.83l-4.83-7.18,2.05,10.69s-10.4-2.93-12.16-7.03c-1.76-4.1-4.83-10.4-3.08-15.81,1.76-5.42,11.43-12.3,18.16-13.47,4.83-1.17,11.28,1.76,15.38,4.98h0Z"/><path class="cls-5" d="M230.56,222.97c1.61,1.76,2.05,3.95,1.03,4.98-1.03,1.02-3.37,.44-4.98-1.32s-2.05-4.1-.88-5.12c1.17-1.03,3.08-.29,4.83,1.46h0Z"/><path class="cls-35" d="M142.24,402.77l-75.87-42.9c-3.66-2.05-6.74-6.88-6.74-10.54l.15-68.38c0-3.66,3.08-4.98,6.74-2.78l75.87,43.05c3.66,2.05,6.74,6.88,6.74,10.54l-.15,68.38c0,3.51-3.07,4.83-6.74,2.64h0Z"/><path class="cls-28" d="M112.94,366.61l-44.24-25.04c-2.34-1.32-4.25-6.88-4.25-9.22v-43.92c0-2.34,1.9-3.08,4.25-1.76l44.24,25.18c2.34,1.46,3.95,3.81,4.25,6.59v45.53c0,2.2-1.9,3.95-4.25,2.64Z"/><path class="cls-11" d="M79.96,320.48c4.3-1.41,5.71-8.91,3.13-16.75-2.57-7.84-8.15-13.04-12.45-11.63s-5.71,8.91-3.13,16.75c2.57,7.84,8.15,13.04,12.46,11.63h-.01Z"/><path class="cls-13" d="M117.19,363.97v-22.84l-27.83-15.81v27.97l24.31,13.76c2.05,1.17,3.51-.29,3.51-3.07h.01Z"/><path class="cls-11" d="M139.02,354.6l-14.36-8.2c-.88-.44-1.32-1.32-1.46-2.34v-.73c0-.88,.73-1.02,1.46-.58l14.36,8.2c.88,.44,1.32,1.32,1.46,2.34v.73c0,.73-.59,1.02-1.46,.59h0Z"/><path class="cls-10" d="M139.46,374.07l-18.31-10.4c-.88-.44-1.32-1.32-1.46-2.2v-.59c0-.73,.59-1.02,1.46-.59l18.31,10.4c.88,.44,1.32,1.32,1.46,2.2v.59c0,.88-.73,1.17-1.46,.59Z"/><path class="cls-10" d="M139.46,368.36l-18.31-10.39c-.88-.44-1.32-1.32-1.46-2.2v-.59c0-.73,.59-1.03,1.46-.59l18.31,10.4c.88,.44,1.32,1.32,1.46,2.2v.58c0,.73-.73,1.03-1.46,.59h0Z"/><path class="cls-10" d="M139.46,362.65l-18.31-10.39c-.88-.44-1.32-1.32-1.46-2.2v-.59c0-.73,.59-1.02,1.46-.59l18.31,10.4c.88,.44,1.32,1.32,1.46,2.2v.58c0,.73-.73,1.02-1.46,.59h0Z"/><path class="cls-33" d="M79.55,320.49l8.49,5.12,29.29,16.55v-14.49l-29.15-16.55-8.64,9.37h.01Z"/><path class="cls-30" d="M104.16,346.99l-8.2-4.69c-.15-.15-.29,0-.29,.29v14.2l8.94,4.98v-14.2c0-.15-.15-.44-.44-.58h-.01Z"/><path class="cls-14" d="M73.4,337.03c0-2.64-1.32-4.98-3.22-6.74-.29-1.46-1.17-2.78-2.49-3.66-.73-.44-1.61-.29-2.2,.29,0,.15-.15,.15-.15,.29-.15-.15-.29-.29-.44-.29-.15-.15-.29-.15-.44-.15v7.17c0,2.78,1.17,5.42,3.51,7.17l6.44,3.66c.44-.73,.73-1.76,.73-2.64-.15-1.9-.73-3.66-1.76-5.12l.02,.02Z"/><path class="cls-14" d="M80.57,345.23c0-1.32-.73-2.64-1.76-3.51-.15-.73-.59-1.46-1.32-1.9-.44-.29-.88-.15-1.17,.15,0,0,0,.15-.15,.15l-.29-.15c-.88-.44-1.46,.15-1.46,1.32,0,.44,0,.73,.15,1.17-.44,0-.73,.59-.73,1.46v.73l7.18,4.1c0-.29,.15-.44,.15-.73,.15-1.02-.15-1.9-.59-2.78h-.01Z"/><path class="cls-11" d="M112.07,374.95l-45.99-26.06c-1.03-.59-1.61-1.61-1.76-2.78v-.73c0-.88,.73-1.32,1.76-.73l45.99,26.06c1.02,.58,1.61,1.61,1.76,2.78v.73c0,1.02-.73,1.32-1.76,.73Z"/><path class="cls-11" d="M99.32,372.9l-33.69-19.18c-.73-.44-1.17-1.02-1.17-1.9v-.44c0-.58,.59-.88,1.17-.44l33.69,19.18c.73,.44,1.17,1.02,1.17,1.9v.58c0,.44-.59,.73-1.17,.29h0Z"/><path class="cls-11" d="M428.01,172.9c7.32,4.25,13.18,14.35,13.18,22.84s-6.01,11.71-13.18,7.61c-7.18-4.1-13.18-14.35-13.18-22.84s5.86-11.86,13.18-7.61Z"/><path class="cls-10" d="M435,199.59c.68-.43-2.28-6.32-6.63-13.14-4.34-6.82-8.41-12-9.1-11.57-.68,.43,2.28,6.32,6.62,13.14,4.34,6.82,8.41,12,9.1,11.57h.01Z"/><path class="cls-10" d="M433.57,183.15l-9.37-.73-4.83,6.74,.73,1.46,14.21-6.15-.73-1.32h-.01Z"/><path class="cls-10" d="M436.65,195.89l-4.39-.59-2.2,3.22,.88,1.46,6.59-2.93-.88-1.17h0Z"/><path class="cls-11" d="M72.08,233.52c7.32,4.25,13.18,14.49,13.18,22.84s-6.01,11.71-13.18,7.47c-7.18-4.25-13.18-14.35-13.18-22.84s5.86-11.57,13.18-7.47Z"/><path class="cls-31" d="M62.12,241.28c.15-2.93,2.64-3.95,5.71-2.34,1.76,.88,3.08,2.2,4.25,3.81,1.46-.29,3.08,.15,4.25,1.02,3.08,2.05,5.13,5.27,5.71,8.93,0,.73,0,1.32-.29,2.05-.29,.88-1.17,1.61-2.05,1.76-1.76,.29-6.59,1.32-7.32,2.93h-.15c-.15,0-.15-.15-.29-.15l-.15-.15c-.73-2.49-5.57-8.93-7.32-11.42-.88-1.17-1.61-2.64-2.05-4.1-.29-.88-.44-1.61-.29-2.34h-.01Z"/><path class="cls-29" d="M267.03,78.32c-7.32,4.25-13.18,14.35-13.18,22.84s6.01,11.71,13.33,7.61,13.18-14.35,13.18-22.84-6.01-11.86-13.33-7.61Z"/><path class="cls-10" d="M268.35,84.91c-4.98,2.93-9.23,8.05-9.23,11.42-.15,1.46,1.02,2.78,2.49,2.78h.29l-1.61,4.83c0,.1,.05,.1,.15,0l5.57-5.71c.73-.29,1.61-.73,2.34-1.17,5.13-2.93,9.23-8.05,9.23-11.42s-4.25-3.66-9.23-.73h0Zm-5.42,10.69c-.88,.44-1.61,.15-1.61-.73,.15-1.03,.73-1.9,1.61-2.49,.88-.44,1.61-.15,1.61,.73-.15,1.02-.73,1.9-1.61,2.49Zm5.27-3.08c-.88,.44-1.61,.15-1.61-.73,.15-1.03,.73-1.9,1.61-2.49,.88-.44,1.61-.15,1.61,.73-.15,1.03-.73,1.9-1.61,2.49Zm5.27-2.93c-.88,.44-1.61,.15-1.61-.73,.15-1.03,.73-1.9,1.61-2.49,.88-.44,1.61-.15,1.61,.73-.15,.88-.73,1.9-1.61,2.49Z"/><path class="cls-17" d="M389.19,158.99l-53.17-32.94c-2.78-2.05-4.54-5.12-4.69-8.49l-.59-33.82c0-3.08,1.9-4.39,4.54-2.78l53.17,32.94c2.78,2.05,4.39,5.12,4.69,8.49l.59,33.82c0,3.08-2.05,4.25-4.54,2.78Z"/><path class="cls-2" d="M335.73,86.52l4.1,7.76"/><path class="cls-2" d="M335.73,91.64l4.1-2.49"/><path class="cls-7" d="M361.95,112.29c3.22-8.93,15.38,10.1,19.63,20.35-2.78,3.51-9.08,8.35-19.19,2.2-10.11-6.15-16.7-18.89-19.77-26.06,3.95-4.98,15.53-9.66,19.33,3.51Z"/><path class="cls-2" d="M375.72,129.71l-27.24-16.69"/><path class="cls-4" d="M355.21,112.87c-2.78-.73-4.69,.15-5.27,2.64l-2.34,11.13,7.76,7.18,2.34-11.13c.58-2.49-.44-6.15-2.49-9.81h0Z"/><path class="cls-6" d="M356.09,138.49l1.17-5.42c.73-3.22-1.17-8.05-4.1-10.69-2.93-2.78-5.86-2.49-6.59,.73l-1.76,8.35,11.28,7.03h0Z"/><path class="cls-15" d="M118.95,250.79c.89,0,1.61-.72,1.61-1.61s-.72-1.61-1.61-1.61-1.61,.72-1.61,1.61,.72,1.61,1.61,1.61Z"/><path class="cls-15" d="M125.1,250.79c.89,0,1.61-.72,1.61-1.61s-.72-1.61-1.61-1.61-1.61,.72-1.61,1.61,.72,1.61,1.61,1.61Z"/><path class="cls-15" d="M131.4,250.79c.89,0,1.61-.72,1.61-1.61s-.72-1.61-1.61-1.61-1.61,.72-1.61,1.61,.72,1.61,1.61,1.61Z"/><path class="cls-15" d="M137.7,250.79c.89,0,1.61-.72,1.61-1.61s-.72-1.61-1.61-1.61-1.61,.72-1.61,1.61,.72,1.61,1.61,1.61Z"/><path class="cls-15" d="M143.85,250.79c.89,0,1.61-.72,1.61-1.61s-.72-1.61-1.61-1.61-1.61,.72-1.61,1.61,.72,1.61,1.61,1.61Z"/><path class="cls-15" d="M150.15,250.79c.89,0,1.61-.72,1.61-1.61s-.72-1.61-1.61-1.61-1.61,.72-1.61,1.61,.72,1.61,1.61,1.61Z"/><path class="cls-15" d="M156.45,250.79c.89,0,1.61-.72,1.61-1.61s-.72-1.61-1.61-1.61-1.61,.72-1.61,1.61,.72,1.61,1.61,1.61Z"/><path class="cls-15" d="M162.74,250.79c.89,0,1.61-.72,1.61-1.61s-.72-1.61-1.61-1.61-1.61,.72-1.61,1.61,.72,1.61,1.61,1.61Z"/><path class="cls-15" d="M168.9,250.79c.89,0,1.61-.72,1.61-1.61s-.72-1.61-1.61-1.61-1.61,.72-1.61,1.61,.72,1.61,1.61,1.61Z"/><path class="cls-15" d="M118.95,256.06c.89,0,1.61-.72,1.61-1.61s-.72-1.61-1.61-1.61-1.61,.72-1.61,1.61,.72,1.61,1.61,1.61Z"/><path class="cls-15" d="M125.1,256.06c.89,0,1.61-.72,1.61-1.61s-.72-1.61-1.61-1.61-1.61,.72-1.61,1.61,.72,1.61,1.61,1.61Z"/><path class="cls-15" d="M131.4,256.06c.89,0,1.61-.72,1.61-1.61s-.72-1.61-1.61-1.61-1.61,.72-1.61,1.61,.72,1.61,1.61,1.61Z"/><path class="cls-15" d="M137.7,256.06c.89,0,1.61-.72,1.61-1.61s-.72-1.61-1.61-1.61-1.61,.72-1.61,1.61,.72,1.61,1.61,1.61Z"/><path class="cls-15" d="M143.85,256.06c.89,0,1.61-.72,1.61-1.61s-.72-1.61-1.61-1.61-1.61,.72-1.61,1.61,.72,1.61,1.61,1.61Z"/><path class="cls-15" d="M150.15,256.06c.89,0,1.61-.72,1.61-1.61s-.72-1.61-1.61-1.61-1.61,.72-1.61,1.61,.72,1.61,1.61,1.61Z"/><path class="cls-15" d="M156.45,256.06c.89,0,1.61-.72,1.61-1.61s-.72-1.61-1.61-1.61-1.61,.72-1.61,1.61,.72,1.61,1.61,1.61Z"/><path class="cls-15" d="M162.74,256.06c.89,0,1.61-.72,1.61-1.61s-.72-1.61-1.61-1.61-1.61,.72-1.61,1.61,.72,1.61,1.61,1.61Z"/><path class="cls-15" d="M168.9,256.06c.89,0,1.61-.72,1.61-1.61s-.72-1.61-1.61-1.61-1.61,.72-1.61,1.61,.72,1.61,1.61,1.61Z"/><path class="cls-15" d="M118.95,261.33c.89,0,1.61-.72,1.61-1.61s-.72-1.61-1.61-1.61-1.61,.72-1.61,1.61,.72,1.61,1.61,1.61Z"/><path class="cls-15" d="M125.1,261.33c.89,0,1.61-.72,1.61-1.61s-.72-1.61-1.61-1.61-1.61,.72-1.61,1.61,.72,1.61,1.61,1.61Z"/><path class="cls-15" d="M131.4,261.33c.89,0,1.61-.72,1.61-1.61s-.72-1.61-1.61-1.61-1.61,.72-1.61,1.61,.72,1.61,1.61,1.61Z"/><path class="cls-15" d="M137.7,261.33c.89,0,1.61-.72,1.61-1.61s-.72-1.61-1.61-1.61-1.61,.72-1.61,1.61,.72,1.61,1.61,1.61Z"/><path class="cls-15" d="M143.85,261.33c.89,0,1.61-.72,1.61-1.61s-.72-1.61-1.61-1.61-1.61,.72-1.61,1.61,.72,1.61,1.61,1.61Z"/><path class="cls-15" d="M150.15,261.33c.89,0,1.61-.72,1.61-1.61s-.72-1.61-1.61-1.61-1.61,.72-1.61,1.61,.72,1.61,1.61,1.61Z"/><path class="cls-15" d="M156.45,261.33c.89,0,1.61-.72,1.61-1.61s-.72-1.61-1.61-1.61-1.61,.72-1.61,1.61,.72,1.61,1.61,1.61Z"/><path class="cls-15" d="M162.74,261.33c.89,0,1.61-.72,1.61-1.61s-.72-1.61-1.61-1.61-1.61,.72-1.61,1.61,.72,1.61,1.61,1.61Z"/><path class="cls-15" d="M168.9,261.33c.89,0,1.61-.72,1.61-1.61s-.72-1.61-1.61-1.61-1.61,.72-1.61,1.61,.72,1.61,1.61,1.61Z"/><path class="cls-15" d="M118.95,266.75c.89,0,1.61-.72,1.61-1.61s-.72-1.61-1.61-1.61-1.61,.72-1.61,1.61,.72,1.61,1.61,1.61Z"/><path class="cls-15" d="M125.1,266.75c.89,0,1.61-.72,1.61-1.61s-.72-1.61-1.61-1.61-1.61,.72-1.61,1.61,.72,1.61,1.61,1.61Z"/><path class="cls-15" d="M131.4,266.75c.89,0,1.61-.72,1.61-1.61s-.72-1.61-1.61-1.61-1.61,.72-1.61,1.61,.72,1.61,1.61,1.61Z"/><path class="cls-15" d="M137.7,266.75c.89,0,1.61-.72,1.61-1.61s-.72-1.61-1.61-1.61-1.61,.72-1.61,1.61,.72,1.61,1.61,1.61Z"/><path class="cls-15" d="M143.85,266.75c.89,0,1.61-.72,1.61-1.61s-.72-1.61-1.61-1.61-1.61,.72-1.61,1.61,.72,1.61,1.61,1.61Z"/><path class="cls-15" d="M150.15,266.75c.89,0,1.61-.72,1.61-1.61s-.72-1.61-1.61-1.61-1.61,.72-1.61,1.61,.72,1.61,1.61,1.61Z"/><path class="cls-15" d="M156.45,266.75c.89,0,1.61-.72,1.61-1.61s-.72-1.61-1.61-1.61-1.61,.72-1.61,1.61,.72,1.61,1.61,1.61Z"/><path class="cls-15" d="M162.74,266.75c.89,0,1.61-.72,1.61-1.61s-.72-1.61-1.61-1.61-1.61,.72-1.61,1.61,.72,1.61,1.61,1.61Z"/><path class="cls-15" d="M168.9,266.75c.89,0,1.61-.72,1.61-1.61s-.72-1.61-1.61-1.61-1.61,.72-1.61,1.61,.72,1.61,1.61,1.61Z"/><path class="cls-15" d="M273.92,190.47c.89,0,1.61-.72,1.61-1.61s-.72-1.61-1.61-1.61-1.61,.72-1.61,1.61,.72,1.61,1.61,1.61Z"/><path class="cls-15" d="M280.22,190.47c.89,0,1.61-.72,1.61-1.61s-.72-1.61-1.61-1.61-1.61,.72-1.61,1.61,.72,1.61,1.61,1.61Z"/><path class="cls-15" d="M286.51,190.47c.89,0,1.61-.72,1.61-1.61s-.72-1.61-1.61-1.61-1.61,.72-1.61,1.61,.72,1.61,1.61,1.61Z"/><path class="cls-15" d="M292.66,190.47c.89,0,1.61-.72,1.61-1.61s-.72-1.61-1.61-1.61-1.61,.72-1.61,1.61,.72,1.61,1.61,1.61Z"/><path class="cls-15" d="M298.96,190.47c.89,0,1.61-.72,1.61-1.61s-.72-1.61-1.61-1.61-1.61,.72-1.61,1.61,.72,1.61,1.61,1.61Z"/><path class="cls-15" d="M305.26,190.47c.89,0,1.61-.72,1.61-1.61s-.72-1.61-1.61-1.61-1.61,.72-1.61,1.61,.72,1.61,1.61,1.61h0Z"/><path class="cls-15" d="M311.41,190.47c.89,0,1.61-.72,1.61-1.61s-.72-1.61-1.61-1.61-1.61,.72-1.61,1.61,.72,1.61,1.61,1.61Z"/><path class="cls-15" d="M317.71,190.47c.89,0,1.61-.72,1.61-1.61s-.72-1.61-1.61-1.61-1.61,.72-1.61,1.61,.72,1.61,1.61,1.61Z"/><path class="cls-15" d="M324.01,190.47c.89,0,1.61-.72,1.61-1.61s-.72-1.61-1.61-1.61-1.61,.72-1.61,1.61,.72,1.61,1.61,1.61Z"/><path class="cls-15" d="M273.92,195.89c.89,0,1.61-.72,1.61-1.61s-.72-1.61-1.61-1.61-1.61,.72-1.61,1.61,.72,1.61,1.61,1.61Z"/><path class="cls-15" d="M280.22,195.89c.89,0,1.61-.72,1.61-1.61s-.72-1.61-1.61-1.61-1.61,.72-1.61,1.61,.72,1.61,1.61,1.61Z"/><path class="cls-15" d="M286.51,195.89c.89,0,1.61-.72,1.61-1.61s-.72-1.61-1.61-1.61-1.61,.72-1.61,1.61,.72,1.61,1.61,1.61Z"/><path class="cls-15" d="M292.66,195.89c.89,0,1.61-.72,1.61-1.61s-.72-1.61-1.61-1.61-1.61,.72-1.61,1.61,.72,1.61,1.61,1.61Z"/><path class="cls-15" d="M298.96,195.89c.89,0,1.61-.72,1.61-1.61s-.72-1.61-1.61-1.61-1.61,.72-1.61,1.61,.72,1.61,1.61,1.61Z"/><path class="cls-15" d="M305.26,195.89c.89,0,1.61-.72,1.61-1.61s-.72-1.61-1.61-1.61-1.61,.72-1.61,1.61,.72,1.61,1.61,1.61h0Z"/><path class="cls-15" d="M311.41,195.89c.89,0,1.61-.72,1.61-1.61s-.72-1.61-1.61-1.61-1.61,.72-1.61,1.61,.72,1.61,1.61,1.61Z"/><path class="cls-15" d="M317.71,195.89c.89,0,1.61-.72,1.61-1.61s-.72-1.61-1.61-1.61-1.61,.72-1.61,1.61,.72,1.61,1.61,1.61Z"/><path class="cls-15" d="M324.01,195.89c.89,0,1.61-.72,1.61-1.61s-.72-1.61-1.61-1.61-1.61,.72-1.61,1.61,.72,1.61,1.61,1.61Z"/><path class="cls-15" d="M273.92,201.16c.89,0,1.61-.72,1.61-1.61s-.72-1.61-1.61-1.61-1.61,.72-1.61,1.61,.72,1.61,1.61,1.61Z"/><path class="cls-15" d="M280.22,201.16c.89,0,1.61-.72,1.61-1.61s-.72-1.61-1.61-1.61-1.61,.72-1.61,1.61,.72,1.61,1.61,1.61Z"/><path class="cls-15" d="M286.51,201.16c.89,0,1.61-.72,1.61-1.61s-.72-1.61-1.61-1.61-1.61,.72-1.61,1.61,.72,1.61,1.61,1.61Z"/><path class="cls-15" d="M292.66,201.16c.89,0,1.61-.72,1.61-1.61s-.72-1.61-1.61-1.61-1.61,.72-1.61,1.61,.72,1.61,1.61,1.61Z"/><path class="cls-15" d="M298.96,201.16c.89,0,1.61-.72,1.61-1.61s-.72-1.61-1.61-1.61-1.61,.72-1.61,1.61,.72,1.61,1.61,1.61Z"/><path class="cls-15" d="M305.26,201.16c.89,0,1.61-.72,1.61-1.61s-.72-1.61-1.61-1.61-1.61,.72-1.61,1.61,.72,1.61,1.61,1.61h0Z"/><path class="cls-15" d="M311.41,201.16c.89,0,1.61-.72,1.61-1.61s-.72-1.61-1.61-1.61-1.61,.72-1.61,1.61,.72,1.61,1.61,1.61Z"/><path class="cls-15" d="M317.71,201.16c.89,0,1.61-.72,1.61-1.61s-.72-1.61-1.61-1.61-1.61,.72-1.61,1.61,.72,1.61,1.61,1.61Z"/><path class="cls-15" d="M324.01,201.16c.89,0,1.61-.72,1.61-1.61s-.72-1.61-1.61-1.61-1.61,.72-1.61,1.61,.72,1.61,1.61,1.61Z"/><path class="cls-15" d="M273.92,206.58c.89,0,1.61-.72,1.61-1.61s-.72-1.61-1.61-1.61-1.61,.72-1.61,1.61,.72,1.61,1.61,1.61Z"/><path class="cls-15" d="M280.22,206.58c.89,0,1.61-.72,1.61-1.61s-.72-1.61-1.61-1.61-1.61,.72-1.61,1.61,.72,1.61,1.61,1.61Z"/><path class="cls-15" d="M286.51,206.58c.89,0,1.61-.72,1.61-1.61s-.72-1.61-1.61-1.61-1.61,.72-1.61,1.61,.72,1.61,1.61,1.61Z"/><path class="cls-15" d="M292.66,206.58c.89,0,1.61-.72,1.61-1.61s-.72-1.61-1.61-1.61-1.61,.72-1.61,1.61,.72,1.61,1.61,1.61Z"/><path class="cls-15" d="M298.96,206.58c.89,0,1.61-.72,1.61-1.61s-.72-1.61-1.61-1.61-1.61,.72-1.61,1.61,.72,1.61,1.61,1.61Z"/><path class="cls-15" d="M305.26,206.58c.89,0,1.61-.72,1.61-1.61s-.72-1.61-1.61-1.61-1.61,.72-1.61,1.61,.72,1.61,1.61,1.61h0Z"/><path class="cls-15" d="M311.41,206.58c.89,0,1.61-.72,1.61-1.61s-.72-1.61-1.61-1.61-1.61,.72-1.61,1.61,.72,1.61,1.61,1.61Z"/><path class="cls-15" d="M317.71,206.58c.89,0,1.61-.72,1.61-1.61s-.72-1.61-1.61-1.61-1.61,.72-1.61,1.61,.72,1.61,1.61,1.61Z"/><path class="cls-15" d="M324.01,206.58c.89,0,1.61-.72,1.61-1.61s-.72-1.61-1.61-1.61-1.61,.72-1.61,1.61,.72,1.61,1.61,1.61Z"/></svg>