<?xml version="1.0" encoding="UTF-8"?><svg id="Layer_1" xmlns="http://www.w3.org/2000/svg" viewBox="0 0 12 12"><defs><style>.cls-1{fill:#e24550;}</style></defs><path class="cls-1" d="M0,6C0,2.69,2.69,0,6,0s6,2.69,6,6-2.69,6-6,6S0,9.31,0,6Zm4.1-1.12l1.1,1.1-1.1,1.12c-.22,.22-.22,.58,0,.78,.22,.24,.58,.24,.78,0l1.1-1.08,1.12,1.08c.22,.24,.58,.24,.78,0,.24-.2,.24-.56,0-.78l-1.08-1.12,1.08-1.1c.24-.2,.24-.56,0-.78-.2-.22-.55-.22-.78,0l-1.12,1.1-1.1-1.1c-.2-.22-.55-.22-.78,0-.22,.22-.22,.58,0,.78Z"/></svg>